<svg data-name="Calque 1" xmlns="http://www.w3.org/2000/svg" viewBox="0 0 73.46 73.46">
    <circle cx="36.73" cy="36.73" r="36.73" fill="#028eaa"/>
    <path d="M42.32 46.14l-.12-.12a2 2 0 00-.58-.41l-.61-.36-.56-.37c-.08-.05-.17-.09-.25-.15s-.22-.18-.33-.27l-.55-.4-.53-.4-.46-.36h-.09l-.51.1a.51.51 0 01-.32-.06.88.88 0 00-.23-.07c0 .12-.07.16-.21.14l-.31-.29a1.88 1.88 0 01-1.15.52 6.3 6.3 0 01-.75.05 4.3 4.3 0 01-1-.13 4.49 4.49 0 01-.8-.29 3.45 3.45 0 00-.42-.14.34.34 0 01-.26-.39 5.59 5.59 0 01.16-1.15c.05-.23.11-.46.17-.68a4.91 4.91 0 00.17-1.21c0-.33.05-.66.1-1a2.62 2.62 0 01.13-.48c.09-.25.19-.5.27-.75a.59.59 0 000-.14.86.86 0 010-.16c0-.1.09-.14.18-.11a1.37 1.37 0 00.57 0c.26 0 .52-.06.78-.07a5.44 5.44 0 01.58.05 12.73 12.73 0 001.63.2h.9a2.78 2.78 0 01.95.15 1.7 1.7 0 01.35.19.25.25 0 01.1.17 4 4 0 01.06.5c0 .17.05.34.06.51s0 .22 0 .34 0 .37-.05.55a2.21 2.21 0 01-.15.73c-.11.26-.22.52-.34.78a1.1 1.1 0 01-.14.18.09.09 0 000 .16.39.39 0 01.11.17c0 .09 0 .12-.09.15s-.08 0-.05.12a.81.81 0 01.07.22v.58c0 .13 0 .2.06.28l.75.74c.16.16.32.33.5.48s.5.37.75.55l.89.61h.12a1.76 1.76 0 01.33.07c.13.05.14.14 0 .23s-.05.1 0 .17a.74.74 0 01.07.21zm-7.87-7h-.2v.06c0 .06.18.06.2-.03zm.88-.8c-.07 0-.14.1-.13.14s0 0 .05.05h.05zm35.08 7.65l-9.34-5.08c-.46 1.09-.85 2.05-1.26 3-.47 1.12-.9 2.27-1.45 3.36a2.68 2.68 0 00-.18 2.34 9.9 9.9 0 01.32 1.67c-.74-.29-1.24-.44-1.69-.67a2 2 0 00-2.37.22c-.71.61-1.41 1.25-2.15 1.83a12.89 12.89 0 01-1.33.83l-.6-1.37c-1.38.43-2.85.57-3.76 2.21a34.06 34.06 0 01-3.11 4.13l-.31-.19c.44-1 .86-2 1.34-3a3.08 3.08 0 00.25-2.42 10.38 10.38 0 01-.31-2.62c0-.71.37-.83.92-.54s.91.6 1.39.86a2.09 2.09 0 002.91-.53c.38-.44.66-.95 1-1.4a1.77 1.77 0 01.76-.61c2.46-.68 4.26-4.28 3.31-6.64a1.33 1.33 0 00-1.65-1 28.24 28.24 0 00-8.47 3.12 4.55 4.55 0 01-1 .3 2.9 2.9 0 010-1.06 8 8 0 013.83-4.2c1.24-.65 2.5-1.24 3.74-1.88a2.89 2.89 0 001.71-3.13 28.08 28.08 0 01.52-9.54 9.39 9.39 0 011.38-2.91c.71-1 1.35-1.06 2-.06a28.26 28.26 0 012.88 5.11c1.24 3 1.37 6.22 1.42 9.43a1.58 1.58 0 00.75 1.4c2.18 1.62 4.37 3.24 6.43 5a12.15 12.15 0 012 2.69 3.93 3.93 0 01.31 1.12zm-52.98-2.44c-.54 1-1.05 1.89-1.53 2.8a21.81 21.81 0 00-1.26 2.57c-.37 1-.56 2.06-.83 3.1-.09.38-.14.78-.26 1.15-.23.68-.67.78-1.16.27a3.07 3.07 0 01-.78-2.07v-2.42a2.86 2.86 0 00-.06-.58c-.09-.35-.24-.68.13-1 .06-.05.05-.2.06-.3.09-.79.18-1.59.29-2.38.07-.54.16-1.08.24-1.63a1.18 1.18 0 01.1-.3 13.18 13.18 0 01.73-1.39 25.34 25.34 0 011.73-2.38 1 1 0 00.23-1.27c-.11-.22-.18-.46-.27-.69l-.09.39a4.89 4.89 0 00-1-.5 2.6 2.6 0 00-1.21 0 1.81 1.81 0 01-2-.54 2.1 2.1 0 00-.87-.38c-.36-.13-.73-.22-1.09-.33-.05 0-.1-.07-.14-.07-1-.05-2-.62-3-.42-.67.13-1.35.22-2 .3a.72.72 0 01-.51-.19.51.51 0 010-.48 3.24 3.24 0 01.9-.8 5.64 5.64 0 011.72-.58 17.2 17.2 0 016.89.18 6.15 6.15 0 001.36.06c-.28-1.55-.57-3.05-.8-4.57-.45-3-.87-6-1.3-9a5.11 5.11 0 01-.06-1c0-.39.21-.57.59-.81 1.06-.67 1.78 0 2.51.48a21.05 21.05 0 014.4 4.54 68.71 68.71 0 018.5 13.93c1.26 2.81 2.32 5.71 3.4 8.59a7.12 7.12 0 001.35 2.23s.09.07.11.12c.12.24.23.49.34.74l-.72.25c.4 1.44.73 2.94 1.24 4.38.89 2.51 1.88 5 2.86 7.47a1.08 1.08 0 00.58.51 14.41 14.41 0 002.13.53 5.46 5.46 0 013.24 1.52 4 4 0 01.38.54c-.1.06-.14.1-.16.09-.78-.29-.77-.27-1.37.37-.35.37-.58 1-1.31.72a2.8 2.8 0 01-1.62 1.95 9.55 9.55 0 01-1 .51 1.68 1.68 0 00-1.22 1.94 4.63 4.63 0 01-.69-.5 4.08 4.08 0 01-.56-4.29 12 12 0 00.86-2.25c.21-.86 0-1.11-.76-1.55a51.81 51.81 0 01-9.11-6.25 30.77 30.77 0 01-6.22-7.91c-.64-.98-1.27-2.1-1.91-3.4zm11.34-31.13c-.34-.51 5 .44 5.47.39a26.41 26.41 0 014-.41c.64.14.78.42.78.42a11.44 11.44 0 012.7-1.2c.52.05.73-.84 1.05-1.23s1-1.19 1.65-1.13.94.05 1 .49a3.17 3.17 0 010 1.19 5.1 5.1 0 01-.85 1.64l-.28.19 1.19.89s.9-1.28 2.11-1a30.87 30.87 0 003.48.78 38.38 38.38 0 014.76-.53c.9.12-.09.71-.59.78s-5.22.3-5.89.25-2.17 0-2.58.39-.39.67-.39.67a6 6 0 011 3.22c-.07 1.72-2.13 4.49-3 5s-3.57 1.9-3.57 1.9-.46 4.53-.75 4.76-1.63 1.33-2 1.14 0-.59-.44-.82a2 2 0 01-.69-1.65c0-.64 0-.89-.16-1.1s.21-1 .21-1a.79.79 0 01-.76.23 1.92 1.92 0 01-.89-.48 3.79 3.79 0 01-.3 1.14c-.16.14-.89.58-.89 1s-.43 1-.71 1-.32.52-.62.64.78-4.12 1.17-4.42a1.58 1.58 0 00.5-.57s-.84-.17-.87-1.4-.11-5.27 1.52-6.85 2.58-2.61 2.58-2.61-.41-.55-2-.64-3.42.21-4.54 0-2.02-.47-2.4-1.07z" fill="#fff"/>
</svg>
