<svg id="Calque_1" data-name="Calque 1" xmlns="http://www.w3.org/2000/svg" viewBox="0 0 73.46 73.46">
    <defs>
        <style>
            .cls-2{fill:#fff}
        </style>
    </defs>
    <circle cx="36.73" cy="36.73" r="36.73" fill="#028eaa"/>
    <path class="cls-2" d="M377.59 296.81c.2-.54.52-.59 1-.33a2.67 2.67 0 011.24 1.2 21.9 21.9 0 002.97 4.32c.81 1 1.5 2.05 2.28 3.05.35.45.81.8 1.17 1.24s.59.87.9 1.29.84 1.05 1.21 1.6a4.29 4.29 0 001.87 1.52 11.92 11.92 0 011.36 1c.74.46 1.52.87 2.23 1.36a1.79 1.79 0 001.39.38.93.93 0 00.63-.36 19.06 19.06 0 001.06-2.87 20.17 20.17 0 00.35-2.81c.12-1.2.23-2.41.32-3.62a9.23 9.23 0 000-1.82 3.43 3.43 0 00-.46-1 11.14 11.14 0 00.6-1.63c.1-.48.36-.92.75-.86a1.74 1.74 0 011.19.79 5 5 0 001 1.54c.77.77 1.44 1.62 2.19 2.41.48.51 1 1 1.53 1.44 1.16 1.09 2.27 2.24 3.51 3.24a50.07 50.07 0 004.44 3.21 20.28 20.28 0 003 1.46 3 3 0 001.44.31 10.49 10.49 0 002.66-.61 5.71 5.71 0 001.48-1.26 18.86 18.86 0 004.6-6.46 24.08 24.08 0 001.08-2.57c.48-1.52.86-3.07 1.25-4.61.34-1.31.63-2.64.94-3.95s.63-2.59.91-3.9a2.82 2.82 0 000-1.12 1.62 1.62 0 01.56-1.69c.39-.34.36-.46-.11-.66-.24-.1-.37-.94-.2-1.29a1.21 1.21 0 011.53-.73 1.32 1.32 0 01.55 1.06 3.07 3.07 0 00.52 2.32.86.86 0 01.13.37c.51 2.6 1 5.2 1.52 7.81.58 3.05 1.12 6.1 1.69 9.16.24 1.29.48 2.59.75 3.87.2.95.45 1.88.66 2.83.07.31 0 .65.11 1 .12.52.28 1 .46 1.66l1.75-1.73.2.1-.36 1.27.82-.84c0 .31.06.47 0 .57-.33.57-.68 1.14-1 1.7a5.42 5.42 0 00-.82 2.62 2.27 2.27 0 01-.24.89c-.38.61-.87 1.16-1.22 1.79s-.44 1.17-.7 1.74-.58 1.15-.88 1.72a1.45 1.45 0 00-.11.26c-.14.58-.27 1.16-.39 1.69.05.27.08.52.15.76a1.53 1.53 0 00.25.53c.23.26.48.48.28 1-.23-.48-.5-.82-1-.62-.3.11-.79 0-.69.59l-.53-.09.07.83c-.09.11-.26.28-.4.46a16.37 16.37 0 00-1 1.36 6 6 0 01-1.35 1.59 14.21 14.21 0 00-1.92 2.1 13.18 13.18 0 01-7 4.81c-.79.19-1.56.45-2.35.64a13.93 13.93 0 01-1.91.35c-.47.05-.75.14-.74.69a1.16 1.16 0 01-.24.8c-.26.28-.67.64-1 .61s-.65-.45-.87-.77a1.11 1.11 0 01-.05-.77c.12-.48-.13-.64-.52-.67s-.65 0-1 0a6.65 6.65 0 01-1.53-.34 79.39 79.39 0 01-3.63-1.67 4.8 4.8 0 01-.85-.56c-1-.7-2-1.36-2.9-2.11s-1.63-1.48-2.45-2.21c-.34-.3-.75-.52-1.07-.83-1.08-1.07-2.13-2.16-3.19-3.24-.81-.83-1.61-1.67-2.35-2.45l.59 2.17-.22.09a3.52 3.52 0 01-1.09-1.95 17.75 17.75 0 00-.52-1.86 1.35 1.35 0 00-.56-.7c-1.26-.67-1.57-1.93-2-3.11-.33-.83-.7-1.64-1.1-2.43s-.79-1.43-1.21-2.12c-.8-1.31-1.62-2.61-2.4-3.92-.94-1.59-1.85-3.19-2.78-4.77-.57-1-1.18-1.91-1.73-2.89-.45-.8-.79-1.64-1.23-2.44s-1-1.49-1.39-2.27-.71-1.51-1.09-2.25a3.85 3.85 0 00-.57-.65zm54.78 12.87v.68l-.15 2.76h.27c0-1.1.06-2.21.07-3.31 0 0-.11-.09-.17-.13l.06-2.33h-.19v.82c-.08.63-.19 1.26-.26 1.89a6.12 6.12 0 000 2.76 5 5 0 00.09-.94 3.65 3.65 0 01.28-2.2zm2.39 2.1l-.08-3h-.22a6.05 6.05 0 000 2.93l.3.09.19 1.63c.8-1.67.57-2.35.07-3-.08.44-.17.9-.26 1.35zm-19.62 18.41c.22.53.72.41 1.15.54-.15-.61-.49-.75-1.15-.53l-2.38-.34a1.85 1.85 0 001.6 1c.47.14.64-.32.78-.67zM428 304.85a6.11 6.11 0 00-1 2.85 5.91 5.91 0 000 1.33h.16a7.05 7.05 0 00.18-.73c.21-1.06.42-2.12.62-3.18l.15.48a2.79 2.79 0 00.35-2.51zm4.82 10.92c0 .34-.06.68-.05 1s.07.61.1.92a3.68 3.68 0 00.29-2.88l-.34.95c.06-.55.18-1.09.19-1.64 0-.78 0-1.56-.07-2.34h-.16a7.81 7.81 0 00-.15 3.9s.17.07.23.09zm-32.6 6.36a8.34 8.34 0 00.67 1c.13.16.4.2.61.29a2.12 2.12 0 000-.67c-.2-.47-.46-.91-.7-1.36a5.11 5.11 0 00-.29-.48c-.5.6-.5.6-.25 1.26l-.86-.63c0 .75.48.91 1 1.17zm25.78-8.05a7.8 7.8 0 00.42-1c.16-.64.29-1.3.39-2 0-.11-.19-.24-.3-.37a4.61 4.61 0 00.22-2.88l-.53.75c.17-.42.36-.84.51-1.27.25-.75.48-1.51.72-2.27l-.22-.08c-.42.91-.87 1.81-1.24 2.73a3.47 3.47 0 00-.1 1.12s.12.07.19.1a4.16 4.16 0 00-.09 2.52l.55-.72c-.16.34-.31.68-.46 1a3.15 3.15 0 00-.06 2.34c-.06.24-.12.48-.2.71-.22.68-.46 1.35-.69 2l.15.05c1-.9 1.82-3.23 1.49-3.65zm-13.17 18.55h-.22l-1-.17a7.05 7.05 0 00.32 1.11 1.34 1.34 0 001.45.34c.21-.1.3-.44.45-.66l-1-.59c.3.07.59.17.88.21a.41.41 0 00.34-.11c0-.08 0-.26-.1-.35a1.59 1.59 0 00-1.92-.33zm-11.87-16l-.71-1.21h-.18a4.43 4.43 0 00-.07 1.35 7.38 7.38 0 00.74 1.65c.08.15.3.22.46.33.06-.19.19-.38.16-.55-.1-.54-.27-1.06-.41-1.59l.45.52a4.88 4.88 0 00-.86-3.33 14.75 14.75 0 00.14 1.89 5.22 5.22 0 00.32.95zm.76-.86c.35.47.7.94 1.07 1.39a5 5 0 00.51.43 5.3 5.3 0 00-1.49-3.51c0 .58-.06 1.14-.09 1.69a1.86 1.86 0 00-.12.43 6.48 6.48 0 001.05 3 .43.43 0 00.37.13.53.53 0 00.18-.41 3.78 3.78 0 00-.73-1.92 6.72 6.72 0 01-.76-1.22zm.16 4.41l-.6-.74a3 3 0 00.27 3 .58.58 0 00.38.19c.08 0 .22-.16.24-.26.09-.6.41-1.21-.11-1.78a1.28 1.28 0 01-.18-.41l.91.95c.16-1.4-.61-2.36-1.17-3.42a4.56 4.56 0 00.25 2.48zm3.81 5.2c.64.21.83.12.72-.51a6 6 0 00-.58-1.63 9.93 9.93 0 00-.93-1.23l-.19.11c.1.76-.07 1.56.45 2.27a8 8 0 01.54 1l-1.15-1.54c-.37 1.13-.2 1.47.81 1.68.09.03.21-.09.32-.14zm.61-13.65a9.38 9.38 0 00.85.82 2.63 2.63 0 00.69.28 2.68 2.68 0 00.07-.62c0-.3-.3-.6-.25-.86.14-.7-.34-1-.75-1.31s-.61-.44-.92-.66l-.12.13.43 2.22a1.58 1.58 0 00-.44-.24.45.45 0 00-.31.15 10.12 10.12 0 00.47 1.76c.14.33.5.56.75.84l.68.69c.08-.23.17-.35.16-.47a2.84 2.84 0 00-.6-1.79 10.53 10.53 0 01-.72-.93zm3 4.66l-.83-.55c-.27-.19-.54-.36-.83-.54 0 .77 0 1.4.06 2a.41.41 0 00.12.18c.37.34.71.69 1.1 1a2.05 2.05 0 00.66.22c.05-.23.19-.47.15-.68-.1-.55-.28-1.1-.43-1.65l.66-.13c-.47-.89-.56-1.88-1.42-2.45a2.32 2.32 0 01-.42-.46c.36.28.73.55 1.08.83s.78.16.78-.16a5.32 5.32 0 00-.39-1.93c-.13-.32-.58-.54-.91-.74a4.54 4.54 0 00-.91-.28c.28.86.64 1.54.36 2.29h-.43a7 7 0 01.07 1.08.9.9 0 00.42.94 10.86 10.86 0 011.11 1.04zm12.18 7.42c1.29-.46 2.42-2.42 1.88-3.36a12.34 12.34 0 00-1.18 1 2.07 2.07 0 00-.44.86 15.66 15.66 0 00-.26 1.55v-1.7c-2.21.18-2.48 1.21-2.13 3.09a1.81 1.81 0 001.8-.93c.1-.19.22-.32.33-.5zm-12.12 0a3.22 3.22 0 00-.55-.29.59.59 0 00-.36.11 6.39 6.39 0 00.43 1.94 3.67 3.67 0 001.31 1.06c.14.1.43 0 .63 0s.1-.27.07-.4c-.18-.79-.3-1.62-1.17-2-.11-.05-.17-.2-.25-.31.22.15.45.28.65.44.65.51.88.44 1.11-.35a1.24 1.24 0 01.1-.2 1 1 0 00.72 1.27c-1.22-.15-1.24-.13-1 1.1a1.18 1.18 0 00.1.38c.06.1.16.23.27.25a11 11 0 001.28.2c.32 0 .53-.07.57-.46s0-.71-.44-.9a4.6 4.6 0 01-.83-.58c.41.19.81.41 1.23.57s.7 0 .65-.54-.1-.79-.16-1.18a.49.49 0 00-.16-.29c-.42-.32-.85-.64-1.29-.94s-.72-.15-.82.34c-.06.26-.11.52-.16.78.18-1.19-.64-1.76-1.48-2.28-.26-.16-.75-.25-.75.12.05.74-.43 1.56.3 2.21zm3.6-6.07h-.29c-.72-.13-.87 0-.74.72.07.43.13.87.22 1.29a.49.49 0 00.18.32 15.93 15.93 0 001.4.77c.47.21.86-.07.75-.55-.21-.9-.05-2-1.32-2.33-.08 0-.14-.13-.21-.19a5.14 5.14 0 00.9.33 3.5 3.5 0 001 0c.07 0 .19-.31.14-.38-.39-.67-.71-1.44-1.65-1.55-.21 0-.41-.2-.63-.25a4.42 4.42 0 00-.74-.07c.11.53.18 1 .28 1.38 0 .1.17.19.26.26s.29.2.49.3zm4.11 1.85c-.2-.39.05-.94-.57-1.05a4.14 4.14 0 00-1.27-.22c-.3.05-.8.45-.78.65a4.12 4.12 0 00.55 1.88c.2.31.85.34 1.31.44a.66.66 0 00.84-.68 6.4 6.4 0 00-.08-.97zm2.7.45l1.4-.62c1.31-.54 1.3-1.25.64-2.69l-1.2.74c-1.53.94-1.16 1.05-.84 2.62zm.18-2.41a15.75 15.75 0 001.84-1.19 1.34 1.34 0 00.49-1.86c-.13-.29-.27-.38-.56-.23-.49.26-1 .51-1.49.74a.67.67 0 00-.44.77c.07.61.1 1.14.21 1.82zm-7-1.86c.32.13.79.34 1.28.51a.68.68 0 00.94-.67c.05-1.36.05-1.36-1.27-1.78a3.37 3.37 0 00-.59-.19c-.21 0-.51-.06-.63.06s0 .41 0 .62c.09.48.19.91.32 1.5zm-1.43 5.7a4.65 4.65 0 002.17 1.88c.13 0 .36-.15.37-.24a6 6 0 000-1.75c-.07-.27-.58-.42-.89-.63a1 1 0 00-.2-.11c-.38-.07-.83-.28-1.1-.14s-.23.69-.32 1.04zm-1.38-9.13l-.26.19a5.69 5.69 0 00.41 1.85 2.17 2.17 0 002 1.07.54.54 0 00.35-.41 11.87 11.87 0 00-.24-1.55.26.26 0 00-.15-.16zm8.86 11.13c-.55 0-1-.05-1.49 0s-.88.17-.93.73c-.14 1.52.05 1.7 1.56 1.51a.94.94 0 00.48-.15c.17-.16.39-.37.41-.57.04-.5-.03-.99-.03-1.52zm-2.24-1.25a.69.69 0 00-.63-.7 2.74 2.74 0 01-.59-.2c-1.12-.37-1.24-.28-1.14.89 0 .38-.06.89.15 1.13s.72.26 1.11.37a.75.75 0 001.07-.7 7 7 0 00.03-.79zm.64-4.92c.19 1 .19 1 1.16.92h.12a.93.93 0 001-1.16c0-.36-.09-.71-.11-1.07s-.22-.54-.56-.42a8.62 8.62 0 00-1 .47c-.77.38-.78.43-.61 1.26zm2 1.9l.08-.1c-.2-.22-.36-.57-.6-.63a3.36 3.36 0 00-1.18 0 .55.55 0 00-.5.74 3.47 3.47 0 01.06.45c.09 1.24.09 1.19 1.34 1.11.64 0 .82-.36.86-.88a4.49 4.49 0 00-.06-.69zm-2.4 4c.41 0 .77 0 1.12.07.57.1 1.07-.08 1.19-.61a4.74 4.74 0 00-.14-1.48.25.25 0 00-.18-.13 10.06 10.06 0 00-1.56.17.79.79 0 00-.49.56 8.53 8.53 0 00.06 1.44zm-5.15-4.61c-.08-.24-.09-.63-.3-.83a9.87 9.87 0 00-1.41-1 .38.38 0 00-.36 0 .51.51 0 00-.08.4c.08.37.34.78.26 1.09-.2.77.32 1 .74 1.4a1.71 1.71 0 00.39.33c.18.08.42.18.56.11a.7.7 0 00.3-.48 6.26 6.26 0 00-.1-1zm3.73-4.32c-.07.14-.22.29-.23.46a3.84 3.84 0 000 1.07.7.7 0 00.37.45 2.06 2.06 0 002.21-.62.63.63 0 00.13-.54c-.1-.25-.29-.61-.49-.66a16.39 16.39 0 00-1.99-.14zm-8.25 3.49v1.77a.38.38 0 00.11.24c.41.4.81.81 1.24 1.18s.7.12.8-.32a2.91 2.91 0 00-1.79-2.85 2 2 0 00-.36 0zm9.06 6.7c-.09-.11-.2-.37-.39-.44a5.47 5.47 0 00-1.32-.35c-.18 0-.56.14-.56.22a14.65 14.65 0 00.09 1.75s.11.11.17.13a7.79 7.79 0 001.05.29c.62.1 1-.22 1-.85-.02-.21-.03-.4-.04-.73zm5.34-5.06c-.43.22-.79.42-1.17.59-1.11.47-1.36 1.19-.77 2.28 2.02-.46 2.21-.75 1.94-2.85zm-16.41-5.89a11.17 11.17 0 00.45 2.13 6.67 6.67 0 001.11 1.51.51.51 0 00.43.14.48.48 0 00.24-.39 4.48 4.48 0 00-.3-1.48 11.4 11.4 0 00-1.26-1.77c-.08-.08-.31-.05-.67-.12zm2.83 10.36l.16-.09c-.31-.5-.61-1-1-1.5-.09-.13-.38-.26-.5-.2a.69.69 0 00-.35.5c0 1.1.08 2.15 1.31 2.62.16.06.4.12.51 0a.6.6 0 00.12-.5 6.83 6.83 0 00-.25-.81zm-7.66-14.58c.37-1.06-.24-1.92-.53-2.83l.47.75.2-.1a5.75 5.75 0 00-1.14-3.25 9.62 9.62 0 00.07 1.09 9.26 9.26 0 00.37 1l-.4-.42a3.66 3.66 0 00.96 3.78zm21.88 2.45c-.66.51-1.23 1-1.81 1.39-.82.61-.87.8-.39 1.82.6-.32 1.2-.62 1.8-1a.58.58 0 00.25-.35c.07-.53.1-1.13.15-1.84zm.21 6.57c1.71-.73 1.46-2.09 1.16-3.33-1.28.63-1.9 1.61-1.16 3.35zm-17.5-.32v.55a3.84 3.84 0 001 2.81 3 3 0 00.52.4 2.34 2.34 0 00.28-.63c.16-1.13-.59-1.89-1.2-2.7a2.9 2.9 0 00-.6-.42zm2.05 1.81a3.06 3.06 0 00.79 3c.14.17.46.39.56.33a.91.91 0 00.41-.6c0-.61.08-1.23-.6-1.64a7.53 7.53 0 01-1.16-1.07zm-3.08 4.88a2.94 2.94 0 00-1.42-3.14c-.74 1.39-.19 2.64 1.42 3.16zm-.51-10.79a5.8 5.8 0 001.19 3.59 1.34 1.34 0 00.43.22 1.69 1.69 0 00.2-.49 5.63 5.63 0 00-.1-.91 4.7 4.7 0 00-1.51-2.39s-.11.01-.21 0zm13.78 3.55c-.21-.27-.36-.65-.63-.77a3.69 3.69 0 00-1.33-.24c-.55 0-.76.4-.47.85a2.08 2.08 0 001.44 1.06c.78.17 1.06-.04.99-.88zm-7.63 3.65c.4.34.83.71 1.27 1.06.22.18.51.34.58-.1a2.78 2.78 0 00-1.88-2.84zm2.4-4.33a3.16 3.16 0 00-2-2.06c-.27-.14-.58 0-.45.38a3.22 3.22 0 001.64 2.21c.16.07.45.14.55.06s.17-.35.26-.57zm-6.56-.81a3.86 3.86 0 001.12 3.53.54.54 0 00.49-.2 3.63 3.63 0 00-1.61-3.28zm18.7.67c1.1-.88 1.86-2.89 1.24-3.93-1.36 1.64-1.67 2.63-1.24 3.95zm-17.76-7.36a3.17 3.17 0 00.2.27c.38.35.75.72 1.15 1 .72.56 1.2.42 1.6-.45-.54-.45-1.09-.93-1.65-1.38a.46.46 0 00-.36-.05c-.32.22-.61.43-.94.63zm15.59 11.85c1.52-.75 1.92-1.56 1.58-3.13-1.7 1.02-1.75 1.19-1.58 3.15zm-18.44-8.85h.08c-.38-.78-.75-1.56-1.16-2.32-.07-.12-.31-.15-.46-.23-.06.16-.18.34-.15.49.07.39.28.76.31 1.15.05.78.61 1.28.92 1.92a.4.4 0 00.37.14.47.47 0 00.18-.37 6.23 6.23 0 00-.09-.76zm-.87-6.45a11 11 0 001.11 1.29 1 1 0 00.85.17 3.14 3.14 0 00.84-.52l.16-.3-2.42-1.29zm1.22 3.81c0 .55 0 1.05.08 1.55a1.47 1.47 0 00.12.52 9.86 9.86 0 00.7 1.11 2.41 2.41 0 00.51.35 3.06 3.06 0 00.12-.66c0-.31-.18-.63-.18-.94a2.58 2.58 0 00-1.32-1.91zm7.68 21.91a2.39 2.39 0 00-1.68-2.16.52.52 0 00-.52.65 2.06 2.06 0 002.2 1.53zm10.88-18.2a3.88 3.88 0 001.75-3.62c-1.37 1.29-2.01 2.55-1.75 3.64zm-21.94-7.84a3.21 3.21 0 00.07.61 12 12 0 001 2.74 3 3 0 00.41.39 1.52 1.52 0 00.28-.51c.14-1.33-.76-2.2-1.43-3.17-.07-.01-.15 0-.33-.04zM423 322.9c-.82.84-1.89 1.42-2.25 2.71 1.87-.2 2.68-1.19 2.25-2.71zm-23.9-13.62a5.1 5.1 0 00-.3-2.78.5.5 0 01.18.21c0 .07.09.13.16.25a4.23 4.23 0 00-.63-3l-.08.6-.2-.17-.13.06.56 1.47c-.53.25-.22.78-.5 1.1v-.25a2.24 2.24 0 00-.12-.27v.76c1.04.28.7 1.32 1.08 2.02zm4.84-1.66c0 1.41 1.24 3.41 2 3.37a4.39 4.39 0 01-.22-1.31 1.09 1.09 0 00-.48-1.05c-.23-.22-.44-.47-.69-.68a4.36 4.36 0 00-.55-.33zm16.35 21.45l.17.05c.48-.39 1-.76 1.44-1.18a.9.9 0 00.29-.6 1 1 0 00-.29-.72c-.23-.19-1.23.19-1.3.48-.12.65-.19 1.31-.29 1.97zm-15.69-21.33c.29.28.57.53.82.8.65.67 1.28.63 1.93-.22-.36-.25-.73-.47-1.06-.73-.76-.59-.86-.59-1.69.15zm19.34 4.57l-1.24 1.37a1.08 1.08 0 00-.17 1.12c.1.37.29.43.62.24.98-.55 1.27-1.44.79-2.73zM399 318.38a2 2 0 00.25 2.78.81.81 0 00.68 0 .68.68 0 00.24-.62c-.3-.73-.72-1.42-1.17-2.16zm20.66 11.75c-.69.23-1.32.43-1.94.67a.74.74 0 00-.26 1.1 1.5 1.5 0 001.93-.47c.17-.43.22-.87.31-1.3zM401 319.33c-.29-.65-.52-1.2-.79-1.75a1.86 1.86 0 00-.35-.4c-.13.15-.31.28-.36.45a3.46 3.46 0 001 2.67.46.46 0 00.38-.13 6.45 6.45 0 00.12-.84zm2.3-1.31a3.29 3.29 0 01.1 1.17 1.12 1.12 0 00.23 1 10.17 10.17 0 00.66 1 2.42 2.42 0 00.59.35 2.47 2.47 0 00.09-.64 8.16 8.16 0 00-1.44-2.81s-.13-.01-.27-.09zm11.05 16.09c-.5.05-.44.46-.49.78s0 .48.11.51a7.66 7.66 0 001.48.38.52.52 0 00.52-.73 1.78 1.78 0 00-1.66-.94zm10.13-20.55a2.86 2.86 0 001-3.42c-1.26 1.62-1.43 2.16-1.04 3.42zm-26.21 1.31c-.23.59-.63 1.1-.51 1.43a6.83 6.83 0 001.12 1.66s.31 0 .32-.07c.11-.32.32-.72.22-1a19.45 19.45 0 00-1.19-2.02zm10.61-3.73v.23a9.87 9.87 0 001.58.82c.23.08.6-.21.87-.39.08-.05.1-.4 0-.44a5.34 5.34 0 00-1.53-.8c-.25-.06-.63.37-.96.58zm-6.37-3.43c0 .56-.05 1.05-.06 1.53a.62.62 0 00.09.32 14.52 14.52 0 00.76 1.26c.1.15.31.22.47.33.07-.17.22-.36.2-.53a4.52 4.52 0 00-1.5-2.91zm1.32 4a5.59 5.59 0 00.12 1.75 9.71 9.71 0 001.23 1.82.29.29 0 00.25 0 .58.58 0 00.11-.35 6.91 6.91 0 00-1.75-3.19zm-9.72 3.44l-.13.2c.46.54.91 1.09 1.39 1.6a.7.7 0 00.52.13c.15-.22.34-.53.28-.73a8.72 8.72 0 00-.62-1.35zM416 328.44a4.06 4.06 0 00-.59.58c-.06.09 0 .34.11.45a1.7 1.7 0 002 .25c.27-.19.36-.86.1-.94-.56-.15-1.09-.22-1.62-.34zm-3.23 1a.85.85 0 00.34.24c.52.09 1.05.15 1.58.19.13 0 .36 0 .39-.12s0-.39-.08-.45a6.72 6.72 0 00-1.41-.78c-.77-.26-1.04.03-.87.9zm-15-18l-.14.05a8.35 8.35 0 01-.27 1.32 1.67 1.67 0 00.41 1.66c.06.09.43.1.43.07a3.31 3.31 0 00.25-1.1 3.14 3.14 0 00-.3-1c-.15-.37-.28-.69-.41-1.02zm1.32 2a1 1 0 00-.54 1.17 3.14 3.14 0 001.09 2.07c.36-.88.25-1.24-.58-3.23zm3.1-1.32a6.06 6.06 0 00.63 3.12 1.83 1.83 0 00.43.35c.11-.2.31-.41.3-.6a6.92 6.92 0 00-1.39-2.86zm-5.42 4.88l1.36 2.22.2-.05c.11-.33.39-.75.28-1a16.3 16.3 0 00-1.23-1.92zm8 2.69c.43-.92-.57-3.44-1.38-3.59a6 6 0 001.37 3.59zm-2.9-6.08c.36-.79-.48-3.29-1.2-3.66-.09 1.49.43 3.12 1.19 3.66zm-4 5.56c-.43-.7-.8-1.33-1.22-1.94-.06-.1-.38-.15-.41-.1s-.31.47-.24.61a16.14 16.14 0 001.06 1.74c.1.15.32.2.49.3zm28.18-.71a5.66 5.66 0 00-1.15 3.66 4 4 0 001.1-3.66zm-5.45 13.65l-.14-.22c-.43.16-1.07.19-1.25.5a6.18 6.18 0 00-.47 1.81l.2.07a4.33 4.33 0 001.64-2.16zm-16.45-22.84a15.59 15.59 0 00-.5-1.91 3.54 3.54 0 00-1.41-1.61 5.44 5.44 0 001.89 3.52zm.32 14.06c.38-1.51-.74-2.37-1.34-3.44a3.9 3.9 0 001.32 3.44zm-4.87-13.69c-.69 1.07-.11 3.2.83 3.52.28-1.3-.79-2.16-.85-3.52zm23.85 14.11c1.12-.76 1.24-1.86 1.3-3.07a3 3 0 00-1.32 3.07zm7.06-7.19h.18l.25-.62a5.6 5.6 0 000 2.79c.28-.66.33-5.16 0-5.66zM401 303.69c.43.57.82 1.14 1.28 1.65a.61.61 0 00.6 0 .73.73 0 000-.66c-.17-.28-.54-.45-.69-.73-.26-.56-.58-.69-1.19-.26zM416.75 332c-.28-1-.45-1.15-1.15-1.23a.82.82 0 00-.84.73c-.05.52.29.55.65.55zm-17.69-20.17c-.21 1.11.46 2 .7 3 0 .09.28.17.42.16s.18-.22.18-.35c.02-1.16-.76-1.93-1.3-2.82zm22 19.67c1 .05 1.95-1.5 1.76-2.71-.72.83-1.62 1.48-1.82 2.7zm-16.25-1.84a2.81 2.81 0 001.11 1.61 3.28 3.28 0 00.75.24 3.48 3.48 0 000-1 .91.91 0 00-.51-.49 11.43 11.43 0 00-1.37-.37zm-6.34-21.87a2.77 2.77 0 00.55 3.29c.35-1.23-.4-2.22-.57-3.3zm21.86 19.58l-1.19.52a.84.84 0 00-.25.13.58.58 0 00-.18.32c0 .34.53.93.88.92.17 0 .46-.16.5-.3a15 15 0 00.22-1.6zm5.88-11.13a2.87 2.87 0 00-1 3.21 4.8 4.8 0 00.98-3.22zm-9.66 18.11h1.32a.57.57 0 00.3-.18c-.16-.44-.35-.87-.55-1.29 0-.06-.19-.05-.29-.07a1.62 1.62 0 00-.8 1.53zm-7.24-3c0 1 1.23 2.38 2 2.11-.85-.54-.59-2-2.02-2.08zm4.25-18.46c-.47-.3-.87-.58-1.29-.83-.6-.37-.78-.31-1.2.33a2 2 0 002.47.53zM402 311.5a7.55 7.55 0 00-1.3-3.87 6.41 6.41 0 001.3 3.87zm-2.72-9.87a7.86 7.86 0 001.25 3.59c.3-.78-.44-2.79-1.26-3.59zm16.55 26.65a16.13 16.13 0 001.63.17c.2 0 .44-.23.59-.41s-.06-.36-.18-.48c-.47-.45-1.87-.01-2.05.72zm-17.29-15a3.3 3.3 0 00-.75-3.5 6.33 6.33 0 000 1.39 10.26 10.26 0 00.5 1.37c.08.21.14.46.24.75zm21.05.45a11.26 11.26 0 00-1.12.49.55.55 0 00-.26.38.7.7 0 00.81.72c.65-.08.85-.31.75-.87-.05-.21-.12-.45-.19-.71zm-11.2 13.75l-.14.19c.38.34.74.71 1.14 1 .17.13.58.24.62.18a1.15 1.15 0 00.24-.76.78.78 0 00-.51-.49 10 10 0 00-1.36-.11zm-1.19 1.63c.1.48 0 1 .29 1.27s.79.82 1.43.56a2.12 2.12 0 00-1.73-1.82zm-.93-5.61a3.52 3.52 0 00-1.15-3.1v1.37a.46.46 0 000 .21zm-7.79-22l-.19 1.4c.15.31.34.64.49 1s.28.76.42 1.13a4.51 4.51 0 00-.73-3.51zM397 313.57a3.46 3.46 0 00-.63.72c-.12.28.79 1.4 1.27 1.56.06-.33.24-.68.15-1a8 8 0 00-.79-1.28zm32.77 8c.9-.34 1.19-2.09.55-3.43zm-16.44 15c-.08-.11-.11-.21-.18-.25-.52-.27-1-.53-1.58-.77-.1 0-.26.07-.4.11.05.12.06.27.15.34.44.36.89.71 1.36 1a.46.46 0 00.41 0 1.32 1.32 0 00.25-.43zm-12.64-33c-.13.92.95 3.17 1.69 3.49a4 4 0 01-.47-1.26c-.02-.95-.72-1.47-1.21-2.22zm23.73 7.58a3.35 3.35 0 001.16-3.15 4.93 4.93 0 00-1.15 3.16zm4-.5a6.53 6.53 0 00-.8 4.12 10.21 10.21 0 00.78-4.11zm-1.59 8.3a6.09 6.09 0 00-.76 3.16 3.3 3.3 0 00.74-3.11zm7.85-5.82a6.06 6.06 0 00-.14 3.76c.25-1.22.66-2.46.12-3.75zm-7.54.27l-.89 3.78h.16c.76-1.02 1.22-2.76.71-3.77zm.53-4.16h.25l.94-4.15h-.18a9.37 9.37 0 00-1.03 4.16zM407 330c.27-1.26-.19-1.9-1.38-1.87A2.51 2.51 0 00407 330zm25.26-15a5.94 5.94 0 00-.21 3.69 5.73 5.73 0 00.23-3.76zm-16.44 11.73v-.28c-.59-.14-1.17-.29-1.76-.39a.54.54 0 00-.46.23 1.06 1.06 0 000 .66c0 .07.33.08.51.08a2.21 2.21 0 00.51 0zm-2 9.55l-.07.15a6.15 6.15 0 00.67.68 7.84 7.84 0 00.93.55l.4-1.23zm10-15.17c1.13-.39 1.27-1.44.84-2.54-.43.77-1.1 1.43-.88 2.43zm-14.5 12.29l-.19.13a12.8 12.8 0 001 1.38c.12.13.49 0 .75 0-.1-.37-.08-.86-.31-1.07a3.75 3.75 0 00-1.25-.44zm23.35-32.13l-.29.26v-2.69h-.22v3.35l.36-.27.09 3h.19zm3 11.33a2.73 2.73 0 000 2.89 2.92 2.92 0 000-2.89zm-9.26 17.2l.21.09a5.3 5.3 0 00.48-.87 7.17 7.17 0 00.25-1.29c0-.09-.11-.26-.17-.26a.4.4 0 00-.31.16 2.9 2.9 0 00-.46 2.17zm-4.73-.83c-1.57.43-1.8.8-1.13 1.83a2.36 2.36 0 001.13-1.8zm6.62-11.6h.2c.54-.67.12-1.56.4-2.24a7.3 7.3 0 00.39-2.33 2.88 2.88 0 00-.19.82c0 .26 0 .67-.11.76-.58.37-.42 1-.6 1.5a5.09 5.09 0 00-.09 1.49zm-28.64-15.73c.87 1.49 1.11 2 1.92 1.38l-1.22-1.48zm17.42 30.63h-2a.34.34 0 00-.26.22.44.44 0 00.13.34 1.47 1.47 0 002.13-.56zm7.9-15.9a2.2 2.2 0 00-1 2.59 3.36 3.36 0 001.02-2.59zm2.27 3.41a4.92 4.92 0 00.76-3.32 4.82 4.82 0 00-.76 3.32zm-2.62 4.42c.63-.78 1.29-1.49 1.09-2.63-.72.75-1.46 1.43-1.09 2.63zm-6.29 10.28c-.66 0-1.22.08-1.77.16-.1 0-.22.26-.22.4a.56.56 0 00.22.41 1.71 1.71 0 001.77-.97zm-14.66-3.07c.9.59 1.38 1.73 2.63 2-1.24-1.65-1.83-2.07-2.63-2zm12.72 2l-1.75-.41c0 .78.68 1 1.2 1.31.08 0 .35-.11.42-.23a2.27 2.27 0 00.13-.7zm-17-25a7.23 7.23 0 001 3 3.75 3.75 0 00-.98-3.05zm27.9 7.59c-.23 1-1.25 1.7-.84 3a4.29 4.29 0 00.84-3zm-26.22 12.52c0-.39.14-.83 0-.92-.42-.3-.61-1-1.38-.84a2.35 2.35 0 001.38 1.76zm.44-13.37a3.79 3.79 0 00-.8-2.95 4 4 0 00.8 2.95zm24.81 15.37c-.05.15-.15.45-.23.75s-.13.59-.19.88l.18.06c.71-.63.83-1.56 1.25-2.33l-.18-.13zM406.65 335a8.69 8.69 0 00-2.45-1.64c.67.64 1.03 1.75 2.45 1.64zm29.46-18.68c.93-1 1-1.64.24-2.2a2.71 2.71 0 00-.24 2.15zm-7.74 7.6l-.62 2.63c.82-.34 1.14-1.75.62-2.68zm-16.7 5.46c-.15-.73-.78-1.55-1.22-1.6l-.08 1.35zm21.82-17.55a6.62 6.62 0 00.11 3.16 4.47 4.47 0 00-.11-3.21zm-34.53 10l.17-.12c0-.05.05-.11 0-.15-.27-.54-.52-1.09-.82-1.6-.07-.12-.3-.13-.46-.19-.05.21-.21.49-.13.61.4.44.83.9 1.28 1.38zm29-10.9a4.09 4.09 0 00.65-3 5.85 5.85 0 00-.7 2.93zm6.83 6.74c1.18-1 1.25-1.65.31-2.18zm-.92-5.11h.32l-.29-3.76a.62.62 0 00-.24.48c.01 1 .09 2.11.16 3.21zm-21.53 23c-.12-1.14-.45-1.46-1.18-1.2-.06.79.07.92 1.13 1.13zm12.79-10.07a1.72 1.72 0 00-1.49 2zm4.51.86c-.32.88-1.22 1.53-1 2.61a4.16 4.16 0 00.95-2.68zM413 330.63c.26.53.33 1.15 1 1.23a.67.67 0 00.54-.2c.13-.29 0-.54-.34-.64s-.79-.24-1.2-.39zm19.34-3.88c.81-.2 1.2-1.33.94-2.61zm-32.44-25.41c0-.13.09-.24.06-.31-.25-.49-.5-1-.79-1.46a.4.4 0 00-.39-.05.38.38 0 00-.13.36c.25.59.47 1.22 1.25 1.46zm29.55-1.34h-.28l-.48 3.81h.28zm-16.31 31.76c-.2-.43-.33-.78-.51-1.11a.48.48 0 00-.34-.22.52.52 0 00-.35.23.75.75 0 00.59 1.05zm-3.06 3.78c-.61-.68-1.51-.7-2.27-1 .66.46 1.19 1.36 2.27.96zm6.12-21.66c-.74-.22-1.47-.46-2.21-.65-.17 0-.39.1-.59.15 1.41.67 2.21.78 2.8.46zm2.33 12.12a2.59 2.59 0 00-2.38.53 2.88 2.88 0 002.38-.53zm5.17 8.93l.17.13 1.63-2.11a2.45 2.45 0 00-1.8 1.93zm-17.48-2.95l-.11.09c.2.42.38.85.61 1.26s.67.45 1.17.17zm26.5-21.51h.22c0-1.18.32-2.37 0-3.55h-.22zm.76 6.16l-.36 2.48c.98-.63.88-.94.36-2.53zm-21.4 17.55c.16.19.23.29.32.38a6.55 6.55 0 00.56.49c.39.28.6.18.67-.32a3.08 3.08 0 000-.52zm-4.32-8c.23-.91-.57-1-1.08-1.41-.09.98.15 1.23 1.08 1.38zm4.57 3.18l.21-.07a4.45 4.45 0 00-.34-1.16c-.1-.17-.49-.17-.74-.24a1.71 1.71 0 00.87 1.44zm6.07 4.56h.18l.22-1.59-1.12-.1zm-23.25-14.12c1.09 1.52 1.47 1.84 2 1.74a4.85 4.85 0 00-2-1.74zm40.7 1a2.09 2.09 0 00-.77 2.22 4.07 4.07 0 00.77-2.19zm-3.67 3.69l-.2-.08c-.88.42-.74.8-.56 2.18zm2-3h.25l.48-2.61-.31-.05c-.6.82-.08 1.81-.42 2.65zM430 324.7l.55-2.37a1.71 1.71 0 00-.55 2.37zm-.24 3.8l-.9 2.33a1.8 1.8 0 00.9-2.33zm-10.94-2.3c.58-.14 1.07-.25 1.55-.39.1 0 .18-.23.2-.36s-.18-.2-.27-.19c-.58.06-1.2.08-1.48.94zm-2.65 10.11l-.23.07a7.74 7.74 0 00-.13.95c0 .08.29.25.31.23.26-.24.49-.51.73-.77zm5.09-4.07c-.54.66-1.25 1.07-1.36 1.95.99-.59 1.57-1.35 1.36-1.95zm1.85-7.55l.17.13c.94-.11 1.28-.6.87-1.52zm-1.9 11.09c.8.05 1.32-.2 1.48-.76.06-.17-.06-.39-.11-.67zm-14.07-5.11c-.37 1.18-.17 1.49 1.06 1.62zm-6.9-5c.47.48.65 1.38 1.67 1.23-.24-.9-1.09-.9-1.67-1.22zm-2.94 1a2.65 2.65 0 001.73 2.14zm39-8.82l-.43 2c.95-.85 1.13-1.42.45-2zM422 333.59l.13.22a2.35 2.35 0 00.67-.34 1.56 1.56 0 00.48-1.4zm-3.39 4l.12.16c.7 0 1.63-.74 1.61-1.41zm-25.2-16.83l.27-.2-1.85-2.43-.18.14zm40.58-12h.23c.34-1.05-.25-2-.46-3zm-27.64 18.37c.26.84.75 1.24 1.48 1.13-.48-.26-.52-1.26-1.45-1.09zm13.85-.09c-1.05-.32-1.75 0-1.7.83zm11-11.46h.18a4 4 0 000-2.87zm2.28 6.56h.24l.21-2.61h-.19c.07.92-.62 1.71-.19 2.65zm-26.42 9.91l-.16.22c.51.5.94 1.13 1.75 1.17l.14-.19zm10.56-1.49l1.84-.69a1.24 1.24 0 00-1.77.73zm9.23 1.11l.19.08c1-1.47 1.1-1.7.78-2.32zm-8.56-3.3c-.48.3-.55.53-.37 1.22l1-.25zm13.12-29.66h-.19v3.7h.24zm.12 19.66l-.31 2.27c.78-.42.86-.99.38-2.23zm-2.9 3.6l.28.11a6.19 6.19 0 00.73-2.31l-.19-.07zm-1.19-5.41a1.84 1.84 0 00.41-2.28zm4.62 3.28h.15a1.84 1.84 0 00.3-2.24zm-4.51-9.28h-.17l-.54 2.41h.23a4.7 4.7 0 00.55-2.37zm8.07 9.12l.42-2.3h-.16c-.38.68-.58 1.98-.19 2.34zm-9.19 2.72a3.81 3.81 0 001.13-2.86zm2.68-15.87h.19l.56-4h-.18zm-31.44 16l-.15.13c.3 1.08.5 1.27 1.41 1.21zm35 .15h.17l.09-2-.23-.06c-.11.18-.33.36-.32.53.13.51.27 1.03.37 1.55zm-9.28 10.45l.15.12c.8-.11 1.08-.46.81-1.45zm-14.3 1.53c-1-1.13-1.09-1.14-1.94-.72zm17.33-1l.17.11 1.18-1.85c-.92.31-1.09 1.02-1.27 1.73zm5.58-12.2c-.7.27-.83 1-.35 1.9zm-36.44 1.28l-.17.11a6.21 6.21 0 001.6 2l.17-.13zm4.13 3.35l.19-.17-1.88-1.71c.2.99 1.1 1.28 1.68 1.88zm-6.47-7.94c.35 1.32 1.52 1.72 2.17 2.6l.12-.11zm6.65 6.73l-.09.17 1.48.8c-.54-1.1-.62-1.15-1.4-.97zm15.81 3.18l-.12-.17-1.19-.18-.08.12.78.82zm-3.39 1.94c-.42-.61-1-.41-1.63-.56.72.88.84.92 1.63.56zm7.41-16.88l.16.17 1.86-1.36-.1-.13a4.45 4.45 0 00-1.92 1.29zm10.77 3.05h-.26c0 .74-.55 1.44-.19 2.22h.19zm-5.23 15.68l.18.08.65-1.43c-.94.2-1.02.36-.83 1.32zm2.52-9.11l.22.06c.1-.79.65-1.49.43-2.33h-.19zm7.61-12l.16-.05-.58-3h-.17zm-3.82-.72h-.29l-.14 2.61h.21zm.87 17.64c-.28-.07-.56-.17-.58-.13a6.22 6.22 0 00-.39 1 1.14 1.14 0 00.35.17c.2-.38.38-.7.62-1.1zm-4.07-13.16h.17c.15-.82.57-1.61.14-2.49zm-23.53 16.31l.18-.24a7.94 7.94 0 00-.93-.81c-.08-.06-.32.12-.65.27zm16.32 3.87l-1.21 1.14c.75.26 1.07-.04 1.21-1.2zm2.51-8.51l-.16-.15c-.71.11-1.05.3-.86 1.31zM409 330.48a1.19 1.19 0 00-.94-1.54zm15.65-4l-1 1.57c.73-.05.84-.22 1.03-1.54zm3.91 5l-.2-.1-.95 1.82a2.28 2.28 0 001.18-1.66zm-4.81.74c.33-.4.59-.69.82-1 .06-.08 0-.23 0-.35s-.29 0-.36 0a1.24 1.24 0 00-.43 1.41zm-15.57-1c-.08.49.05.83.52.93.07 0 .29-.23.29-.36.01-.47-.29-.59-.78-.54zm17.58 2.08l-.26-.12-.7 1.56.2.09c.26-.49 1-.83.79-1.5zm6.63-7.59c.24-.64.44-1.13.61-1.63 0-.09-.06-.22-.09-.34-.09 0-.22.05-.24.1a2.69 2.69 0 00-.25 1.9zm-2.92-16.11h-.2l-.26 2.43h.19a10 10 0 00.3-2.4zm-20 16.91c-.38-.42-.72-.92-1.49-.8.28.84 1.02.59 1.5.83zm21.9-19.47h.27l-.1-2.34h-.25zm-5.91 18.74l-.28-.07-.49 1.74.17.06c.3-.51.73-1.01.61-1.7zm5.6 0c-.69 1.07-.69 1.25-.05 1.68zm-4.14-14.93l.33.05.32-1.67-.33-.06zm-4.22 25.9l.15.14a10 10 0 00.89-.72c.06-.05 0-.26 0-.39s-.34 0-.4 0a9.78 9.78 0 00-.63.98zm6.73-10.84a1.19 1.19 0 00-.82 1.64zm-.3-17.6h-.16l-.42 3.07h.22zm1.7-.4h-.21l-.08 3.23h.16zm8.44 5.28h-.09l-.84 1.07c-.25.32-.19.51.27.59zm-5.93-4.52h.14a4.22 4.22 0 00-.18-2.53zm-2.13-1.39l-.11 2.3a2.4 2.4 0 00.12-2.29zm-.57 17.72a1.28 1.28 0 00.39-1.85zM399 302.11c0-1.34-.14-1.72-.74-2.11zm5.37 24.61l.95.94c.24-.74.14-.85-.99-.94zm25.54-25.89h.28l.25-2.12h-.22zm-22.52 34.31a1.26 1.26 0 00-1.24-1.25zm-5.8-5.33l1.31 1.2c-.24-.89-.48-1.11-1.35-1.2zm-4.07-6.29a1.56 1.56 0 00-1.13-1.53zm25.7 11.2l.14.08.76-1.36c-.86.24-.98.44-.94 1.28zm-4 1.86c-1-.2-1 .55-1.41.85l.15.19zm-1.62-6.43c-.33 0-.54-.12-.65 0s-.21.31-.31.47c.14.08.36.27.42.23a4 4 0 00.54-.7zm-14 .16a2.06 2.06 0 001.87 1zm2.5 5c.51.45.93 1.07 1.78.85zm25.9-12.54l-.43 1.5c.66-.36.73-.59.43-1.5zm1.08-11h.27v-2.38h-.15zm-35.69 14l-.14.16 1.41 1.53.19-.18zm30.34-.49l-.24-.11-.75 1.66.23.1zm-2.87 4.17l.88-1.7c-.52.47-1.03.92-.9 1.73zm-8.24 6.32v.23a6.77 6.77 0 00.89.06c.09 0 .15-.26.29-.53zm2.67-.94c-.61-.15-.89.08-1.17 1zm-17.12-3.29l-.12.15c.47.35.7 1 1.34 1.13l.14-.17zm29.81-5.8l-.54 1.43c.56-.17.72-.49.56-1.4zm-9.21 4.37c.86-.76.94-1 .46-1.5zm5.43 2.85l-.92 1.26c.92-.28 1.15-.58.9-1.22zm3.5-28.25h.11l.06-2.9h-.19zm-2.7 12.17h.14l.49-3.08h-.15zm1.92 11c-.83.35-.94.59-.6 1.36zM391.6 315.5l-.18.16 1.53 1.58.12-.11zm30.73 15.5l.44.28.87-1.59-.18-.11zm6.42 2.26l.66-1-.17-.1a.73.73 0 00-.49 1.12zm-.46-5.76c-.6.59-.68 1.06-.28 1.5zm.83-21.88h-.19l-.15 2.09h.23zm-15.47 31h-.15c0 .22-.12.57 0 .65a2.63 2.63 0 00.82.26l.05-.13zM402.58 324l-.56-1c-.38.68-.31.82.56 1zm10.6 4.15l1.25.45c-.3-.73-.71-.89-1.25-.46zm-2.66 10l.15-.25-1.36-.78-.1.19zm23.09-34.52h.18l-.35-2.44h-.14zm-23.42 29.87a6.87 6.87 0 00-.58-.7 1 1 0 00-.43-.2s-.16.16-.15.19a1.07 1.07 0 00.32.4 6 6 0 00.84.28zm23.24-27.79l.26-.05-.41-2.08h-.1zm1.11 17.62l-.2-.06c-.38.94-.44 1.31-.23 1.8zm-5.25 5.67c-.7.37-.86.81-.56 1.28zm3.6-27.32h.26l-.13-1.76h-.19zm-31.08 29.29l.17-.17-1.46-1.31-.11.11zM427.44 304l-.16-.06-1 2.1.18.08zm-15.58 33.3a2 2 0 00-1.85-.7zm22.05-22.06h-.2l.17 1.93h.19zM406 329.66l-.9-.93c-.23.69-.1.78.9.93zm16.32 4.54c-.36 0-.67 0-.71.09a2.13 2.13 0 00-.09.72l.18.07zm-.4-1.19l.21.12.58-1.15a1.08 1.08 0 00-.82 1.02zm-7.5.07h-.3l-.09.71h.53zm9.06-6.18c-.8.45-.86.64-.38 1.09zM412 338.31v.34l1 .13v-.29zm14.31-15.78l-.21-.09-.55 1.22.23.11zm-6.47 7.81l-.23 1.16c.8-.32.55-.74.27-1.16zm-9.14 1.85l.75 1.25.16-.1c-.32-.34-.12-1.04-.87-1.15zM391.16 318l.11-.08-1.14-1.56-.16.12zm29.71 16l.17.12c.34-.16.65-.35.59-.78l-.17-.12zm12.86-9.59l.43-1.54c-.33.36-.78.73-.43 1.49zm-21.14 10.56c.08.47.19.92.68.92l.15-.15zm-16.5-12.76l.18-.16-.93-1-.16.15zM421.48 337c.71.09 1-.15 1.11-.74zm4-6.84c.68-.08.75-.21.54-1zm-16 5.86l1.2.33c-.28-.77-.75-.43-1.18-.29zm22.29-5.67l-.2-.13-.66 1.05.2.13zm-12.36 5l-.22-.12-.5.9c.63-.13.83-.34.74-.76zm-13.24-2.44l.14-.09-.81-1.19-.2.15zm13.62 2.5l.69-.72-.14-.12c-.29.13-.74.11-.53.86zM426.6 304l-.2-.07-.52 1.23.2.08zm-20.22 24l.08-.14a3.57 3.57 0 00-.4-.46c-.07-.07-.22 0-.34-.05s0 .3 0 .34a3 3 0 00.66.31zm17.22 3.32l-.26-.17-.56 1 .17.1zm3.49-7c-.58.19-.69.45-.48 1.1zm6.3-2.07h-.24l-.14 1.07h.28zm-15.2 14.36l-.16-.18c-.39 0-.55.25-.47.75zm13.86-31.31h.18l.06-1.78h-.16zm-7.41 23.31l-.25-.12-.45.94.21.11zm-4.17 9.81c.47 0 1 .07 1.18-.66zm10.46-8.42l.25.1.34-.76-.26-.12zm-32.71-4.18l-.22.18.91 1.05.12-.1zm37.7-14.41h-.21l.33 1.25h.12zm-7 11.84l.4.68.22-1zm.95 7.5l.23.1.41-.88-.22-.11zm5.45-11l-.32.08.18.68c.09-.05.25-.09.25-.13a4.62 4.62 0 00-.11-.64zm-26.59 17.48l.1-.2-1-.48-.1.21zM423 310.51l-.16-.12-.76 1 .19.14zm-11.08 27.38l.09-.19-1.3-.5-.06.14zm20.47-14.4h.19l-.3-1.49h-.08zm4.38-6.74l-.16-.08a2.07 2.07 0 000 .22v.64h.24v-.59a1.66 1.66 0 00-.09-.19zm-21.7 21.71l.13-.26-.8-.4-.1.2zm11.09-11.56l.19.08.48-1.2-.16-.07zm4.73-19.29h.11v-1.85h-.12zm-5.41.09l-1 1.12.09.06zm1.48-4.87l.17.06.49-1.28-.17-.07zm7.18 11.06h.15l.17-1.59h-.17zm-40.87 9l-.16.09.74 1.27.14-.08zm6.74 1.71l.12-.18-.93-.7-.11.15zm8.47 11.4l-.1.25.91.3.07-.18zm-14.54-20.13l.15-.09-.8-.88-.16.16zm24.39-2l.08.13 1-.61-.11-.18zm16 11.82l.16.06.48-1.21-.17-.07zm-34.78-2.2a1.07 1.07 0 00-1-.65z" transform="translate(-372.93 -272.45)"/>
    <path class="cls-2" d="M419.53 300.79a3.14 3.14 0 00-1.79-1.47.51.51 0 00-.73.45 8.84 8.84 0 000 1.15 3.86 3.86 0 00.09.49h-.06a2.15 2.15 0 01-.32-2.34h-.34c-.07-.16-.16-.34-.2-.41a8.42 8.42 0 00-2.39.21c-.11.07-.35.44-.24.63l-.78.33a4.79 4.79 0 00.09 1.55 4.24 4.24 0 00.31.92 3.17 3.17 0 01-1.1-2.16 2 2 0 00-.54.31.89.89 0 00-.12.43 4.23 4.23 0 01-1.21-1.17c-.23-.39-1.33-.78-1.18-.64a6.53 6.53 0 01.67 2.27 9.18 9.18 0 01-.25 1.65c-.12.18.8-.23 1-.46s.83-.8 1.08-.78c0 .17.1.24.34.36a7.62 7.62 0 003.19.68h.68a.64.64 0 000 .09 1.16 1.16 0 00.2.95s1.11-.68 1.12-1a.46.46 0 000-.2 4.76 4.76 0 001-.3 3.12 3.12 0 001.54-1.21.35.35 0 00-.06-.33zm-1.44 0a.34.34 0 01-.33-.34.34.34 0 01.68 0 .34.34 0 01-.35.31zm-29.76-9.62a3.14 3.14 0 001.54 1.22 5.4 5.4 0 00.94.3 1.23 1.23 0 000 .19c0 .33 1.12 1 1.12 1a1.15 1.15 0 00.2-1v-.09h.68a7.59 7.59 0 003.18-.69c.25-.11.34-.19.35-.36.24 0 .89.55 1.07.78s1.1.64 1 .46a7.52 7.52 0 01-.25-1.65 6.78 6.78 0 01.66-2.27c.16-.14-.95.26-1.17.65a4.29 4.29 0 01-1.21 1.16 1 1 0 00-.12-.42 2.18 2.18 0 00-.55-.32 3.14 3.14 0 01-1.09 2.16 4.24 4.24 0 00.31-.92 5.13 5.13 0 00.09-1.55l-.79-.32c.12-.19-.12-.57-.23-.63a8.45 8.45 0 00-2.39-.21l-.21.41h-.34a2.12 2.12 0 01-.31 2.34h-.07a4 4 0 00.09-.48 7.54 7.54 0 000-1.16.51.51 0 00-.73-.44 3.11 3.11 0 00-1.8 1.46.35.35 0 00.03.38zm1.07-.66a.36.36 0 01.33-.34.34.34 0 01.34.33.32.32 0 01-.33.34.34.34 0 01-.34-.33zm23.05-5.6a2 2 0 001 .77 3.82 3.82 0 00.6.19.5.5 0 000 .12c0 .21.71.64.71.64a.75.75 0 00.13-.61h.43a4.86 4.86 0 002-.43c.16-.08.21-.13.22-.23s.57.35.68.49.7.41.62.29a5.83 5.83 0 01-.16-1 4.18 4.18 0 01.43-1.44c.1-.09-.6.16-.75.41a2.71 2.71 0 01-.76.74.71.71 0 00-.08-.27 1.2 1.2 0 00-.35-.2 2 2 0 01-.69 1.37 2.57 2.57 0 00.2-.58 3 3 0 00.05-1l-.49-.2c.07-.13-.08-.36-.15-.4a5.45 5.45 0 00-1.52-.14l-.13.26h-.21a1.36 1.36 0 01-.2 1.48 1.57 1.57 0 00.05-.3 3.66 3.66 0 000-.74.32.32 0 00-.46-.28 2 2 0 00-1.13.93.21.21 0 00-.04.13zm.68-.42a.24.24 0 01.21-.22.23.23 0 01.22.22.21.21 0 01-.21.21.21.21 0 01-.22-.21z" transform="translate(-372.93 -272.45)"/>
</svg>
