<svg id="Calque_1" data-name="Calque 1" xmlns="http://www.w3.org/2000/svg" viewBox="0 0 73.46 74.11">
    <defs>
        <style>
            .cls-1{fill:#028eaa}.cls-2{fill:#fff}
        </style>
    </defs>
    <circle class="cls-1" cx="36.73" cy="36.73" r="36.73"/>
    <path class="cls-2" d="M393.52 302.38a3.22 3.22 0 004.14.51 4.46 4.46 0 002.09-5.2 3 3 0 00-1.06-1.41l-.24-.18a7.8 7.8 0 018.23 1.48 7.9 7.9 0 11-13.16 4.8z" transform="translate(-372.93 -272.12)"/>
    <path class="cls-2" d="M411.64 303.49c.05-4.8-5.46-9.65-4.77-9.51a25 25 0 014.22 1.36 31.45 31.45 0 019.11 5.66c.59.53 1.19 1.05 1.76 1.59a.94.94 0 010 1.6 35.21 35.21 0 01-4.6 3.84 31.63 31.63 0 01-8 4.09c-1.52.53 2.24-3.83 2.28-8.63zm19.77-.09c0-3.67 4.17-7.37 3.64-7.25a19.16 19.16 0 00-3.22 1 23.85 23.85 0 00-6.94 4.34c-.45.4-.91.8-1.35 1.21a.72.72 0 000 1.22 27.35 27.35 0 003.52 2.93 24.12 24.12 0 006.11 3.11c1.14.42-1.72-2.9-1.76-6.56zm-33.97-9.74a27.88 27.88 0 00-7.8 2.55 32.12 32.12 0 00-6.12 3.91c-1 .79-1.88 1.68-2.82 2.5a1 1 0 000 1.59c.62.54 1.2 1.13 1.82 1.67a33.65 33.65 0 005.88 4.1 29 29 0 007.64 2.92c.61.14-5.06-4.78-5-9.59s6.61-9.68 6.4-9.65zm-11.15 9a1.5 1.5 0 111.5-1.49 1.49 1.49 0 01-1.5 1.53zM412.08 285a1.3 1.3 0 001.67.2 1.79 1.79 0 00.85-2.1 1.16 1.16 0 00-.43-.57l-.1-.07a3.16 3.16 0 013.34.59 3.2 3.2 0 01-3.48 5.28 3.16 3.16 0 01-1.85-3.33z" transform="translate(-372.93 -272.12)"/>
    <path class="cls-2" d="M419.42 285.4c0-1.95-2.22-3.91-1.94-3.85a9.22 9.22 0 011.71.55 12.51 12.51 0 013.69 2.3l.72.65c.24.23.23.41 0 .64a14.59 14.59 0 01-1.87 1.56 12.76 12.76 0 01-3.25 1.65c-.6.21.92-1.56.94-3.5zm8-.04c0-1.48 1.69-3 1.48-2.94a8.68 8.68 0 00-1.31.42 9.57 9.57 0 00-2.81 1.76c-.18.16-.37.32-.54.49s-.19.32 0 .49a10.06 10.06 0 001.42 1.19 9.66 9.66 0 002.48 1.26c.46.16-.7-1.19-.72-2.67zm-13.76-3.94a11.15 11.15 0 00-3.16 1A13.18 13.18 0 00408 284c-.39.32-.75.68-1.14 1a.4.4 0 000 .65c.25.22.48.46.74.67A13.22 13.22 0 00410 288a11.68 11.68 0 003.09 1.18c.25.05-2.05-1.94-2-3.88s2.66-3.9 2.57-3.88zm-4.51 3.66a.61.61 0 11.61-.61.61.61 0 01-.61.61zm3.37 38.67a2.14 2.14 0 002.76.34 3 3 0 001.39-3.46 2 2 0 00-.71-.95l-.16-.11a5.17 5.17 0 015.49 1 5.27 5.27 0 11-8.77 3.2z" transform="translate(-372.93 -272.12)"/>
    <path class="cls-2" d="M424.6 324.5c0-3.21-3.65-6.45-3.18-6.35a17.07 17.07 0 012.81.91 20.85 20.85 0 016.08 3.79c.39.36.79.7 1.17 1.07a.62.62 0 010 1.06 24.23 24.23 0 01-3.07 2.56 21.11 21.11 0 01-5.35 2.73c-1 .33 1.51-2.57 1.54-5.77zm13.18-.07c0-2.44 2.79-4.91 2.43-4.84a13 13 0 00-2.14.69 16 16 0 00-4.64 2.9c-.3.27-.6.53-.89.81s-.3.52 0 .81a18.19 18.19 0 002.34 1.95 16.2 16.2 0 004.08 2.08c.76.26-1.15-1.96-1.18-4.4zm-22.65-6.49a18 18 0 00-5.2 1.7 20.87 20.87 0 00-4.09 2.61c-.65.52-1.25 1.11-1.88 1.66a.65.65 0 000 1.06c.41.36.8.75 1.22 1.11a22.22 22.22 0 003.92 2.74 19.28 19.28 0 005.09 1.95c.41.09-3.38-3.19-3.34-6.39s4.42-6.46 4.28-6.44zm-7.43 6a1 1 0 111-1 1 1 0 01-1 1.06z" transform="translate(-372.93 -272.12)"/>
    <path d="M388.62 338.91c.08.54.16 1.07.23 1.57 0-.43.08-.87.13-1.32zm2.19 2.03v-.58l-.1-.06c.05.22.07.43.1.64zm31.74 2.36c-.38.14-.77.28-1.17.41 0 .82.05 1.67.06 2.52.37-1.02.74-2 1.11-2.93z" transform="translate(-372.93 -272.12)" fill="none"/>
    <path class="cls-1" d="M416.57 340.33a33.8 33.8 0 01.6 4.52c.4-.08.8-.18 1.2-.28a57.45 57.45 0 00-1-8.29c-.27 1.14-.53 2.48-.8 4.05zm-24.86.53c.33.19.67.38 1 .56a68.38 68.38 0 00-1-17.07c-.24 1.14-.51 2.48-.77 4a62.4 62.4 0 01.77 12.51zm24.17 4.22l.45-.08c-.05-.71-.11-1.37-.17-2-.1.67-.16 1.36-.28 2.08zm-21.08-6.24q-.48 1.5-1 3.15l.72.32c.15-1.2.23-2.31.28-3.47zm-3.97 1.52a74.47 74.47 0 00-.33-9.29c-.17 1.22-.35 2.51-.5 3.91.29 2 .54 3.79.73 5.32zm23.17 4.99l.43-.05c-.08-.61-.16-1.21-.25-1.79-.08.59-.18 1.22-.18 1.84zm-24.83-8.07c-.17-2-.4-3.92-.66-5.7-.15 1.28-.28 2.66-.39 4.08.18 1.12.35 2.21.5 3.25l.36.25c.02-.62.12-1.24.19-1.88z" transform="translate(-372.93 -272.12)"/>
    <path class="cls-2" d="M390 335c-.16 1.43-.31 3-.44 4.58l1.17.74c-.19-1.55-.44-3.32-.73-5.32zm-6.26-20.74s2.74 5.53 4.45 15.36c.12-.91.24-1.8.37-2.68-1.2-5.72-2.81-11-4.82-12.68zm5.43 23.02c.16-1.42.33-2.86.51-4.28-.24-1.46-.5-3-.79-4.46-.13 1-.26 2-.38 3 .26 1.82.49 3.72.66 5.74zm-1.25 1.13l.7.5c-.15-1-.32-2.13-.5-3.25-.07.89-.12 1.81-.2 2.75zm-5.71-21.22s3.62 7.3 5.14 20c.11-1.22.24-2.49.38-3.78-1.25-6.92-3.09-14.19-5.52-16.22zm-1.69 1.66s3.13 6.31 4.79 17.44l1.1.95c-1.24-7.53-3.21-16.16-5.89-18.39zm6.83 18.37c0 .23-.05.47-.07.7l.17.13c-.04-.28-.07-.55-.1-.83z" transform="translate(-372.93 -272.12)"/>
    <path class="cls-2" d="M388.51 331.58c-.1-.67-.21-1.32-.32-2-.17 1.27-.32 2.55-.46 3.82.14.74.27 1.49.39 2.22.11-1.38.24-2.76.39-4.04zm2.74-14.92c-1.09 1.44-2 5.53-2.69 10.28l.33 1.6a80.8 80.8 0 012.36-11.88z" transform="translate(-372.93 -272.12)"/>
    <path class="cls-2" d="M388.89 328.54l-.33-1.6c-.13.88-.25 1.77-.37 2.68.11.64.22 1.29.32 2 .12-1.11.25-2.12.38-3.08zm-.97 9.87c.06-.94.13-1.86.2-2.75-.12-.73-.25-1.48-.39-2.22-.14 1.29-.27 2.56-.38 3.78 0 .28.06.55.1.83zm1.41.99c-.05-.71-.1-1.42-.16-2.12-.07.64-.13 1.26-.19 1.88zm1.17-8.33c-.07-.75-.15-1.43-.24-2.06-.21 1.28-.4 2.62-.58 4 .11.67.22 1.33.32 2 .15-1.43.33-2.72.5-3.94zm1.19-6.72c-.12-.54-.2-.86-.2-.86a4.61 4.61 0 01.29.43c.54-2.45 1-3.78 1-3.78-.82 1.09-1.53 3.71-2.14 7 .12.4.23.83.33 1.28.21-1.59.48-2.93.72-4.07z" transform="translate(-372.93 -272.12)"/>
    <path class="cls-2" d="M389.33 339.4c.08.06.16.1.23.16.13-1.62.28-3.15.44-4.58-.1-.65-.21-1.31-.32-2-.18 1.42-.35 2.86-.51 4.28.06.74.11 1.43.16 2.14zm6.17 3.34h.07v-.29zm-1.93-21.81s1.58 6 1.31 15.93c.3-.86.6-1.72.9-2.55-.05-5.84-.57-11.31-2.21-13.38zm.99 21.38l.43.2c.22-.69.45-1.37.68-2 .06-1.48.1-3 .11-4.53-.32.92-.65 1.88-1 2.9a52.7 52.7 0 01-.22 3.43zm-1.83-.89l.57.29c.12-.4.25-.8.38-1.2.14-6.69-.18-13.77-1.9-16.59l-.09.43a68.38 68.38 0 011.04 17.07zm-1.04-17.07l.09-.43a4.61 4.61 0 00-.29-.43s.08.32.2.86zm-.86 16.01c.29.17.58.34.88.5a62.4 62.4 0 00-.79-12.46c-.14.83-.28 1.73-.42 2.67a74.47 74.47 0 01.33 9.29zm-1.33-15.58a37.52 37.52 0 01.76 4.23q.17-1 .33-1.89a6.9 6.9 0 00-1.09-2.34z" transform="translate(-372.93 -272.12)"/>
    <path class="cls-2" d="M390.92 328.4c-.1-.45-.21-.88-.33-1.28l-.33 1.89c.09.63.17 1.31.24 2.06.14-.94.28-1.84.42-2.67zm2.92 13.6q.48-1.65 1-3.15c0-.67.06-1.33.08-2-.41 1.21-.82 2.44-1.2 3.65v1.38zm1.94-6.06a82 82 0 014.67-11.18c-1.35 1.2-3 5-4.67 9.55z" transform="translate(-372.93 -272.12)"/>
    <path class="cls-2" d="M395.78 335.94v-1.63c-.3.83-.6 1.69-.9 2.55 0 .65 0 1.31-.08 2 .33-1.04.66-2 .98-2.92zm-2.14 5.95v-1.38c-.13.4-.26.8-.38 1.2zm7.57-13.42c-1.59 1.41-3.65 6.48-5.54 12 0 .68-.05 1.35-.08 2a89.05 89.05 0 015.62-14z" transform="translate(-372.93 -272.12)"/>
    <path class="cls-2" d="M395.5 342.74l.09-.27c0-.65.06-1.32.08-2-.23.67-.46 1.35-.68 2zm18.91 2.56l.9-.12v-.26c-.24-1.46-.5-3-.79-4.45-.14 1-.27 2-.39 3 .12.62.2 1.22.28 1.83zm-5.02-19.11s2.74 5.53 4.46 15.36c.11-.91.24-1.81.37-2.68-1.22-5.72-2.81-11-4.83-12.68zm4 19.17c-1.25-6.94-3.09-14.22-5.52-16.24 0 0 2.92 5.91 4.62 16.37l.89-.07zm-7.21-14.59a60.46 60.46 0 014.35 14.81h.9c-1.24-6.5-2.99-12.92-5.25-14.81zm10.72-2.18c-1.08 1.44-2 5.53-2.68 10.28l.33 1.6a81.85 81.85 0 012.35-11.88z" transform="translate(-372.93 -272.12)"/>
    <path class="cls-2" d="M414 345.35c.06-.62.12-1.25.18-1.84-.1-.67-.2-1.33-.31-2-.17 1.26-.32 2.55-.46 3.81v.06z" transform="translate(-372.93 -272.12)"/>
    <path class="cls-2" d="M414.55 340.47l-.33-1.6c-.13.87-.26 1.77-.37 2.68.11.63.21 1.29.31 2 .12-1.12.25-2.12.39-3.08zm-1.15 4.95zm2.48-.34c.09-.72.18-1.41.28-2.08-.08-.76-.16-1.44-.24-2.06-.21 1.27-.4 2.62-.58 4v.25zm1.47-8.8c-.12-.55-.2-.86-.2-.86a4.61 4.61 0 01.29.43c.54-2.46.94-3.78.94-3.78-.82 1.09-1.53 3.71-2.13 7 .12.4.23.82.32 1.28.27-1.59.53-2.93.78-4.07zm-1.97 8.89v-.25.26zm3.84-12.32a54.2 54.2 0 011.31 11.15l.85-.28c-.17-4.86-.76-9.12-2.16-10.87z" transform="translate(-372.93 -272.12)"/>
    <path class="cls-2" d="M418.37 344.57l.84-.21c-.23-3.69-.75-6.84-1.77-8.51l-.09.43a57.45 57.45 0 011.02 8.29zm-1.02-8.29l.09-.43a4.61 4.61 0 00-.29-.43s.08.31.2.86zm-2.19.43a37.52 37.52 0 01.76 4.23q.16-1 .33-1.89a6.81 6.81 0 00-1.09-2.34zm1 6.29c.06.63.12 1.29.17 2l.84-.15a33.8 33.8 0 00-.6-4.52c-.14.83-.27 1.73-.41 2.67z" transform="translate(-372.93 -272.12)"/>
    <path class="cls-2" d="M416.57 340.33c-.09-.46-.2-.88-.32-1.28q-.17.92-.33 1.89c.08.62.16 1.3.24 2.06.14-.94.27-1.84.41-2.67zm9.54-3.64c-1 .93-2.29 3.44-3.56 6.61l.7-.27a65.6 65.6 0 012.86-6.34zm-.44 5.31l.54-.28c.41-.85.66-1.3.66-1.3a6.77 6.77 0 00-1.2 1.58z" transform="translate(-372.93 -272.12)"/>
</svg>
