<svg id="Calque_1" data-name="Calque 1" xmlns="http://www.w3.org/2000/svg" viewBox="0 0 73.46 73.47">
    <defs>
        <style>
            .cls-1{fill:#028eaa}.cls-2{fill:#fff}
        </style>
    </defs>
    <circle class="cls-1" cx="36.73" cy="36.73" r="36.73"/>
    <path class="cls-2" d="M426.54 289.78a13.51 13.51 0 00-2.87-3.31 1.32 1.32 0 01-.61.52c-.23.06-.8-.51-.69-.8.2-.53.16-.35.27-.44a16.09 16.09 0 00-2.76-1.55c-.32-.14-.65-.25-1-.37v.12c-.05.42-.93 1.19-1.41 1.32s-1.71-1.09-1.48-1.73l.14-.37c-.37-.06-.75-.1-1.14-.13a13 13 0 00-4.3.39 12.11 12.11 0 00-3.92 1.91 8.54 8.54 0 00-2.93 3.4 3.8 3.8 0 00.93 4.5c.45.43 1 .8 1.44 1.21a.67.67 0 01.23.35 15.17 15.17 0 01.25 2.11 5.81 5.81 0 01-1.42 3.93c-.55.64-1.15 1.25-1.69 1.9a14.52 14.52 0 00-3.09 5.15 45.51 45.51 0 01-2 5c-.44 1-.94 2-1.47 2.92s-1.16 2-1.77 2.93a6.56 6.56 0 01-.86 1c-.11.13-.19.25-.08.39s.27.08.39 0l.23-.2a10.46 10.46 0 001.69-2.39c.62-1.09 1.18-2.21 1.76-3.33a57.75 57.75 0 002.57-5.86c.22-.56.35-1.17.6-1.72a12.37 12.37 0 012-3c.7-.83 1.47-1.6 2.15-2.43a6.74 6.74 0 001.43-5.4c0-.24-.07-.48-.11-.71a.28.28 0 01.19.16 6.28 6.28 0 01.25.73 5.42 5.42 0 01-.52 4.26c-.67 1.14-1.43 2.23-2.11 3.37-.91 1.55-1.82 3.11-2.66 4.7s-1.58 3.15-2.29 4.76a40 40 0 01-2.28 4.65 8.79 8.79 0 01-3.78 3.78.25.25 0 00-.15.36c.09.16.23.13.38.06a6.87 6.87 0 002.25-1.64 16.23 16.23 0 002.77-4.27c.55-1.13 1-2.3 1.55-3.44.8-1.66 1.61-3.32 2.48-5a73.37 73.37 0 014-6.65 6 6 0 001.06-3.93c0-.5-.16-1-.24-1.51l1.23.51a7.56 7.56 0 01-.49 2.5c-.5 1.23-1 2.46-1.56 3.67-.66 1.41-1.4 2.79-2.07 4.2a1.35 1.35 0 01-1 .89.47.47 0 00-.42.43c0 .24.17.35.35.44l.05.07c-.19.35-.38.72-.58 1.08-1.06 1.8-2.15 3.58-3.18 5.39-.9 1.59-1.74 3.21-2.61 4.82a10.19 10.19 0 01-3.93 4.17c-.15.09-.24.2-.15.36s.22.15.38.07a10.78 10.78 0 002.32-1.82 13 13 0 002-3c.64-1.18 1.24-2.39 1.91-3.56.81-1.43 1.66-2.83 2.5-4.24.27-.45.53-.9.78-1.33.22.17.4.34.61.47s.36.31.08.62a2.06 2.06 0 00-.33.5c-.12.29-.19.6-.32.88s-.32.88-.89.91c-.23.12-.26.3-.08.48l.16.14a1 1 0 010 .1 56.25 56.25 0 01-4.5 7.23 19.15 19.15 0 01-3.14 3.41c-.32.27-.66.5-1 .74-.15.11-.32.22-.18.42s.29.09.43 0l.35-.23a16.91 16.91 0 003.39-3.37 50.79 50.79 0 004.37-6.68c.26-.47.51-.94.78-1.41l.19.09c.64.31.66.5.1.91a1.62 1.62 0 00-.58 2 .52.52 0 010 .35c-.49.8-1 1.61-1.48 2.4a24.66 24.66 0 01-5.37 6.28c-.13.11-.24.23-.12.4s.3.09.43 0c.68-.63 1.41-1.22 2-1.9a34.21 34.21 0 004.38-6l.55-.91.44.24c-.78 1.31-1.51 2.62-2.32 3.87-.65 1-1.39 1.95-2.13 2.89-.31.41-.72.74-1.07 1.12a.39.39 0 00-.06.36c.08.15.24.13.37 0l.23-.2a18.27 18.27 0 002.45-3 46.47 46.47 0 003.35-5.76.27.27 0 01.37-.16 2.41 2.41 0 00.6.08.36.36 0 00.37-.52 4.27 4.27 0 00-.16-.46l.67-.07a1.32 1.32 0 01-.08.22c-.63 1.24-1.25 2.49-1.91 3.72a30.27 30.27 0 01-4.4 6.31c-.12.13-.23.28-.06.43s.29 0 .42-.1a23.2 23.2 0 002.41-3.1 53.26 53.26 0 003.83-6.89c.2-.42.4-.67.91-.58a.44.44 0 00.51-.25c.09-.23-.06-.39-.21-.53l-.43-.37.55.06a2.78 2.78 0 00.5 0 .41.41 0 00.36-.64 1.3 1.3 0 01-.07-1.09 3 3 0 00.23-1.68.11.11 0 010-.08l.61-1.2a2.52 2.52 0 00.38-.84 3.07 3.07 0 01.24-.9c.14-.35.28-.7.43-1a.66.66 0 01.21-.23.61.61 0 00.27-.7.57.57 0 010-.29l1.71-4.21c.15-.35.26-.38.62-.14a2.74 2.74 0 01-.23.36.67.67 0 00.13 1.11.43.43 0 01.18.62l-.37.65a2.08 2.08 0 00-.5 1.32.89.89 0 01-.4.92c-.18.13-.35.27-.52.42a4.42 4.42 0 00-.47.5.39.39 0 00.16.64l.36.2-.68.68a10.78 10.78 0 00-.88.91.53.53 0 00.22.87 3.48 3.48 0 00.35.19l-.52.37a6.49 6.49 0 00-.79.59c-.39.37-.31.76.18 1 .17.09.36.15.54.23a1.82 1.82 0 01.19.1 2.77 2.77 0 01-.25.19c-.64.43-.78.85-.14 1.37a.31.31 0 010 .49c-.1.12-.21.23-.3.36a1.55 1.55 0 00-.37.57 2.44 2.44 0 01-.44.9 5.74 5.74 0 01-1.24 1.58.87.87 0 00-.17.3 3.17 3.17 0 01-.16.37 53.7 53.7 0 01-3.78 4.6 1.06 1.06 0 00-.21.31.25.25 0 00.06.25.29.29 0 00.27 0 .73.73 0 00.36-.24c.71-.82 1.44-1.63 2.13-2.47s1.15-1.49 1.73-2.23c.06-.07.15-.18.22-.17a8.76 8.76 0 01.89.18.24.24 0 01.16.37 5.88 5.88 0 01-.46.72c-.29.38-.61.75-.9 1.13a.54.54 0 00-.07.67l-2.5 2.61c-.31.32-.63.64-.92 1-.06.07 0 .22 0 .34h.35s.06-.07.09-.1c1.13-1.19 2.27-2.37 3.41-3.56a.35.35 0 01.22-.12 1.65 1.65 0 011.81.83.42.42 0 00.49.28c.23 0 .29-.25.3-.45l.09-1.79c0-.22 0-.44.08-.66h.09l.26.27a7.45 7.45 0 00.6.65.4.4 0 00.7-.27v-1.21l.68.72a1.2 1.2 0 01-.1.19 23 23 0 01-2.48 3.49 8.9 8.9 0 01-2.47 2.06c-.17.09-.44.16-.31.43s.35.09.52 0a10 10 0 003-2.66 29.62 29.62 0 003.55-5.69 42.27 42.27 0 002.47-5.9 20.59 20.59 0 00.57-2 13.64 13.64 0 011-3.19 11.33 11.33 0 001.14-4.81 14.11 14.11 0 01.51-3.94c.16-.52.35-1 .53-1.55v.1c.05 1.28.14 2.56.14 3.84 0 1.45-.08 2.89-.09 4.34a11.28 11.28 0 01-1.45 5.26c-.72 1.35-1.39 2.73-2 4.12-.86 1.82-1.65 3.67-2.5 5.5a19.78 19.78 0 01-2.61 4.16 12.23 12.23 0 01-6 4.15c-.16.05-.31.12-.24.33s.22.18.39.13a12.15 12.15 0 004.11-2.18 16.54 16.54 0 003.82-4.59 44.87 44.87 0 002.6-5.36c.88-2.08 1.89-4.11 2.92-6.13a11.71 11.71 0 001.42-4.67c.12-1.95.17-3.89.12-5.83 0-1.05-.07-2.1-.11-3.18h.21a5.93 5.93 0 003.34-1 4.66 4.66 0 002.18-3.58 6.21 6.21 0 00-1.09-3.8zm-17.37 28.54l.38-.55.07.05c.01.27-.21.39-.45.5zm8.57-20.81c-.3.85-.6 1.73-.91 2.64a6.1 6.1 0 01-.77-3.22zm-2.26 11.4l.46.29.11.08c.22.1.44.27.67.08s.14-.45 0-.66c-.29-.61-.59-1.22-.88-1.82a6.51 6.51 0 01-.31-.72 1.52 1.52 0 010-.43h.09l.62.29a3.56 3.56 0 00.41.17c.62.16 1-.16.91-.79a12.66 12.66 0 00-.32-1.32c-.13-.5-.29-1-.43-1.51a1.82 1.82 0 010-.45l.81.37a1.78 1.78 0 00.41.17c.1 0 .27 0 .3-.07a.37.37 0 000-.34c-.26-.35-.54-.7-.84-1a.73.73 0 01-.15-.83c.29-.82.54-1.66.8-2.5.08-.23.19-.28.43-.22.5.13 1 .21 1.54.32l-.48 1.2a30.63 30.63 0 00-2 8 13.67 13.67 0 01-1.16 3.91l-.11.14-.89-2.28zm.11 3.81l-.33.61c-.09-.56-.01-.71.33-.61zm-7-26.51c.36-1 .25-.49.51-.79s.74-.12 1.13.17a1.15 1.15 0 01.58.93c0 .32-.72.91-1.09 1s-1.34-.82-1.17-1.31zm-3.3 22.65l-1.37.53.63-1.12 1 .34c-.16.1-.21.21-.3.25zm1.44-2.93a1.05 1.05 0 01-1 .8 3.13 3.13 0 00-.38.1c.45-.89.88-1.72 1.31-2.58l.63.42a12.56 12.56 0 00-.6 1.26zm.51-2.91c.12-.27.22-.5.33-.73l.34-.72.49.32c-.18.67-.4.85-1.2 1.11zm2.56 5.67c-.38-.57-.3-.76.34-.86-.14.29-.26.56-.38.86zm.19-11q-.46 1.43-1 2.82c-.18.48-.23.48-.79.41a13.24 13.24 0 001.44-4.83l.69.15c-.15.46-.23.95-.33 1.42zm.81 8.55a.61.61 0 01-.11-1.1l.72-.51c-.22.53-.41 1.06-.65 1.58zm.4-8.61c0 .09-.13.16-.22.22s-.39.24-.64.39l.5-1.93.64.05c-.14.42-.21.83-.32 1.24zm1.1-1.29l-.38.63h-.08c.16-.25-.1-.66.42-.66zm-.29 6.93c-.31-.42-.16-.81.41-1zm.91-18.56c-.15 0-.53-.35-.46-.55.14-.4.1-.2.21-.32s.3-.05.46.07a.47.47 0 01.24.38c-.06.1-.37.34-.49.39zm.2 1.32c.19-.52.13-.26.28-.42s.39-.07.6.09.33.32.31.5-.38.48-.58.54-.73-.48-.65-.74zm.7 29.67a.78.78 0 01-.26.25v-1.14c.55.37.55.37.22.86zm6.41-15.47a11.58 11.58 0 00-.34 3 10.8 10.8 0 01-1 4.62 21 21 0 00-1.31 4.09 20.84 20.84 0 01-1 3.08c-.56 1.39-1.18 2.75-1.8 4.11-.28.62-.62 1.21-1 1.86l-.6-3c.36 0 .47-.09.48-.44 0-.26-.12-.56 0-.76a9.23 9.23 0 01.76-1.16l.16.1a.44.44 0 00.69-.35 1 1 0 000-.33 2 2 0 01.44-1.56 2.53 2.53 0 00.13-.22c.07-.15.14-.24.35-.2a.4.4 0 00.43-.57 1.53 1.53 0 01.16-1.13 15.45 15.45 0 001.3-4.68 28.48 28.48 0 012-7.57c.12-.29.24-.59.37-.87 0-.08.13-.13.19-.19v.07c-.06.63-.27 1.34-.45 2.07zm-.14-8.48c-.62.18-2.22-1.43-1.92-2.26.6-1.65.42-.82.87-1.34s1.25-.21 1.91.29 1 1 1 1.59-1.27 1.52-1.9 1.69zm4.19-1.74c-.29.09-1-.66-.89-1.05.28-.76.19-.38.4-.62s.58-.09.89.14.49.48.46.73-.61.69-.9.79z" transform="translate(-372.93 -272.44)"/>
    <path class="cls-1" d="M416.51 340.66a35.77 35.77 0 01.6 4.52c.4-.08.79-.18 1.19-.28a57.66 57.66 0 00-1-8.29c-.3 1.14-.53 2.48-.79 4.05zm-24.87.53c.34.2.68.38 1 .56a68.23 68.23 0 00-1-17.06c-.24 1.13-.5 2.48-.77 4.05a61.56 61.56 0 01.77 12.45zm24.17 4.22l.45-.08c-.05-.71-.1-1.37-.17-2-.09.67-.19 1.36-.28 2.08zm-21.07-6.23c-.32 1-.65 2.05-1 3.14l.73.33c.13-1.21.21-2.36.27-3.47zm-3.97 1.51a78.28 78.28 0 00-.33-9.28c-.18 1.21-.35 2.5-.51 3.9.3 2 .54 3.79.73 5.32zm23.14 4.99l.43-.05c-.08-.61-.15-1.21-.24-1.79-.1.59-.1 1.22-.19 1.84zm-24.8-8.06c-.18-2-.4-3.93-.67-5.71-.14 1.28-.27 2.66-.39 4.09.19 1.11.35 2.2.51 3.24l.35.26c.09-.62.09-1.25.2-1.88z" transform="translate(-372.93 -272.44)"/>
    <path class="cls-2" d="M389.93 335.31c-.16 1.43-.3 3-.43 4.58l1.16.74c-.19-1.53-.43-3.35-.73-5.32zm-6.26-20.71s2.74 5.53 4.45 15.36c.12-.91.25-1.81.38-2.69-1.21-5.71-2.82-10.99-4.83-12.67zm5.44 23.02c.15-1.43.32-2.87.51-4.29-.24-1.46-.5-3-.8-4.46-.13 1-.26 2-.38 3 .27 1.82.49 3.73.67 5.75zm-1.26 1.12l.71.5c-.16-1-.32-2.13-.51-3.24-.05.89-.14 1.8-.2 2.74zm-5.7-21.22s3.61 7.3 5.13 20c.12-1.22.25-2.49.39-3.78-1.25-6.92-3.09-14.19-5.52-16.22zm-1.7 1.66s3.14 6.31 4.79 17.44c.37.32.73.64 1.11.95-1.25-7.57-3.21-16.15-5.9-18.39zm6.83 18.37c0 .24 0 .47-.07.7l.17.13c-.03-.28-.07-.55-.1-.83z" transform="translate(-372.93 -272.44)"/>
    <path class="cls-2" d="M388.44 331.91c-.1-.67-.21-1.32-.32-2-.16 1.26-.31 2.54-.45 3.81.13.75.26 1.49.38 2.23.12-1.38.25-2.76.39-4.04zm2.74-14.91c-1.08 1.44-2 5.54-2.68 10.28.11.53.22 1.07.32 1.6a82.51 82.51 0 012.36-11.88z" transform="translate(-372.93 -272.44)"/>
    <path class="cls-2" d="M388.82 328.87c-.1-.53-.21-1.07-.32-1.6-.13.88-.26 1.78-.38 2.69.11.63.22 1.28.32 2 .12-1.12.25-2.12.38-3.09zm-.97 9.87c.06-.94.13-1.85.2-2.74-.12-.74-.25-1.48-.38-2.23-.14 1.29-.27 2.56-.39 3.78 0 .28.07.55.1.83.16.12.31.25.47.36zm1.41 1c0-.72-.09-1.43-.15-2.12-.07.63-.14 1.26-.2 1.88zm1.18-8.33c-.08-.76-.16-1.44-.24-2.07-.21 1.28-.4 2.62-.58 4 .11.67.21 1.33.31 2 .16-1.43.33-2.72.51-3.93zm1.18-6.72c-.11-.55-.19-.87-.19-.87l.29.43c.53-2.45.94-3.77.94-3.77-.82 1.09-1.53 3.71-2.13 7 .11.4.22.83.32 1.29.27-1.6.53-2.95.77-4.08z" transform="translate(-372.93 -272.44)"/>
    <path class="cls-2" d="M389.26 339.74l.24.15c.13-1.61.27-3.15.43-4.58-.1-.65-.2-1.31-.31-2-.19 1.42-.36 2.86-.51 4.29.06.71.11 1.4.15 2.14zm6.18 3.33h.07v-.3a2.76 2.76 0 00-.07.3zm-1.94-21.81s1.59 6 1.31 15.94c.3-.87.6-1.73.9-2.56-.04-5.84-.57-11.34-2.21-13.38zm1 21.39l.42.19c.23-.68.46-1.37.69-2 .05-1.48.09-3 .1-4.53-.32.92-.64 1.88-1 2.91-.03 1.07-.11 2.22-.21 3.43zm-1.84-.9l.57.29c.12-.4.25-.8.38-1.2.15-6.69-.17-13.77-1.89-16.59 0 .15-.07.29-.1.44a68.23 68.23 0 011.04 17.06z" transform="translate(-372.93 -272.44)"/>
    <path class="cls-2" d="M391.62 324.69c0-.15.07-.29.1-.44s-.19-.3-.29-.43.08.32.19.87zm-.85 16c.28.18.58.34.87.5a61.56 61.56 0 00-.79-12.45c-.14.82-.28 1.72-.41 2.67a78.28 78.28 0 01.33 9.28zm-1.33-15.58a40.66 40.66 0 01.76 4.23q.15-1 .33-1.89a7.19 7.19 0 00-1.09-2.34z" transform="translate(-372.93 -272.44)"/>
    <path class="cls-2" d="M390.85 328.74c-.1-.46-.21-.89-.32-1.29q-.18.92-.33 1.89c.08.63.16 1.31.24 2.07.13-.95.27-1.85.41-2.67zm2.92 13.58c.32-1.09.65-2.15 1-3.14 0-.68.06-1.34.07-2-.41 1.2-.81 2.43-1.2 3.64v1.38zm1.94-6.05a83.77 83.77 0 014.67-11.17c-1.34 1.19-3 5-4.67 9.54.01.54.01 1.09 0 1.63z" transform="translate(-372.93 -272.44)"/>
    <path class="cls-2" d="M395.71 336.27v-1.63a185 185 0 00-.9 2.56c0 .64 0 1.3-.07 2 .33-1.05.65-2.01.97-2.93zm-2.14 5.95v-1.38c-.13.4-.26.8-.38 1.2zm7.57-13.41c-1.58 1.41-3.64 6.47-5.53 12 0 .68-.06 1.35-.09 2a88.6 88.6 0 015.62-14zm-5.7 14.26a2.76 2.76 0 01.08-.27c0-.65.06-1.32.09-2-.23.67-.46 1.36-.69 2zm18.9 2.56l.9-.12v-.25c-.23-1.46-.5-3-.79-4.46-.13 1-.26 2-.38 3 .12.62.19 1.2.27 1.83zm-5.01-19.11s2.74 5.53 4.45 15.36c.12-.91.24-1.8.37-2.68-1.15-5.71-2.81-11-4.82-12.68zm3.99 19.18c-1.25-6.95-3.08-14.22-5.52-16.25 0 0 2.93 5.92 4.62 16.37l.9-.07zm-7.21-14.59a60.69 60.69 0 014.36 14.8h.89c-1.24-6.5-2.99-12.91-5.25-14.8zm10.73-2.19c-1.08 1.44-2 5.53-2.69 10.28.12.53.22 1.06.33 1.6a82.51 82.51 0 012.36-11.88z" transform="translate(-372.93 -272.44)"/>
    <path class="cls-2" d="M413.91 345.68c.06-.62.12-1.25.19-1.84-.1-.67-.21-1.32-.32-2-.16 1.27-.32 2.55-.46 3.82v.05z" transform="translate(-372.93 -272.44)"/>
    <path class="cls-2" d="M414.48 340.8c-.11-.54-.21-1.07-.33-1.6-.13.88-.25 1.77-.37 2.68.11.64.22 1.29.32 2 .12-1.11.25-2.11.38-3.08zm-1.15 4.95zm2.48-.34c.09-.72.19-1.41.28-2.08-.07-.75-.15-1.43-.24-2.06-.2 1.28-.4 2.62-.58 4v.24c.21-.03.37-.07.54-.1zm1.47-8.8c-.12-.54-.2-.86-.2-.86a4.61 4.61 0 01.29.43c.54-2.45.95-3.78.95-3.78-.82 1.1-1.53 3.72-2.14 7 .12.4.23.83.33 1.28.26-1.59.49-2.93.77-4.07zm-1.97 8.89v-.24.25zm3.85-12.31a54.56 54.56 0 011.3 11.13l.86-.28c-.17-4.84-.76-9.11-2.16-10.85z" transform="translate(-372.93 -272.44)"/>
    <path class="cls-2" d="M418.3 344.9c.28-.06.57-.13.85-.21-.23-3.68-.76-6.84-1.78-8.51l-.09.43a57.66 57.66 0 011.02 8.29zm-1.02-8.29l.09-.43a4.61 4.61 0 00-.29-.43s.08.32.2.86zm-2.19.39a37.52 37.52 0 01.76 4.23q.16-1 .33-1.89a7 7 0 00-1.09-2.34zm1 6.33c.07.63.12 1.29.17 2 .28-.05.57-.09.85-.15a35.77 35.77 0 00-.6-4.52c-.14.83-.28 1.73-.42 2.67z" transform="translate(-372.93 -272.44)"/>
    <path class="cls-2" d="M416.51 340.66c-.1-.45-.21-.88-.33-1.28q-.17.92-.33 1.89c.09.63.17 1.31.24 2.06.14-.94.28-1.84.42-2.67zM426 337c-1 .93-2.29 3.44-3.55 6.61l.69-.27A68.88 68.88 0 01426 337zm-.4 5.31l.54-.28c.41-.84.66-1.3.66-1.3a7 7 0 00-1.2 1.58z" transform="translate(-372.93 -272.44)"/>
</svg>
