<svg id="Calque_1" data-name="Calque 1" xmlns="http://www.w3.org/2000/svg" viewBox="0 0 73.46 73.46">
    <defs>
        <style>
            .cls-1{fill:#028eaa}.cls-2{fill:#fff}
        </style>
    </defs>
    <path class="cls-1" d="M416.49 340.64a35.63 35.63 0 01.59 4.52l1.2-.28a57.23 57.23 0 00-1-8.29c-.28 1.14-.53 2.48-.79 4.05zm-24.87.53l1 .56a68.33 68.33 0 00-1-17.07c-.24 1.14-.51 2.48-.77 4a61.66 61.66 0 01.77 12.51z" transform="translate(-372.93 -272.45)"/>
    <path class="cls-1" d="M411.34 345.87l1.06-.07c-1.69-10.46-4.62-16.38-4.62-16.38 2.43 2 4.27 9.3 5.52 16.25.14-1.27.29-2.55.46-3.81-1.71-9.83-4.46-15.36-4.46-15.36 2 1.68 3.63 7 4.83 12.67.71-4.74 1.6-8.84 2.68-10.28a82.26 82.26 0 00-2.35 11.88c.29 1.5.55 3 .79 4.46.18-1.37.37-2.71.58-4a37.52 37.52 0 00-.76-4.23 7 7 0 011.09 2.35c.6-3.27 1.32-5.89 2.13-7 0 0-.4 1.32-.94 3.78 1 1.66 1.55 4.82 1.78 8.51l1.31-.37a54.2 54.2 0 00-1.31-11.14c1.41 1.75 2 6 2.17 10.85l1.16-.4c1.27-3.17 2.52-5.68 3.56-6.61a64.48 64.48 0 00-2.86 6.33c.82-.32 1.63-.66 2.42-1a6.56 6.56 0 011.2-1.58s-.25.45-.66 1.3a36.73 36.73 0 10-40.9-5.42c-1.66-11.13-4.79-17.44-4.79-17.44 2.68 2.24 4.65 10.87 5.89 18.4l.87.68c0-.24 0-.47.07-.7-1.52-12.74-5.14-20-5.14-20 2.44 2 4.27 9.3 5.53 16.24.13-1.26.29-2.55.45-3.81-1.71-9.83-4.45-15.36-4.45-15.36 2 1.68 3.62 7 4.82 12.68.71-4.75 1.61-8.84 2.69-10.28a82.51 82.51 0 00-2.36 11.88c.29 1.49.56 3 .79 4.45.18-1.36.38-2.71.58-4a37.52 37.52 0 00-.76-4.23 6.81 6.81 0 011.09 2.34c.61-3.27 1.32-5.89 2.14-7 0 0-.41 1.33-.95 3.78 1.73 2.82 2 9.89 1.9 16.59.39-1.22.79-2.44 1.2-3.65.28-10-1.31-15.94-1.31-15.94 1.64 2 2.17 7.55 2.21 13.38 1.64-4.5 3.33-8.34 4.67-9.54a82 82 0 00-4.67 11.18c0 1.52-.05 3.05-.1 4.52 1.88-5.51 4-10.58 5.53-12a89.05 89.05 0 00-5.62 14v.29a36.59 36.59 0 0014.18 2.84h.79a60.69 60.69 0 00-4.36-14.81c2.24 1.91 3.99 8.3 5.23 14.78z" transform="translate(-372.93 -272.45)"/>
    <path class="cls-1" d="M415.79 345.39l.45-.08c-.05-.71-.11-1.38-.17-2-.07.69-.19 1.35-.28 2.08zm-21.08-6.24c-.32 1-.64 2.05-1 3.14l.72.33c.15-1.2.23-2.35.28-3.47zm-3.97 1.52a74.39 74.39 0 00-.33-9.29c-.17 1.22-.34 2.51-.5 3.91.3 2 .54 3.78.73 5.32zm23.15 4.99l.43-.06c-.08-.6-.16-1.21-.24-1.79-.08.6-.08 1.19-.19 1.85zm-24.8-8.07q-.27-3-.67-5.7c-.15 1.28-.27 2.65-.39 4.08.18 1.12.35 2.21.5 3.25l.36.25c.11-.62.11-1.24.2-1.88z" transform="translate(-372.93 -272.45)"/>
    <path class="cls-2" d="M389.91 335.29c-.16 1.42-.31 3-.43 4.57.38.26.77.51 1.16.75-.19-1.54-.43-3.35-.73-5.32zm-6.26-20.72s2.74 5.53 4.45 15.36c.12-.91.24-1.81.37-2.68-1.2-5.72-2.81-11-4.82-12.68zm5.44 23.02c.15-1.42.32-2.86.5-4.29-.23-1.46-.5-3-.79-4.45-.13 1-.26 2-.38 3q.41 2.71.67 5.74zm-1.26 1.13l.7.5c-.15-1-.32-2.13-.5-3.25-.03.89-.14 1.8-.2 2.75zm-5.71-21.22s3.62 7.29 5.14 20c.11-1.23.24-2.5.39-3.79-1.26-6.91-3.09-14.19-5.53-16.21zm-1.69 1.65s3.13 6.31 4.79 17.44c.36.33.73.65 1.1 1-1.24-7.59-3.21-16.2-5.89-18.44zm6.83 18.38c0 .23-.05.46-.07.7l.17.13c-.03-.29-.07-.56-.1-.83z" transform="translate(-372.93 -272.45)"/>
    <path class="cls-2" d="M388.42 331.89c-.1-.67-.21-1.33-.32-2-.16 1.26-.32 2.55-.45 3.81.13.75.26 1.5.38 2.23.12-1.39.24-2.76.39-4.04zm2.74-14.89c-1.08 1.44-2 5.53-2.69 10.28.12.53.22 1.06.33 1.6a82.51 82.51 0 012.36-11.88z" transform="translate(-372.93 -272.45)"/>
    <path class="cls-2" d="M388.8 328.85c-.11-.54-.21-1.07-.33-1.6-.13.87-.25 1.77-.37 2.68.11.63.22 1.29.32 2 .12-1.12.25-2.12.38-3.08zm-.97 9.87c.06-1 .13-1.86.2-2.75-.12-.73-.25-1.48-.38-2.23-.15 1.29-.28 2.56-.39 3.79 0 .27.07.54.1.83zm1.41.99c-.05-.72-.1-1.43-.15-2.12-.07.64-.14 1.26-.2 1.88zm1.17-8.33c-.07-.76-.15-1.44-.24-2.06-.2 1.27-.4 2.62-.58 4 .11.68.22 1.34.32 2 .16-1.43.33-2.72.5-3.94zm1.19-6.72c-.12-.55-.2-.86-.2-.86a3.23 3.23 0 01.29.43c.54-2.45.95-3.78.95-3.78-.82 1.09-1.53 3.71-2.14 7 .12.4.23.82.33 1.28.26-1.59.53-2.93.77-4.07z" transform="translate(-372.93 -272.45)"/>
    <path class="cls-2" d="M389.24 339.71l.24.15c.12-1.61.27-3.15.43-4.57-.1-.65-.21-1.31-.32-2-.18 1.43-.35 2.87-.5 4.29l.15 2.13zm6.17 3.29h.07v-.29zm-1.93-21.77s1.59 6 1.31 15.94c.3-.87.6-1.72.9-2.56-.04-5.83-.57-11.33-2.21-13.38zm.99 21.39l.43.19c.23-.68.45-1.36.69-2 .05-1.47.09-3 .1-4.52-.32.92-.65 1.87-1 2.9-.03 1.08-.11 2.23-.22 3.43zm-1.83-.89l.57.29c.12-.4.25-.8.38-1.2.14-6.7-.17-13.77-1.9-16.59l-.09.43a68.33 68.33 0 011.04 17.07zm-1.04-17.07l.09-.43a3.23 3.23 0 00-.29-.43s.08.31.2.86zm-.86 16.01l.88.5a61.66 61.66 0 00-.79-12.46c-.14.83-.28 1.73-.42 2.67a74.39 74.39 0 01.33 9.29zm-1.33-15.58a37.52 37.52 0 01.76 4.23q.16-1 .33-1.89a6.81 6.81 0 00-1.09-2.34z" transform="translate(-372.93 -272.45)"/>
    <path class="cls-2" d="M390.83 328.71c-.1-.46-.21-.88-.33-1.28q-.17.92-.33 1.89c.09.62.17 1.3.24 2.06.14-.94.28-1.84.42-2.67zm2.92 13.58c.32-1.09.64-2.14 1-3.14 0-.67.06-1.34.08-2-.41 1.21-.81 2.43-1.2 3.65v1.37zm1.94-6.04a82 82 0 014.67-11.18c-1.34 1.2-3 5-4.67 9.54 0 .55.01 1.09 0 1.64z" transform="translate(-372.93 -272.45)"/>
    <path class="cls-2" d="M395.69 336.25v-1.64c-.3.84-.6 1.69-.9 2.56 0 .64 0 1.31-.08 2 .29-1.05.66-2 .98-2.92zm-2.14 5.94v-1.37c-.13.4-.26.8-.38 1.2zm7.57-13.41c-1.58 1.41-3.65 6.48-5.53 12 0 .68-.06 1.36-.09 2a89.05 89.05 0 015.62-14zM395.41 343l.09-.26c0-.65.06-1.33.09-2-.24.68-.46 1.36-.69 2zm18.91 2.6l.9-.11v-.26c-.24-1.46-.5-3-.79-4.46-.14 1-.26 2-.38 3 .11.62.19 1.23.27 1.83zm-5.02-19.1s2.75 5.53 4.46 15.36c.12-.91.24-1.81.37-2.69-1.2-5.71-2.81-10.99-4.83-12.67zm4 19.17c-1.25-6.95-3.09-14.22-5.52-16.25 0 0 2.93 5.92 4.62 16.38l.9-.07zm-7.21-14.59a60.69 60.69 0 014.36 14.81h.89c-1.24-6.5-2.99-12.89-5.25-14.81zm10.72-2.19c-1.08 1.44-2 5.54-2.68 10.28l.33 1.6a82.26 82.26 0 012.35-11.88z" transform="translate(-372.93 -272.45)"/>
    <path class="cls-2" d="M413.89 345.66c.06-.63.12-1.25.19-1.85-.11-.66-.21-1.32-.32-1.95-.17 1.26-.32 2.54-.46 3.81v.06z" transform="translate(-372.93 -272.45)"/>
    <path class="cls-2" d="M414.46 340.77l-.33-1.6c-.13.88-.25 1.78-.37 2.69.11.63.21 1.29.32 1.95.12-1.07.24-2.07.38-3.04zm-1.15 4.96zm2.48-.34c.09-.73.18-1.41.28-2.08-.07-.76-.16-1.44-.24-2.07-.21 1.28-.4 2.62-.58 4v.25zm1.47-8.8c-.12-.55-.2-.86-.2-.86a2.93 2.93 0 01.29.43c.54-2.46.94-3.78.94-3.78-.81 1.09-1.53 3.71-2.13 7 .12.4.23.82.33 1.28.26-1.59.51-2.93.77-4.07zm-1.97 8.89v-.25.26zm3.84-12.32a54.2 54.2 0 011.31 11.14l.86-.29c-.17-4.84-.76-9.1-2.17-10.85z" transform="translate(-372.93 -272.45)"/>
    <path class="cls-2" d="M418.28 344.88l.85-.21c-.23-3.69-.76-6.85-1.78-8.51l-.09.43a57.23 57.23 0 011.02 8.29zm-1.02-8.29l.09-.43a2.93 2.93 0 00-.29-.43s.08.27.2.86zm-2.19.41a37.52 37.52 0 01.76 4.23c.11-.65.22-1.27.33-1.88a7 7 0 00-1.09-2.35zm1 6.31c.06.62.12 1.29.17 2l.84-.15a35.63 35.63 0 00-.59-4.52c-.14.83-.28 1.73-.42 2.67z" transform="translate(-372.93 -272.45)"/>
    <path class="cls-2" d="M416.49 340.64c-.1-.46-.21-.88-.33-1.28-.11.61-.22 1.23-.33 1.88.08.63.17 1.31.24 2.07.14-.94.28-1.84.42-2.67zM426 337c-1 .93-2.29 3.44-3.56 6.61l.7-.28A64.48 64.48 0 01426 337zm-.42 5.29l.54-.28c.41-.85.66-1.3.66-1.3a6.56 6.56 0 00-1.2 1.58zm11.33-22.43a10.5 10.5 0 00-6-4.93 1.71 1.71 0 00-2.45 1.5 26.52 26.52 0 00.11 3.88 11.29 11.29 0 00.31 1.62h-.22c-1.75-2.37-2.46-4.91-1.07-7.85-.42-.05-.78-.1-1.14-.12-.26-.53-.56-1.14-.68-1.37-.23-.45-7.39.33-8.05.7-.37.21-1.18 1.47-.78 2.12-.8.32-1.73.71-2.63 1.09a16.35 16.35 0 00.3 5.21 13.66 13.66 0 001 3.09 10.55 10.55 0 01-3.68-7.25 6.33 6.33 0 00-1.83 1.05 3.09 3.09 0 00-.41 1.42 13.89 13.89 0 01-4.06-3.91c-.77-1.31-4.49-2.63-4-2.16s2.24 5.62 2.24 7.62a28.71 28.71 0 01-.84 5.55c-.39.61 2.69-.77 3.3-1.55s2.8-2.66 3.62-2.62c0 .57.34.82 1.16 1.21a25.54 25.54 0 0010.71 2.3h2.29l-.06.31a4 4 0 00.68 3.21s3.71-2.29 3.76-3.37a2.5 2.5 0 00-.07-.67 16.74 16.74 0 003.18-1 10.58 10.58 0 005.18-4.08 1.2 1.2 0 00.13-1zm-4.84-.11a1.11 1.11 0 01-1.11-1.13 1.16 1.16 0 011.15-1.12 1.18 1.18 0 011.12 1.15 1.14 1.14 0 01-1.16 1.1zM404 303.82a7.14 7.14 0 00-4.1-3.35 1.16 1.16 0 00-1.67 1 18 18 0 00.07 2.64 10.16 10.16 0 00.21 1.1h-.15a4.89 4.89 0 01-.72-5.36c-.29 0-.54-.06-.78-.07l-.46-.94c-.16-.3-5 .22-5.49.48-.25.14-.8 1-.53 1.44-.54.22-1.17.48-1.79.75a11 11 0 00.2 3.55 10.18 10.18 0 00.71 2.1 7.19 7.19 0 01-2.5-4.94 4.63 4.63 0 00-1.25.71 2.17 2.17 0 00-.28 1 9.51 9.51 0 01-2.76-2.67c-.52-.89-3.06-1.79-2.7-1.47a15.23 15.23 0 011.53 5.19 19.46 19.46 0 01-.58 3.78c-.26.41 1.84-.53 2.25-1.06s1.91-1.81 2.47-1.78c0 .38.23.56.78.82a17.53 17.53 0 007.3 1.57h1.56v.21a2.67 2.67 0 00.46 2.19s2.53-1.56 2.57-2.3a2.3 2.3 0 00-.05-.45 12.27 12.27 0 002.16-.68 7.23 7.23 0 003.53-2.78.8.8 0 00.01-.68zm-3.29-.07a.76.76 0 01-.71-.75.81.81 0 01.78-.77.83.83 0 01.77.79.78.78 0 01-.84.73zm26.12-11.51a5.52 5.52 0 00-3.16-2.59.89.89 0 00-1.28.79 13.94 13.94 0 00.05 2 8.28 8.28 0 00.16.84h-.11a3.75 3.75 0 01-.56-4.12l-.6-.06c-.14-.28-.29-.6-.36-.72s-3.87.17-4.22.37c-.19.11-.61.77-.41 1.11l-1.37.57a8.52 8.52 0 00.15 2.74 6.86 6.86 0 00.55 1.61 5.51 5.51 0 01-1.93-3.8 3.45 3.45 0 00-1 .55 1.69 1.69 0 00-.22.75 7.49 7.49 0 01-2.12-2c-.4-.69-2.35-1.38-2.08-1.14a11.85 11.85 0 011.18 4 14.58 14.58 0 01-.45 2.91c-.2.32 1.42-.4 1.74-.81s1.46-1.4 1.89-1.38c0 .3.18.43.61.64a13.42 13.42 0 005.62 1.2h1.19a1 1 0 000 .16 2.05 2.05 0 00.35 1.69s1.95-1.2 2-1.77a1.38 1.38 0 000-.35 9.11 9.11 0 001.66-.52 5.58 5.58 0 002.72-2.14.66.66 0 000-.53zm-2.54-.06a.58.58 0 01-.58-.59.61.61 0 01.6-.59.63.63 0 01.59.61.6.6 0 01-.61.57z" transform="translate(-372.93 -272.45)"/>
</svg>
