<svg id="Calque_1" data-name="Calque 1" xmlns="http://www.w3.org/2000/svg" viewBox="0 0 73.47 73.47">
    <defs>
        <style>
            .cls-1{fill:#028eaa}.cls-2{fill:#fff}
        </style>
    </defs>
    <path class="cls-1" d="M416.55 274.74A36.72 36.72 0 00395.89 345a1.77 1.77 0 01.28-1.06.28.28 0 01.14-.09l-.15-.74a.44.44 0 01-.17-.16c-.47-1.07-.64-1.17-1.79-1-.35 0-.72.16-.81-.37a.65.65 0 01.34-.48c.37-.24.85-.17 1.28-.44a8 8 0 00-2-1.43c-.59-.8-.57-1 .15-1.51a.2.2 0 01.21.11l.74.87c.12.16.26.3.47.23s.19-.3.14-.49-.07-.2-.09-.31c-.05-.28 0-.64.27-.68s.34.34.33.6a1.46 1.46 0 00.06.72 9.9 9.9 0 00.85 1.44c.16.17.23.45.51.49.73-1.48.78-1.5 1.32-.74 0 .28-.1.55-.1.83a13.12 13.12 0 00-.24 1.65.78.78 0 00.26.75.67.67 0 01.06-.12c.34-.4.29-.92.43-1.37a5.83 5.83 0 01.23-.58 2.32 2.32 0 01.22-.41 1.94 1.94 0 00-.74-1.78.6.6 0 01-.18-.59c.23-.32.4-.14.57.06s.25.5.54.6c.24-.15.14-.3 0-.46s-.42-.37-.17-.62.49-.11.7.12c0 .06.12.11.18.17a2 2 0 01-.19 2.51v.11c0 .03 0 .36.18.11s.29-.55.68-.44c.23.41 0 .81 0 1.22-.05.2-.13.38-.2.58s-.11.28 0 .38.36 0 .49-.13a8.2 8.2 0 001.4-1.81l.09-.2a1.23 1.23 0 00.1-.63 1 1 0 01.08-.44.41.41 0 01.49-.18c.46.25.41-.39.72-.4s.46.42.47.77-.31.37-.46.56-.31.37-.18.59.4.11.6 0a5.73 5.73 0 012-.59h.41c.42 0 .85.06.86.55s-.46.54-.85.6-.53-.15-.77.06v.09c.13.29.78.34.49.79s-.74.18-1.12.05a3.08 3.08 0 00-3.51.86c-.17.26-.66.53-.41.79s.57-.24.87-.37.6-.48.91-.69.82-.57 1.24-.1.11.81-.2 1.15a1.54 1.54 0 01-.74.35 4.59 4.59 0 00-.7.27c-.2.07-.42.1-.62.17a2.89 2.89 0 00-.95.5c0 .09-.24.23.05.22s.38-.16.59-.19a6.44 6.44 0 00.87-.1 3.41 3.41 0 001.3-.28 1.73 1.73 0 00.54-.35c.25-.21.54-.4.78-.63a2.15 2.15 0 011.1-.66c.26 0 .59-.13.76.11s0 .55-.25.76a3.1 3.1 0 01-.5.29c-.27.11-.47.25-.4.59l.09.18a.51.51 0 01.11.49.72.72 0 01-.44.24c-.17.05-.28.13-.21.33s.37.49.52.75a1.32 1.32 0 01.12.31 36.63 36.63 0 0017.19-2.72c-.38-.46-.68-1-1-1.46a8.65 8.65 0 00-2.88-2.86 1.72 1.72 0 00-2.1.34 6.49 6.49 0 00-1 1.25c-.17.23-.33.51-.65.33a.55.55 0 01-.19-.73c.06-.16.1-.32.15-.48s.05-.56.32-.73a1.39 1.39 0 01.5 0 .67.67 0 10-.09-1.33 2.64 2.64 0 01-.56.11 1.79 1.79 0 00-.63-.07c-1.1 0-2.12.59-3.23.54a1 1 0 01-1-1c0-.48.54-.75 1.18-.64.38.06.76.11 1.13.2s.59.08.74-.28-.12-.51-.37-.71-.65-.27-.88-.59a.6.6 0 01-.05-.81c.24-.29.52-.13.78.06.45.33.67.86 1.14 1.18a8 8 0 003.76 1.21c.57.07.64-.12.46-.69s-.56-.69-.73-1.11-.36-.75.12-1 .67.12.88.42c.37.56.77 1.12 1.08 1.71a10.42 10.42 0 001.63 1.93c.22.24.56.45.84.24s.27-.56.13-.92a18.5 18.5 0 00-2.12-3.88 2.32 2.32 0 00-2.14-.86 1.91 1.91 0 01-.95-.27.51.51 0 01-.25-.66c.11-.26.35-.26.59-.19s.67.14 1 .23.44.05.48-.23-.1-.39-.36-.41l-.57-.06c-.31-.05-.6-.14-.61-.52s.24-.53.55-.61a4 4 0 01.5-.06h.09a.59.59 0 01.2.32c0-.1-.08-.23 0-.37a.44.44 0 01.41-.19.19.19 0 01.15.11c-.19.2-.19.2.3.5a4.85 4.85 0 012 3 1 1 0 00.57.81 33 33 0 01-.54-3.68c.18-.26-.15-.63.18-.87a.28.28 0 01.18-.06c.27 0 .49-.24.77-.23-.25.4.12.72.21 1 .26.93.18 1.88.37 2.81A15.29 15.29 0 00424 336a.67.67 0 00.77.52.68.68 0 00.61-.71 14.41 14.41 0 00-.44-4.62 1 1 0 00-1.38-.76.32.32 0 01-.3 0c.14-.18.39-.23.53-.41-.14-.05-.25-.06-.3.12s-.1.17-.23.1c-.28-.6-.5-1.22-.75-1.83 0-.13 0-.24.14-.18a12.4 12.4 0 011.25.54c.19.17.25.43.4.62l.16.21c.28.26.48.07.68-.13.13-.58-.21-1.07-.34-1.6 0-.2-.06-.3.09-.42a.47.47 0 01.57 0 2.31 2.31 0 01.42.93 2.6 2.6 0 010 .88 1.76 1.76 0 00.1.94c.09.25.21.48.51.5s.38-.23.46-.44a9.54 9.54 0 00.7-1.84c.15-.23.41-.11.61-.19a.36.36 0 00.24-.28v-.49c0-.17.14-.25.33-.16a1.21 1.21 0 01.42.7.22.22 0 010 .16 3.63 3.63 0 00-.09.56c0 .47.31.64.72.41a5.84 5.84 0 01.53-.33c.26-.1.61-.36.74.09a.59.59 0 01-.49.7 6 6 0 00-3.09 2.1 5.21 5.21 0 00-1 4.42c0 .07.05.12.05.19.05.4 0 .88.6.88s.71-.37.79-.84c.18-1.14.41-2.29.55-3.44.06-.54.28-.83.79-.87s.85.46.92 1a2.82 2.82 0 01-.59 1.84c-.57 1-1.06 2-1.53 3a3.32 3.32 0 00-.21 1.12.42.42 0 00.35.46c.21.06.44.06.54-.19a13.57 13.57 0 012.33-3.46 5.27 5.27 0 00.86-2.8 5.16 5.16 0 011.14-3.33c.09-.08.16-.17.29-.18s.35.07.35.31c-.1.73-.21 1.46-.32 2.2.2.2.44-.15.64 0a.35.35 0 01-.21.22 1.71 1.71 0 00-1 1.18 2 2 0 01-.18.23.68.68 0 00-.09.22c.08 0 .11-.13.22-.09a.78.78 0 01.3.24c.72.79 1.22.82 2 .12.13-.11.24-.25.43-.25a.21.21 0 01.08.25c-.33.28-.53.7-1 .86.15.23.34.11.49.12a5.59 5.59 0 00.57 0 1.32 1.32 0 01.64.15 36.71 36.71 0 00-19.77-60.46zm-14.91 65c-.13.19-.16.45-.4.56.23-.31-.13-.63 0-.95.25-.14.31.11.43.23a.41.41 0 00-.03.14z" transform="translate(-372.25 -273.95)"/>
    <path class="cls-2" d="M406.61 291.81c-.36.88 3.41 6.92 2.43 8.05s-5.6 4.64-7.43 3.55-3.53-4.15-4.49-4.87-.82-1.11-1.8-.08-.1 1.59 1.08 3.31 4.42 11.34 5.68 13.43a25.86 25.86 0 004.62 5.29c.44.18 9.93-3.47 11.07-6.84s-1.48-8.8-4.4-11.82-4.66-9.58-5.62-10.31-.75-.58-1.14.29zm-6 12.74c0 .39-1.74 1.15-1.69.34s-2.41-3.89-2.42-4.43a.76.76 0 01.31-.79c.48-.26 3.81 4.48 3.84 4.88zM386.08 289c-.26.32-.28 2.63-1 3.88s-1.12 3.26-.46 4.28 4.11 1.42 4.23 1.32a8.64 8.64 0 001.09-2.13c.24-.8.5-4.26.74-4.92s.46-1 .08-1.19-.34-.14-.59.18a12.57 12.57 0 01-1.07 2c-.51.51-2.34-.26-2.76-.55s.32-2.61.13-2.86-.14-.34-.39-.01zm4.29 1.77a.26.26 0 01.17.23c0 .18-.52 1.42-.43 1.68s-.56.16-.59 0 .68-1.97.85-1.92zm1.96 26.87c.26 1.06.56 2.12.77 3.19s-.1 1.47-1.1 1.77a28 28 0 01-3 .72c-.56.11-1.11-.36-1.35-1.05-.47-1.38-.95-2.76-1.4-4.14-.28-.86-.54-1.74-.76-2.61a1.51 1.51 0 010-.76.91.91 0 00-.37-1.1 1.29 1.29 0 01-.54-.89c-.13-.56-.33-1.11-.51-1.65a3.68 3.68 0 01.19-2.82c.1-.22.24-.43.32-.66a.68.68 0 00-.2-.82 2.77 2.77 0 01-.49-1.2c0-.08.12-.28.22-.33a14.25 14.25 0 011.48-.59.49.49 0 01.67.37c.11.38.13.78.26 1.16a1.52 1.52 0 00.47.8c2.25 1.29 1.94 1.41 2.54 3.3a3.26 3.26 0 01.35 2c-.05.18.15.5.32.67a2.86 2.86 0 01.82 1.48 12.15 12.15 0 00.55 1.64c.19.53.41 1.05.61 1.57zm-6.55-2.43l4.72-1.57c-.14-.16-.27-.3-.41-.44a1.41 1.41 0 01-.43-1.09 3.66 3.66 0 00-.09-1c-.1-.43-.32-.84-.4-1.27a3 3 0 00-1.81-2.26 1.74 1.74 0 01-1-1 .43.43 0 00-.36-.17 4.14 4.14 0 00-.88.35c-.1.05-.16.23-.19.36a6.23 6.23 0 01-.22.9 3.73 3.73 0 00-.28 3.16c.22.56.34 1.16.52 1.73a.85.85 0 00.26.44 1.25 1.25 0 01.54 1.67s.01.07.03.19zm.7.14c-.74.15-.75.16-.51.9.38 1.19.78 2.38 1.17 3.57.27.81.23.66.93.47a4.9 4.9 0 00.61-.21 13.7 13.7 0 013.31-1c.29-.05.36-.18.27-.45-.48-1.42-1-2.84-1.43-4.26-.1-.28-.24-.35-.52-.25zm2.62 4.81v.07l-1.31.43c-.19.07-.33.14-.23.4a8.13 8.13 0 01.31 1c.18.65.65 1.08 1.17 1 .7-.12 1.39-.25 2.07-.42a5.19 5.19 0 001.27-.51.86.86 0 00.41-.63 14.71 14.71 0 00-.24-1.87c0-.29-.19-.38-.49-.29-.97.27-1.96.54-2.96.82zM384.2 306c.22.68.21.67.79.43.25-.1.52-.18.77-.27.6-.21.62-.23.37-.82-.07-.16-.28-.41-.39-.39a5.6 5.6 0 00-1.2.32c-.39.14-.54.4-.34.73z" transform="translate(-372.25 -273.95)"/>
    <path class="cls-2" d="M385.51 305.48v-.36l.26.45v-.44h.17a1.77 1.77 0 01.14.69c0 .13-.3.21-.47.31l-.42-.77.14-.08zm16.96-18.85c-.28.48-.53 1-.83 1.45s-.54.53-1 .3a15.65 15.65 0 01-1.37-.79.68.68 0 01-.14-.87c.31-.68.61-1.36.93-2 .2-.42.41-.83.63-1.24a.81.81 0 01.28-.27.47.47 0 00.25-.54.65.65 0 01.11-.52c.14-.25.26-.53.38-.79a1.91 1.91 0 011.06-1 3.62 3.62 0 00.35-.13.34.34 0 00.21-.38 1.42 1.42 0 01.24-.61.22.22 0 01.2-.05c.26.09.51.18.76.29a.26.26 0 01.12.38c-.1.18-.23.34-.31.52a.83.83 0 00-.11.47c.39 1.26.23 1.2-.2 2.12-.15.3-.23.65-.56.85-.08.05-.12.24-.12.36a1.46 1.46 0 01-.21.84 6.66 6.66 0 00-.37.81c-.11.26-.21.53-.32.8zm-1.6-3.2l2.32 1.07v-.31a.7.7 0 01.22-.56 1.87 1.87 0 00.32-.42c.12-.2.18-.43.3-.62a1.51 1.51 0 00.12-1.47.92.92 0 010-.71.2.2 0 00-.07-.19 1.92 1.92 0 00-.45-.18.32.32 0 00-.2.07 4.4 4.4 0 01-.39.26 1.86 1.86 0 00-1.21 1.08c-.12.28-.28.55-.42.83a.43.43 0 00-.05.25.63.63 0 01-.39.81s-.06.04-.1.09zm.22.29c-.33-.2-.34-.2-.51.16l-.81 1.74c-.18.4-.15.33.18.5l.3.14a7.15 7.15 0 011.6.77c.13.08.2.06.26-.08.31-.69.63-1.39.95-2.08.07-.14 0-.22-.1-.28zm-.71 2.72l-.64-.3c-.1 0-.18-.06-.23.07s-.15.32-.23.48a.59.59 0 00.09.78c.3.19.6.39.92.56a2.46 2.46 0 00.65.26.46.46 0 00.38-.09 7.48 7.48 0 00.56-.79c.09-.12.06-.21-.08-.28zm3.12-7c-.15.32-.15.32.15.43l.38.17c.3.13.31.13.42-.18v-.28a3.22 3.22 0 00-.55-.3c-.21-.08-.36-.04-.4.17zm22.97 14.35a2 2 0 01.14-.6.38.38 0 01.11-.11 1.54 1.54 0 011-.25h.6c0-.07.07-.14.11-.2a.55.55 0 01.34-.24 1.37 1.37 0 01.57 0c.22 0 .44.05.65.1a1.46 1.46 0 01.44.2c.21.15.41.32.61.49a.6.6 0 01.19.38.16.16 0 00.11.13l1.23.46c.2.09.39.2.59.3l.5.26a3.69 3.69 0 01.79.57l.61.58a.76.76 0 01.21.53.59.59 0 01-.13.33.11.11 0 000 .14l.24.45a1.43 1.43 0 01.13 1 4.36 4.36 0 01-.32.92c-.11.27-.22.55-.32.83l-1.41 3.77c-.39 1.05-.78 2.11-1.16 3.16-.11.29-.22.59-.34.87a3.34 3.34 0 01-1.63 1.72 5.33 5.33 0 01-1 .37 3.61 3.61 0 01-1.31 0 9.2 9.2 0 01-1.48-.39l-1.84-.68a10 10 0 01-1.28-.61 3.23 3.23 0 01-1.31-1.43c-.17-.35-.31-.71-.45-1.07a1.68 1.68 0 010-.45 3.68 3.68 0 01.19-1.23c.1-.33.21-.67.33-1 .26-.69.52-1.38.79-2.06.17-.45.37-.89.56-1.33a18.63 18.63 0 00.78-2c.11-.35.21-.7.31-1.05a15 15 0 01.53-1.6 3.57 3.57 0 01.19-.45 1.79 1.79 0 01.88-.67 2.24 2.24 0 01.25-.14zm.35 14.47c.31.09.62.19.93.26a4.42 4.42 0 001.36.11h.34c.17 0 .34.05.52.05a1.4 1.4 0 001.21-.48 2.39 2.39 0 00.61-1.61 1.27 1.27 0 01.08-.51l.19-.35.51-.89a4.34 4.34 0 00.44-1 1.38 1.38 0 01.33-.66.79.79 0 00.24-.69.84.84 0 01.11-.43c.09-.19.19-.38.26-.57s.18-.58.27-.86a8.73 8.73 0 01.62-1.48 2.8 2.8 0 00.29-.69 1.44 1.44 0 00-.34-1.33.23.23 0 00-.25-.08 1.27 1.27 0 01-.34 0h-.79a9.68 9.68 0 01-2-.31 2.64 2.64 0 00-.3-.07 4.3 4.3 0 01-1.45-.41 2.3 2.3 0 00-.61-.2.94.94 0 00-1 .38c-.09.11-.16.24-.25.35a1.36 1.36 0 01-.43.36.75.75 0 00-.42.48c0 .12-.08.24-.11.37a1.7 1.7 0 01-.36.69 3.72 3.72 0 00-.61 1c-.1.24-.21.48-.3.73s-.29.82-.43 1.23c-.08.21-.14.43-.2.65l-.08.24a2.4 2.4 0 01-.12.38 3.82 3.82 0 00-.31 1c0 .13 0 .27-.06.4a1.11 1.11 0 01-.21.42 1.4 1.4 0 00-.28.73 1.76 1.76 0 00.5 1.34 5.7 5.7 0 001.08.88 3.2 3.2 0 00.71.37l.18.06zm4.92-13.6v.09l.06.39a.29.29 0 01-.21.34 1.59 1.59 0 01-.37.06 1.72 1.72 0 01-1.34-.65.33.33 0 00-.1-.06.9.9 0 01-.34-.2l-.48-.4a1.38 1.38 0 00-.5-.32c-.17-.05-.34-.12-.52-.16a1.24 1.24 0 00-.33 0 .14.14 0 00-.14.1.17.17 0 000 .16 3.21 3.21 0 00.81.66 8.75 8.75 0 001.38.75c.21.09.42.18.64.25l1 .32c.31.1.49.13.74.17s.7.11 1.05.17a2.24 2.24 0 00.93 0h.08a.23.23 0 000-.09 3.54 3.54 0 00-.9-.78 6.72 6.72 0 00-.75-.4c-.19-.19-.45-.29-.71-.4zm-4.53-1a.13.13 0 000 .07.39.39 0 00.12.43.38.38 0 01.12.16.47.47 0 00.17.2s.09.05.11.09a1.11 1.11 0 00.3.31 3.05 3.05 0 00.95.53 5.69 5.69 0 01.87.4 4.07 4.07 0 00.88.39l.29.08c.18.06.35.15.53.2a3.31 3.31 0 00.71.14 5.51 5.51 0 01.71.07 1.32 1.32 0 00.44 0 .86.86 0 01.22 0h.6a.89.89 0 00.65-.18.5.5 0 00.14-.15v-.07h-.05a1 1 0 01-.54.13h-.82a7.4 7.4 0 01-1.23-.16l-.67-.15-.53-.14-.22-.1-.8-.25a6 6 0 01-.93-.41 11.51 11.51 0 01-1.18-.67 1.86 1.86 0 01-.74-.85zm3.91 1.7h.13a.34.34 0 00.43-.36.66.66 0 00-.15-.4c-.1-.14-.21-.26-.31-.4a.48.48 0 01-.07-.2v-.36a.54.54 0 00-.16-.4l-.37-.34a1.32 1.32 0 00-.57-.31c-.25 0-.51-.1-.77-.13a.85.85 0 00-.52.08.42.42 0 00-.22.6 1.56 1.56 0 00.35.46 3.32 3.32 0 00.58.4 2.17 2.17 0 01.55.45l.24.27a2.33 2.33 0 00.86.61z" transform="translate(-372.25 -273.95)"/>
    <path class="cls-2" d="M430 292.72a2.17 2.17 0 01.74.45.72.72 0 01.11.15 1.2 1.2 0 01.13.55.37.37 0 01-.43.39 1.19 1.19 0 01-.48-.13l-.38-.18a2.18 2.18 0 01-.87-.69 1 1 0 01-.13-.25c0-.1 0-.16.1-.22a1.15 1.15 0 011-.13zm-.86.28l1.4.39c-.16-.39-.9-.58-1.42-.39zm2.2 2.16a.3.3 0 00-.13-.21.18.18 0 00-.19 0s-.06.06 0 .1a.89.89 0 00.14.13.47.47 0 01-.3-.18c-.06-.08 0-.13.05-.17a.45.45 0 01.51.18c.03.06.01.11-.08.15z" transform="translate(-372.25 -273.95)"/>
    <path class="cls-1" d="M402.75 346.39a2.55 2.55 0 00-.59.37c.74.14 1.48.27 2.21.36l-.09-.14a1.16 1.16 0 00-1.53-.59zm28.53-8.3a7.86 7.86 0 00-.22 1.94 38.27 38.27 0 004-3.51 3 3 0 01-.71-.19c-1.69-.67-2.67.2-3.07 1.76z" transform="translate(-372.25 -273.95)"/>
    <path class="cls-2" d="M405.32 346.23c-.07-.2 0-.28.21-.33a.72.72 0 00.44-.24.51.51 0 00-.11-.49l-.09-.18c-.07-.34.13-.48.4-.59a3.1 3.1 0 00.5-.29c.23-.21.46-.46.25-.76s-.5-.15-.76-.11a2.15 2.15 0 00-1.1.66c-.24.23-.53.42-.78.63a1.73 1.73 0 01-.54.35 3.41 3.41 0 01-1.3.28 6.44 6.44 0 01-.87.1c-.21 0-.39.18-.59.19s-.09-.13-.05-.22a2.89 2.89 0 01.95-.5c.2-.07.42-.1.62-.17a4.59 4.59 0 01.7-.27 1.54 1.54 0 00.74-.35c.31-.34.58-.73.2-1.15s-.85-.15-1.24.1-.6.47-.91.69-.55.69-.87.37.24-.53.41-.79a3.08 3.08 0 013.51-.86c.38.13.84.4 1.12-.05s-.36-.5-.49-.79v-.09c.24-.21.52 0 .77-.06s.85-.13.85-.6-.44-.56-.86-.55h-.41a5.73 5.73 0 00-2 .59c-.2.08-.44.22-.6 0s0-.42.18-.59.38-.31.46-.56-.1-.65-.47-.77-.26.65-.72.4a.41.41 0 00-.49.18 1 1 0 00-.08.44 1.23 1.23 0 01-.1.63l-.09.2a8.2 8.2 0 01-1.4 1.81c-.13.12-.29.29-.49.13s0-.25 0-.38.15-.38.2-.58c0-.41.25-.81 0-1.22-.39-.11-.49.22-.68.44s-.14 0-.18-.11 0-.07 0-.11a2 2 0 00.19-2.51c-.06-.06-.13-.11-.18-.17-.21-.23-.45-.37-.7-.12s0 .43.17.62.23.31 0 .46c-.29-.1-.36-.4-.54-.6s-.34-.38-.57-.06a.6.6 0 00.18.59 1.94 1.94 0 01.74 1.78 2.32 2.32 0 00-.22.41 5.83 5.83 0 00-.23.58c-.14.45-.09 1-.43 1.37a.67.67 0 00-.06.12.78.78 0 01-.26-.75 13.12 13.12 0 01.24-1.65c0-.28.12-.55.1-.83-.54-.76-.59-.74-1.32.74-.28 0-.35-.32-.51-.49a9.9 9.9 0 01-.85-1.44 1.46 1.46 0 01-.06-.72c0-.26.05-.64-.33-.6s-.32.4-.27.68c0 .11.07.21.09.31s.11.4-.14.49-.35-.07-.47-.23l-.74-.87a.2.2 0 00-.21-.11c-.72.49-.74.71-.15 1.51a8 8 0 012 1.43c-.43.27-.91.2-1.28.44a.65.65 0 00-.34.48c.09.53.46.41.81.37 1.15-.13 1.32 0 1.79 1a.44.44 0 00.17.16l.15.74a.28.28 0 00-.14.09 1.77 1.77 0 00-.28 1.06 37.57 37.57 0 005.53 1.65l.74.13a2.55 2.55 0 01.59-.37 1.16 1.16 0 011.53.59l.09.14c.53.07 1.06.13 1.59.17a1.32 1.32 0 00-.12-.31c-.17-.22-.39-.44-.54-.71z" transform="translate(-372.25 -273.95)"/>
    <path class="cls-2" d="M401.23 339.33c-.12.32.24.64 0 .95.24-.11.27-.37.4-.56a.41.41 0 010-.16c-.09-.12-.15-.37-.4-.23zm33.88-4.25c-.15 0-.34.11-.49-.12.44-.16.64-.58 1-.86a.21.21 0 00-.08-.25c-.19 0-.3.14-.43.25-.81.7-1.31.67-2-.12a.78.78 0 00-.3-.24c-.11 0-.14.08-.22.09a.68.68 0 01.09-.22 2 2 0 00.18-.23 1.71 1.71 0 011-1.18.35.35 0 00.21-.22c-.2-.19-.44.16-.64 0 .11-.74.22-1.47.32-2.2 0-.24-.15-.3-.35-.31s-.2.1-.29.18a5.16 5.16 0 00-1.14 3.33 5.27 5.27 0 01-.86 2.8 13.57 13.57 0 00-2.33 3.46c-.1.25-.33.25-.54.19a.42.42 0 01-.35-.46 3.32 3.32 0 01.21-1.12c.47-1 1-2 1.53-3a2.82 2.82 0 00.59-1.84c-.07-.5-.5-1-.92-1s-.73.33-.79.87c-.14 1.15-.37 2.3-.55 3.44-.08.47-.29.85-.79.84s-.55-.48-.6-.88c0-.07 0-.12-.05-.19a5.21 5.21 0 011-4.42 6 6 0 013.09-2.1.59.59 0 00.49-.7c-.13-.45-.48-.19-.74-.09a5.84 5.84 0 00-.53.33c-.41.23-.72.06-.72-.41a3.63 3.63 0 01.09-.56.22.22 0 000-.16 1.21 1.21 0 00-.42-.7c-.19-.09-.27 0-.33.16s0 .33 0 .49a.36.36 0 01-.24.28c-.2.08-.46 0-.61.19a9.54 9.54 0 01-.7 1.84c-.08.21-.17.46-.46.44s-.42-.25-.51-.5a1.76 1.76 0 01-.1-.94 2.6 2.6 0 000-.88 2.31 2.31 0 00-.42-.93.47.47 0 00-.57 0c-.15.12-.14.22-.09.42.13.53.47 1 .34 1.6-.2.2-.4.39-.68.13l-.16-.21c-.15-.19-.21-.45-.4-.62a12.4 12.4 0 00-1.25-.54c-.12-.06-.18.05-.14.18.25.61.47 1.23.75 1.83.13.07.2 0 .23-.1s.16-.17.3-.12c-.14.18-.39.23-.53.41a.32.32 0 00.3 0 1 1 0 011.38.76 14.41 14.41 0 01.44 4.62.68.68 0 01-.61.71.67.67 0 01-.72-.5 15.29 15.29 0 01-.41-1.65c-.19-.93-.11-1.88-.37-2.81-.09-.32-.46-.64-.21-1-.28 0-.5.2-.77.23a.28.28 0 00-.18.06c-.33.24 0 .61-.18.87a33 33 0 00.54 3.68 1 1 0 01-.57-.81 4.85 4.85 0 00-2-3c-.49-.3-.49-.3-.3-.5a.19.19 0 00-.15-.11.44.44 0 00-.41.19c-.08.14 0 .27 0 .37a.59.59 0 00-.2-.32h-.09a4 4 0 00-.5.06c-.31.08-.55.25-.55.61s.3.47.61.52l.57.06c.26 0 .4.16.36.41s-.23.3-.48.23-.66-.14-1-.23-.48-.07-.59.19a.51.51 0 00.25.66 1.91 1.91 0 00.95.27 2.32 2.32 0 012.14.86 18.5 18.5 0 012.12 3.88c.14.36.16.72-.13.92s-.62 0-.84-.24a10.42 10.42 0 01-1.63-1.93c-.31-.59-.71-1.15-1.08-1.71-.21-.3-.48-.62-.88-.42s-.27.64-.12 1 .58.67.73 1.11.11.76-.46.69a8 8 0 01-3.76-1.21c-.47-.32-.69-.85-1.14-1.18-.26-.19-.54-.35-.78-.06a.6.6 0 00.05.81c.23.32.6.37.88.59s.51.34.37.71-.42.36-.74.28-.75-.14-1.13-.2c-.64-.11-1.14.16-1.18.64a1 1 0 001 1c1.11.05 2.13-.49 3.23-.54a1.79 1.79 0 01.69.07 2.64 2.64 0 00.56-.11.67.67 0 11.09 1.33 1.39 1.39 0 00-.5 0c-.27.17-.22.48-.32.73s-.09.32-.15.48a.55.55 0 00.19.73c.32.18.48-.1.65-.33a6.49 6.49 0 011-1.25 1.72 1.72 0 012.1-.34 8.65 8.65 0 012.88 2.86c.33.49.63 1 1 1.46a37.64 37.64 0 007.91-4.54 7.86 7.86 0 01.22-1.94c.4-1.56 1.38-2.43 3.09-1.76a3 3 0 00.71.19c.42-.43.84-.87 1.24-1.32a1.32 1.32 0 00-.64-.15 5.59 5.59 0 01-.58-.01zM416 283.72c0 .29 1.2 1.47 1.48 2.45s1.11 2.21 2 2.39 2.78-1.38 2.8-1.5a6.56 6.56 0 00-.55-1.62c-.28-.53-1.92-2.39-2.13-2.85s-.26-.71-.57-.64-.24.1-.2.39a9.09 9.09 0 01.47 1.55c0 .52-1.3 1.06-1.66 1.13s-1.17-1.47-1.4-1.5-.24-.09-.24.2zm3.06-1.3a.17.17 0 01.2 0c.12.06.46 1 .64 1.05s-.2.37-.28.31-.68-1.29-.57-1.36zm-19.68 48.04a.91.91 0 01-.11-.16v-.05a.43.43 0 01.16-.29l.12-.12a.14.14 0 010-.07.15.15 0 010-.13.41.41 0 01.12-.14l.17-.14.15-.06h.25a.16.16 0 01.13 0h.06l.38-.19.2-.08.18-.06a1.55 1.55 0 01.31-.06h.27a.29.29 0 01.18.07.31.31 0 01.05.1h.16a.49.49 0 01.26.19 1.91 1.91 0 01.15.28l.12.26c.2.4.4.79.59 1.18s.33.65.5 1l.13.27a1.08 1.08 0 01.05.77 2.33 2.33 0 01-.14.33 1.06 1.06 0 01-.29.31 3 3 0 01-.42.27l-.57.28a2.26 2.26 0 01-.43.17 1 1 0 01-.63 0l-.36-.13a.48.48 0 01-.11-.09 1.11 1.11 0 01-.25-.32c-.06-.1-.12-.2-.17-.3s-.21-.43-.32-.65l-.19-.43a6.25 6.25 0 00-.31-.64l-.18-.3q-.15-.24-.27-.48a.94.94 0 01-.06-.15.64.64 0 010-.36.54.54 0 00.12-.08zm3.53 3.14a2.26 2.26 0 00.26-.16 1.18 1.18 0 00.33-.3l.08-.08.13-.11a.46.46 0 00.15-.4.73.73 0 00-.25-.5.36.36 0 01-.1-.14.56.56 0 010-.12c0-.11-.07-.21-.1-.32a1.66 1.66 0 00-.15-.33.5.5 0 01-.09-.23.25.25 0 00-.11-.21.32.32 0 01-.08-.12.77.77 0 00-.08-.19c0-.09-.09-.17-.14-.26a2.18 2.18 0 01-.21-.47 1 1 0 00-.11-.23.48.48 0 00-.39-.21.07.07 0 00-.07 0 .31.31 0 01-.07.09l-.18.19a2.88 2.88 0 01-.52.4l-.08.06a1.64 1.64 0 01-.42.26.5.5 0 00-.19.1.3.3 0 00-.12.31.58.58 0 000 .14.55.55 0 010 .18.25.25 0 000 .21l.06.11a.49.49 0 01.08.24 1.61 1.61 0 00.1.36c0 .08.07.16.11.23l.19.38.12.19a.25.25 0 000 .07s.05.08.06.11a1.11 1.11 0 00.17.3.76.76 0 01.08.11.25.25 0 01.06.14.38.38 0 00.11.23.58.58 0 00.43.18 2.32 2.32 0 00.45-.06 2.5 2.5 0 00.25-.09zm-2.15-4.2l.1.07a.1.1 0 010 .13.27.27 0 01-.06.1.59.59 0 01-.45.18.28.28 0 01-.12 0h-.21a.37.37 0 00-.18 0l-.16.09-.08.07v.06h.05a1 1 0 00.34 0 3.9 3.9 0 00.48-.17l.21-.09.3-.18.21-.14.27-.21a.73.73 0 00.21-.22 1.72 1.72 0 00-.39 0l-.26.09zm-1.25.85a.11.11 0 00.13.06h.15a.38.38 0 00.15 0 .79.79 0 00.33-.1 1.48 1.48 0 01.29-.12 1.08 1.08 0 00.29-.13l.08-.05.17-.08a1.15 1.15 0 00.19-.14l.18-.15.1-.1v-.06l.14-.13a.33.33 0 00.11-.2v-.07a.32.32 0 01-.09.16 1.7 1.7 0 01-.19.19 1.94 1.94 0 01-.31.26l-.18.13-.15.09h-.08l-.23.14-.31.13a2.58 2.58 0 01-.42.13.56.56 0 01-.36 0zm1.27-.55a.11.11 0 000-.18.21.21 0 00-.13-.05h-.23l-.09-.08a.15.15 0 00-.13-.05h-.16a.37.37 0 00-.2.07l-.2.15a.31.31 0 00-.1.15.13.13 0 00.1.18.55.55 0 00.18 0l.23-.05a.58.58 0 01.23 0h.11a.8.8 0 00.39-.14z" transform="translate(-372.25 -273.95)"/>
    <path class="cls-2" d="M399.91 329.39a.77.77 0 01.27-.08h.06a.42.42 0 01.16.09.12.12 0 010 .19.67.67 0 01-.14.09l-.13.05a.72.72 0 01-.36.05h-.08a.08.08 0 010-.07.41.41 0 01.19-.27zm-.13.27l.41-.25c-.12-.05-.34.08-.41.25zm1.01-.05a.11.11 0 00-.08 0h.06a.23.23 0 01-.11 0v-.05a.14.14 0 01.16-.08s-.02.1-.03.13zm-6.33-3.19a2.55 2.55 0 00-1.47-1.2.42.42 0 00-.59.37 5.91 5.91 0 000 .94 2 2 0 00.07.4h-.05a1.73 1.73 0 01-.26-1.91h-.28c-.06-.13-.14-.27-.16-.33a6.79 6.79 0 00-2 .17c-.09.05-.29.36-.19.52l-.64.26a4.06 4.06 0 00.07 1.27 3.16 3.16 0 00.25.75 2.58 2.58 0 01-.89-1.76 1.62 1.62 0 00-.45.25.91.91 0 00-.1.35 3.59 3.59 0 01-1-1c-.19-.32-1.09-.64-1-.53a5.36 5.36 0 01.55 1.85 6.88 6.88 0 01-.21 1.35c-.09.15.66-.18.81-.37s.68-.65.88-.64c0 .14.08.2.28.29a6 6 0 002.6.56 5.23 5.23 0 00.56 0v.07a1 1 0 00.16.78s.9-.55.92-.82a1 1 0 000-.16 3.61 3.61 0 00.77-.24 2.57 2.57 0 001.26-1 .32.32 0 00.11-.22zm-1.17 0a.28.28 0 01-.28-.28.28.28 0 01.56 0 .28.28 0 01-.28.26zm49.38-11.84a5.35 5.35 0 00-3.08-2.52.87.87 0 00-1.26.76 14.7 14.7 0 00.06 2 6.07 6.07 0 00.16.83h-.12a3.66 3.66 0 01-.54-4l-.58-.06-.35-.71a14.69 14.69 0 00-4.12.36c-.19.11-.6.76-.4 1.09-.41.16-.88.36-1.34.56a8.35 8.35 0 00.15 2.66 6.85 6.85 0 00.53 1.58 5.41 5.41 0 01-1.88-3.71 3.5 3.5 0 00-.93.54 1.48 1.48 0 00-.21.73 7.27 7.27 0 01-2.08-2c-.39-.68-2.29-1.35-2-1.11a11.58 11.58 0 011.14 3.9 14.74 14.74 0 01-.44 2.83c-.2.32 1.38-.39 1.69-.79s1.43-1.36 1.85-1.34c0 .29.18.42.59.62A13.11 13.11 0 00435 318h1.17v.15a2 2 0 00.35 1.64s1.9-1.16 1.92-1.72a1 1 0 000-.34 8.56 8.56 0 001.63-.51 5.49 5.49 0 002.65-2.08.64.64 0 00-.05-.56zm-2.47-.06a.58.58 0 01-.58-.58.6.6 0 01.59-.57.62.62 0 01.58.59.59.59 0 01-.59.56zm-28.9-21.21a3.8 3.8 0 001.83 1.45 6.69 6.69 0 001.13.35 1 1 0 000 .24c0 .38 1.34 1.19 1.34 1.19a1.43 1.43 0 00.24-1.14.43.43 0 010-.11h.81a9 9 0 003.8-.82c.28-.13.39-.22.4-.42.3 0 1.07.65 1.29.93s1.31.76 1.17.54a10.08 10.08 0 01-.3-2 7.89 7.89 0 01.8-2.71c.18-.16-1.14.31-1.41.77a4.79 4.79 0 01-1.44 1.39 1.11 1.11 0 00-.14-.51 2.25 2.25 0 00-.65-.37 3.72 3.72 0 01-1.31 2.57 4.35 4.35 0 00.37-1.09 5.66 5.66 0 00.11-1.85l-.93-.39c.14-.23-.15-.67-.28-.75a9.92 9.92 0 00-2.85-.25c-.05.08-.15.3-.25.49h-.4a2.55 2.55 0 01-.38 2.79h-.08a3.82 3.82 0 00.11-.57 9 9 0 000-1.37.61.61 0 00-.87-.54 3.7 3.7 0 00-2.13 1.75.42.42 0 00.02.43zm1.27-.79a.41.41 0 01.81 0 .41.41 0 01-.81 0zm4.43 30.07a2.07 2.07 0 001 .8 3.45 3.45 0 00.62.2.51.51 0 000 .13c0 .21.74.65.74.65a.72.72 0 00.13-.62.11.11 0 000-.06h.45a4.89 4.89 0 002.09-.45c.16-.08.22-.13.23-.24.16 0 .59.37.71.52s.72.42.64.3a5.56 5.56 0 01-.16-1.09 4.2 4.2 0 01.44-1.49c.1-.09-.63.17-.78.43a2.83 2.83 0 01-.79.76.78.78 0 00-.08-.28 1.69 1.69 0 00-.36-.2 2.09 2.09 0 01-.72 1.42 2.6 2.6 0 00.2-.61 3 3 0 00.06-1l-.51-.21c.08-.13-.08-.37-.15-.41a5.19 5.19 0 00-1.58-.14l-.13.27h-.22a1.42 1.42 0 01-.21 1.54h-.05a1.2 1.2 0 00.06-.32 4.83 4.83 0 000-.76.34.34 0 00-.48-.29 2.09 2.09 0 00-1.18 1 .23.23 0 00.03.15zm.71-.43a.24.24 0 01.22-.23.23.23 0 01.22.22.22.22 0 01-.44 0zm-10.02 4.54a1.78 1.78 0 00.87.68 2.52 2.52 0 00.53.17.41.41 0 000 .11c0 .18.63.57.63.57a.67.67 0 00.12-.54.43.43 0 000-.05h.38a4.33 4.33 0 001.81-.39c.13-.06.19-.11.19-.2s.51.31.61.44.62.36.56.26a5 5 0 01-.15-.93 4 4 0 01.37-1.29c.09-.07-.53.15-.66.37a2.28 2.28 0 01-.69.66.38.38 0 00-.07-.24 1 1 0 00-.3-.18 1.79 1.79 0 01-.62 1.22 2.07 2.07 0 00.17-.52 2.64 2.64 0 00.05-.88l-.44-.18c.07-.11-.07-.32-.13-.36a4.65 4.65 0 00-1.36-.11s-.07.14-.11.23h-.19a1.22 1.22 0 01-.18 1.32 1.28 1.28 0 00.05-.27 3.56 3.56 0 000-.65.29.29 0 00-.41-.26 1.83 1.83 0 00-1 .83.23.23 0 00-.03.19zm.6-.38a.2.2 0 01.19-.19.18.18 0 01.19.19.18.18 0 01-.18.19.2.2 0 01-.2-.19zM379.72 296a1.78 1.78 0 00.87.68 2.52 2.52 0 00.53.17.41.41 0 000 .11c0 .19.63.57.63.57a.67.67 0 00.12-.54.11.11 0 010-.05h.38a4.18 4.18 0 001.81-.39c.13-.06.18-.1.19-.2s.51.31.61.44.62.36.56.26a5 5 0 01-.15-.93 3.74 3.74 0 01.38-1.29c.09-.07-.54.15-.66.37a2.41 2.41 0 01-.69.66.5.5 0 00-.07-.24 1 1 0 00-.3-.18 1.79 1.79 0 01-.62 1.22 2.9 2.9 0 00.17-.52 2.64 2.64 0 00.05-.88l-.44-.18c.06-.11-.07-.32-.13-.36a4.65 4.65 0 00-1.36-.11s-.07.14-.11.23h-.2a1.2 1.2 0 01-.17 1.32 2.56 2.56 0 00.05-.27 4.75 4.75 0 000-.65.28.28 0 00-.41-.25 1.77 1.77 0 00-1 .82.23.23 0 00-.04.19zm.6-.38a.2.2 0 01.19-.19.18.18 0 01.19.19.18.18 0 01-.18.19.2.2 0 01-.2-.21zM394 310.74a1.79 1.79 0 00.87.69 2.81 2.81 0 00.54.17.41.41 0 000 .11c0 .18.63.57.63.57a.65.65 0 00.11-.54v-.05h.38a4.29 4.29 0 001.8-.39c.14-.06.19-.11.2-.2s.5.31.61.44.62.36.55.26a5.28 5.28 0 01-.14-.93 3.74 3.74 0 01.38-1.29c.09-.08-.54.15-.67.37a2.3 2.3 0 01-.68.66.46.46 0 00-.07-.24 1 1 0 00-.31-.18 1.75 1.75 0 01-.62 1.22 2.24 2.24 0 00.18-.52 3 3 0 00.05-.88l-.44-.18c.06-.11-.07-.32-.14-.36a5 5 0 00-1.35-.12s-.07.15-.12.24h-.19a1.18 1.18 0 01-.18 1.32v-.92a.29.29 0 00-.42-.26 1.77 1.77 0 00-1 .83.25.25 0 00.03.18zm.61-.37a.2.2 0 01.19-.19.18.18 0 01.19.18.19.19 0 01-.19.2.2.2 0 01-.19-.19z" transform="translate(-372.25 -273.95)"/>
</svg>
