<svg height="30.016" width="37.649" viewBox="0 0 12.55 10.005" xmlns="http://www.w3.org/2000/svg">
    <g fill="none" stroke="#fff" stroke-width="10.667" stroke-linecap="round" stroke-linejoin="round">
        <g transform="rotate(-30 .54 -10.269) scale(.15)">
            <path d="M-48.59 37.773h64.862L-3.022 63.18m-13.137-25.542V5.342"/>
            <circle cx="-7.905" cy="48.781" r="5.85"/>
            <circle cx="-25.905" cy="48.781" r="5.85"/>
        </g>
        <path d="M.8 7.444h4.256m-1.243-3.3 2.474-1.428M8.83 7.444h2.919m-9.509.834h8.38m-7.185.927h6.167" stroke-width="1.6"/>
    </g>
    <g stroke-linecap="round" stroke-linejoin="round">
        <g transform="rotate(-30 .54 -10.269) scale(.15)" stroke="#292f33">
            <path d="M-48.59 37.773h64.862L-3.022 63.18m-13.137-25.542V5.342" fill="none" stroke-width="4"/>
            <circle cx="-7.905" cy="48.781" r="5.85" fill="#88c9f9" fill-opacity=".626" stroke-width="2"/>
            <circle cx="-25.905" cy="48.781" r="5.85" fill="#88c9f9" fill-opacity=".626" stroke-width="2"/>
        </g>
        <path d="M.8 7.444h4.256" fill-opacity=".043" stroke="#3c96ce" stroke-width=".6"/>
        <path d="m3.813 4.144 2.474-1.428" fill-opacity=".043" stroke="#292f33" stroke-width=".6"/>
        <path d="M8.83 7.444h2.92m-9.509.834h8.38m-7.185.927h6.167" fill-opacity=".043" stroke="#3c96ce" stroke-width=".6"/>
    </g>
</svg>
