<svg width="64.959" height="64.285" xmlns="http://www.w3.org/2000/svg">
    <path d="M59.449 21.922 36.319 4.308a6.353 6.353 0 0 0-7.678 0l-8.385 6.378V3h-9.985v15.282l-4.769 3.624A6.353 6.353 0 0 0 3 26.95v27.98c0 3.5 2.837 6.337 6.337 6.337H26.96V42.141H38v19.144h17.623c3.5 0 6.337-2.837 6.337-6.337v-27.98a6.353 6.353 0 0 0-2.51-5.046z" fill="none" stroke="#fff" stroke-width="6" stroke-miterlimit="10"/>
    <path d="M59.449 21.922 36.319 4.308a6.353 6.353 0 0 0-7.678 0l-8.385 6.378V3h-9.985v15.282l-4.769 3.624A6.353 6.353 0 0 0 3 26.95v27.98c0 3.5 2.837 6.337 6.337 6.337H26.96V42.141H38v19.144h17.623c3.5 0 6.337-2.837 6.337-6.337v-27.98a6.353 6.353 0 0 0-2.51-5.046z" fill="#88c9f9" fill-opacity=".994" stroke="#000" stroke-width="1.5" stroke-miterlimit="10"/>
</svg>
