<svg xmlns="http://www.w3.org/2000/svg" viewBox="0 0 75.57 114.64">
    <path d="M454 304.68 425.53 283a7.82 7.82 0 0 0-9.45 0l-10.32 7.85v-9.46h-12.29v18.81l-5.87 4.46a7.82 7.82 0 0 0-3.08 6.21v34.44a7.8 7.8 0 0 0 7.8 7.8h19.23v-33.39h18.51v33.41h19.23a7.8 7.8 0 0 0 7.8-7.8v-34.44a7.82 7.82 0 0 0-3.09-6.21zM386.53 258a5.66 5.66 0 0 1 11.32-.05 5.66 5.66 0 1 1-11.32.05zm13.17 9.78a3.65 3.65 0 1 1-3.67 3.64 3.62 3.62 0 0 1 3.67-3.64zm.35-26.29a3.2 3.2 0 0 1 3.23 3.18 3.22 3.22 0 0 1-6.43 0 3.19 3.19 0 0 1 3.2-3.18z" transform="translate(-383.02 -239.99)" style="fill:#1d71b8;stroke:#36a9e1;stroke-miterlimit:10;stroke-width:3px"/>
</svg>
