<svg xmlns="http://www.w3.org/2000/svg" width="32" height="22">
    <path d="M10.11 1C4.587 1 .196 5.955 1.216 11.38 2.077 15.968 5.449 19 10 19c.755 0 1.41-.292 1.998-.717C13.39 19.014 14.364 21 16 21c1.636 0 2.61-1.986 4.002-2.717.588.425 1.243.717 1.998.717 4.551 0 7.922-3.033 8.783-7.62C31.803 5.956 27.412 1 21.891 1z" fill="none" stroke="#fff" stroke-width="2" stroke-opacity=".824"/>
    <path d="M19 16l-3-3-3 3-2 2c2 0 3 3 5 3s3-3 5-3z" fill="#292f33"/>
    <path d="M22 17c-1.041 0-2.113-1.664-2.896-2.88-.226-.35-.437-.676-.635-.954A3.034 3.034 0 0016 11.889c-.979 0-1.901.477-2.469 1.275-.199.281-.41.606-.635.957C12.113 15.336 11.042 17 10 17c-3.512 0-6.125-2.295-6.819-5.988-.365-1.941.147-3.87 1.442-5.431A7.112 7.112 0 0110.11 3h11.78c2.126 0 4.126.941 5.486 2.581 1.295 1.561 1.808 3.49 1.442 5.431C28.125 14.706 25.512 17 22 17z" fill="#88c9f9" fill-opacity=".626"/>
    <path d="M27.761 5.262A7.609 7.609 0 0021.89 2.5H10.11a7.609 7.609 0 00-5.871 2.762C2.847 6.94 2.297 9.014 2.69 11.104 3.431 15.049 6.232 17.5 10 17.5c1.314 0 2.424-1.723 3.316-3.108.221-.344.428-.663.622-.938A2.536 2.536 0 0116 12.389c.817 0 1.587.398 2.062 1.067.194.272.401.593.622.935.892 1.385 2.002 3.109 3.316 3.109 3.769 0 6.569-2.45 7.31-6.396.393-2.089-.158-4.164-1.549-5.842zm.566 5.658c-.646 3.442-3.07 5.58-6.327 5.58-.769 0-1.837-1.659-2.476-2.651-.23-.356-.445-.688-.647-.972A3.537 3.537 0 0016 11.39c-1.14 0-2.215.555-2.877 1.486a28.63 28.63 0 00-.648.976c-.639.99-1.706 2.648-2.475 2.648-3.256 0-5.681-2.139-6.328-5.581-.336-1.792.138-3.574 1.336-5.019a6.613 6.613 0 015.102-2.4h11.78c1.977 0 3.836.875 5.102 2.4 1.197 1.445 1.672 3.228 1.335 5.02z" fill="#292f33"/>
    <path d="M13.495 3.505l-8.977 8.977c.436 1.29 1.091 2.313 1.996 3.004L18.495 3.505z" fill="#bbddf5"/>
    <path d="M16 9c-1.837 0-3.674 4.215-5.511 7.227.827-.557 1.732-1.831 2.286-2.692.209-.325.405-.627.589-.888.527-.741 1.515-1.277 2.635-1.277a3.58 3.58 0 012.879 1.461c.184.258.38.561.589.885.561.871 1.127 2.044 2.058 2.537C19.685 13.24 17.842 9 16 9z" fill="#3c96ce"/>
    <path d="M10.11 1C4.587 1 .196 5.955 1.216 11.38 2.077 15.968 5.449 19 10 19c2.557 0 4.062-3.128 5.162-4.676a1.026 1.026 0 011.678 0C17.939 15.872 19.444 19 22 19c4.551 0 7.922-3.033 8.783-7.62C31.803 5.956 27.412 1 21.891 1zm0 1.5h11.78a7.609 7.609 0 015.872 2.762c1.39 1.678 1.942 3.753 1.549 5.842C28.57 15.05 25.769 17.5 22 17.5c-1.314 0-2.424-1.724-3.316-3.11-.221-.341-.428-.663-.622-.935A2.533 2.533 0 0016 12.39c-.82 0-1.587.397-2.063 1.064-.193.275-.4.596-.62.94C12.423 15.778 11.313 17.5 10 17.5c-3.768 0-6.57-2.451-7.31-6.396-.394-2.09.156-4.164 1.548-5.842A7.609 7.609 0 0110.11 2.5z" fill="#4e9322"/>
</svg>
