<svg id="Calque_1" data-name="Calque 1" xmlns="http://www.w3.org/2000/svg" viewBox="0 0 132.62 132.62">
    <defs>
        <style>
            .cls-1{fill:#028eaa}.cls-2{fill:#fff}
        </style>
    </defs>
    <circle class="cls-1" cx="66.31" cy="66.31" r="66.31"/>
    <rect class="cls-2" x="28.22" y="52.35" width="76.17" height="44.14" rx="4.86"/>
    <path d="M461.47 289.51h-81.33a4.58 4.58 0 01-4.64-5.8l4.81-15.14a4.79 4.79 0 014.63-3.23h71.73a4.79 4.79 0 014.63 3.23l4.81 15.14a4.58 4.58 0 01-4.64 5.8z" transform="translate(-354.5 -231)" stroke-miterlimit="10" stroke="#028eaa" fill="#fff"/>
    <rect class="cls-1" x="37.52" y="64.29" width="36.6" height="33.99" rx="1.53"/>
    <rect class="cls-1" x="80.78" y="64.29" width="15.01" height="33.99" rx="1.53"/>
    <circle cx="55.82" cy="81.29" r="12.65" stroke="#fff" fill="none" stroke-miterlimit="10"/>
    <path class="cls-2" d="M417.18 312.1c0-1.78-.57-2.9-1.75-3.41V303H414v5.4h-7.52c-2.45 0-3.6 1.19-3.6 3.74s1.63 3 3 3c1.71 0 2.71-1.53 3.38-2.54a.74.74 0 011.42 0c.62.95 1.54 2.35 3.05 2.52v3.71a.69.69 0 01-.69.7h-1.39a.69.69 0 01-.69-.7v-1.08a.71.71 0 00-.59-.69.7.7 0 00-.8.69v1a2.18 2.18 0 002.18 2.19h1.46a1.91 1.91 0 001.99-1.94v-3.95c1.06-.23 1.98-.92 1.98-2.95zm-3 2c-1.06 0-1.78-1-2.5-2.06a1.76 1.76 0 00-3.18 0c-.72 1.09-1.44 2.06-2.5 2.06-1.32 0-2-.3-2-2 0-2 .69-2.69 2.55-2.69h7.06c1.86 0 2.55.73 2.55 2.69-.03 1.69-.7 1.99-2.02 1.99z" transform="translate(-354.5 -231)"/>
    <path d="M28.54 58.27l4.24-18.31m2.43 18.47l2.15-15.65m4.39 15.7l.9-13.31" stroke="#028eaa" stroke-miterlimit="10" fill="none" stroke-linecap="round"/>
</svg>
