<svg xmlns="http://www.w3.org/2000/svg" viewBox="0 0 68.06 95.07">
    <path d="m448.14 250.77-54.67 12.57a5.69 5.69 0 0 0-5.69 5.69v74.82h33c0-8 0-16.46.09-17.91.36-4.59 2.91-7.67 7.19-9.28a21 21 0 0 1 10.28-.92 13.68 13.68 0 0 1 6.66 2.52 10.34 10.34 0 0 1 4.25 8.41v17.18h4.53v-87.39a5.69 5.69 0 0 0-5.64-5.69zM412 311.38h-15.62v-15.57H412zm0-24.09h-15.62v-15.58H412zm8.85 0v-15.58h15.57v15.58zm14.36 26.32a8.34 8.34 0 1 1 8.34-8.34 8.34 8.34 0 0 1-8.38 8.34z" transform="translate(-386.78 -249.77)" style="fill:#29235c;stroke:#36a9e1;stroke-miterlimit:10;stroke-width:2px"/>
</svg>
