<svg xmlns="http://www.w3.org/2000/svg" viewBox="0 0 74.57 101.02">
    <path d="m454 298.38-28.48-21.66a7.79 7.79 0 0 0-9.45 0l-11 8.39v-6.78h-9.75v14.2l-7.69 5.85a7.79 7.79 0 0 0-3.08 6.21V339a7.8 7.8 0 0 0 7.74 7.8h15.92c0-4.07 0-9 .05-10a8.93 8.93 0 0 1 5.94-8.35 17.28 17.28 0 0 1 13.55.12 9 9 0 0 1 5.71 8.76v9.46h15.89a7.8 7.8 0 0 0 7.76-7.8v-34.4a7.79 7.79 0 0 0-3.11-6.21zm-33.17 26.75a7.58 7.58 0 1 1 7.55-7.58 7.55 7.55 0 0 1-7.54 7.58zm-32.53-63.87a5.66 5.66 0 0 1 11.32-.06 5.66 5.66 0 1 1-11.32.06zm13.16 6.83a3.6 3.6 0 0 1 3.67 3.63 3.67 3.67 0 1 1-3.67-3.63zm.35-20.29A3.18 3.18 0 0 1 405 251a3.21 3.21 0 0 1-6.42 0 3.18 3.18 0 0 1 3.23-3.2z" transform="translate(-383.52 -246.8)" style="fill:#29235c;stroke:#36a9e1;stroke-miterlimit:10;stroke-width:2px"/>
</svg>
