<svg xmlns="http://www.w3.org/2000/svg" viewBox="0 0 70.47 85.07">
    <defs>
        <style>
            .cls-2{fill:#36a9e1}.cls-3{fill:#fff}.cls-4{fill:#009fe3}
        </style>
    </defs>
    <path d="M396.6 267a34.24 34.24 0 0 0 0 48.42l24.21 24.21L445 315.39A34.24 34.24 0 0 0 396.6 267z" transform="translate(-385.57 -255.95)" style="fill:#467492;stroke:#36a9e1;stroke-miterlimit:10;stroke-width:2px"/>
    <path class="cls-2" d="M29.19 48.62c-5.14 3.09-13.29-.52-16.46-5.34-4.43-6.76-3.88-14.89 1.87-20.55a15.48 15.48 0 0 1 11.13-4.4c6.82 0 13.65-.08 20.47 0 8.75.12 15.34 6 15.89 14.72.48 7.66-4.75 16.62-15.45 16.75a9.25 9.25 0 0 1-3.87-1.19 38.33 38.33 0 0 1-5-6.44c-1.13-1.71-2.49-1.71-3.62 0a38.33 38.33 0 0 1-4.96 6.45zm7.67-27.69c-3.95 0-7.17-.05-10.38 0a20.35 20.35 0 0 0-4 .47 12.82 12.82 0 0 0-9.93 12.85c.29 5.35 3.25 10.34 8.22 12 4.77 1.58 6.24 1.6 9.16-2.5.81-1.15 1.55-2.35 2.36-3.51a4.45 4.45 0 0 1 7.48 0c1.06 1.51 2.09 3 3.15 4.55a5.2 5.2 0 0 0 5.45 2.34 13 13 0 0 0 4.77-1.72c4.61-3 6.45-7.29 6.31-12.64-.16-5.57-5.47-11.06-11-11.62-4.16-.38-8.24-.04-11.59-.22z"/>
    <path class="cls-3" d="M36.86 20.93c3.35.18 7.43-.16 11.52.25 5.56.56 10.87 6.05 11 11.62.14 5.35-1.7 9.68-6.31 12.64a13 13 0 0 1-4.77 1.72 5.2 5.2 0 0 1-5.45-2.34c-1.06-1.5-2.09-3-3.15-4.55a4.45 4.45 0 0 0-7.48 0c-.81 1.16-1.55 2.36-2.36 3.51-2.92 4.1-4.39 4.08-9.16 2.5-5-1.64-7.93-6.63-8.22-12a12.82 12.82 0 0 1 9.95-12.86 20.35 20.35 0 0 1 4-.47c3.26-.07 6.48-.02 10.43-.02zm.13 1.76h-9.12a20.13 20.13 0 0 0-5.37.47c-4.95 1.32-8.8 6.47-8.38 11.14.56 6.31 4.71 10.67 10.53 11.13a3 3 0 0 0 2.57-1.08 22.56 22.56 0 0 0 3.25-4.48 6.34 6.34 0 0 1 11.1 0 25.83 25.83 0 0 0 3 4.32 3.42 3.42 0 0 0 3.36 1.23c4.9-.67 7.82-3.55 9.35-8.09 2.44-7.25-3.3-13.82-9.23-14.39-4.03-.44-8.02-.08-11.06-.25z"/>
    <path class="cls-4" d="M36.99 22.69c3 .17 7-.19 11 .2 5.93.57 11.67 7.14 9.23 14.39-1.53 4.54-4.45 7.42-9.35 8.09a3.42 3.42 0 0 1-3.36-1.23 25.83 25.83 0 0 1-3-4.32 6.34 6.34 0 0 0-11.1 0 22.56 22.56 0 0 1-3.25 4.48 3 3 0 0 1-2.57 1.08c-5.82-.46-10-4.82-10.53-11.13-.42-4.67 3.43-9.82 8.38-11.14a20.13 20.13 0 0 1 5.37-.47c2.78.07 5.51.05 9.18.05z"/>
    <ellipse class="cls-3" cx="35.96" cy="54.08" rx="6.42" ry="5.62"/>
    <ellipse class="cls-4" cx="35.95" cy="54.51" rx="5.4" ry="4.73"/>
    <path class="cls-2" d="M21.95 24.85c-.88.88-8.33 5.84-3.51 14.38s1.65-7.36 2.53-9.88a18.43 18.43 0 0 0 .98-4.5zm13.29 26.47c-.61.33-5.8 2.2-2.44 5.42s1.14-2.77 1.75-3.73a4.34 4.34 0 0 0 .69-1.69z"/>
</svg>
