<svg xmlns="http://www.w3.org/2000/svg" viewBox="0 0 29.36 29.36">
    <path d="M29.36 14.68a14.68 14.68 0 10-17 14.5V18.92H8.63v-4.24h3.73v-3.23c0-3.68 2.19-5.72 5.55-5.72a22.3 22.3 0 013.28.29v3.61h-1.85a2.12 2.12 0 00-2.39 2.3v2.75h4.07l-.65 4.24h-3.4v10.26a14.68 14.68 0 0012.39-14.5z" fill="#028eaa"/>
    <path d="M20.39 18.92l.65-4.24h-4.07v-2.75a2.12 2.12 0 012.39-2.3h1.85V6.02a22.3 22.3 0 00-3.28-.29c-3.36 0-5.55 2-5.55 5.72v3.23H8.65v4.24h3.73v10.26a14.72 14.72 0 004.59 0V18.92z" fill="#fff"/>
</svg>
