<svg xmlns="http://www.w3.org/2000/svg" width="152.177" height="157.712" viewBox="0 0 40.263 41.728">
    <path d="M20.864 0A20.77 20.77 0 007.026 5.256C2.716 9.076 0 14.65 0 20.863c0 6.276 2.775 11.9 7.16 15.725a20.5 20.5 0 001.597 1.262 20.761 20.761 0 0012.106 3.878 20.75 20.75 0 0011.428-3.413l-1.22-.981a.8.8 0 00-.898-.065 18.766 18.766 0 01-9.31 2.458 18.777 18.777 0 01-10.418-3.14l-1.688-1.261c-4.13-3.46-6.756-8.653-6.756-14.463C2 15.125 4.567 9.988 8.61 6.529A18.77 18.77 0 0120.864 2a18.763 18.763 0 0110.835 3.422 2.424 2.424 0 003.003-.167A20.768 20.768 0 0020.864 0zm-.514 12.756a.618.618 0 00-.598.594.618.618 0 101.235-.002.618.618 0 00-.637-.592zm2.069 5.877a.875.875 0 00-.9.875.875.875 0 101.749 0 .875.875 0 00-.85-.875zm-3.13 5.29a1.748 1.748 0 00-1.798 1.747 1.748 1.748 0 103.497 0h-.001a1.748 1.748 0 00-1.697-1.748zm1.574 7.527a20.741 20.741 0 00-11.227 3.289c.283.28.785.74 1.323 1.07.235.144.53.137.77.004a18.752 18.752 0 019.134-2.364 18.77 18.77 0 0110.418 3.14l1.644 1.293a20.814 20.814 0 006.762 3.162s1.297-4.78 0-8.91a20.779 20.779 0 00-6.275 2.83l1.164.879a.99.99 0 001.086.077 18.45 18.45 0 012.23-1.087c.136-.054.263-.118.386-.19.122.996.277 2.753.037 3.91a2.945 2.945 0 00-.401-.2c-1.18-.478-2.3-1.07-3.346-1.765l-1.643-1.292a20.752 20.752 0 00-12.062-3.846zm-4.159 4.329a.81.81 0 00-.833.81.81.81 0 101.62-.001.81.81 0 00-.787-.809z" fill="#3991aa"/>
</svg>
