<svg xmlns="http://www.w3.org/2000/svg" width="376.573" height="157.714" viewBox="0 0 99.635 41.728">
  <path d="M20.987 13.348a.618.618 0 11-1.235.002.618.618 0 011.235-.002m2.281 6.16a.875.875 0 11-1.75 0 .875.875 0 011.75 0m-2.28 6.162a1.748 1.748 0 11-3.497 0 1.748 1.748 0 113.496 0m67.424 13.506a.175.175 0 00-.058-.138.19.19 0 00-.126-.045.16.16 0 00-.13.055.182.182 0 00-.046.125c0 .033.008.065.025.097.016.032.059.06.127.087l.212.084a.514.514 0 01.277.212.577.577 0 01-.076.674.53.53 0 01-.384.158.514.514 0 01-.487-.306.581.581 0 01-.05-.234h.34c.006.05.023.095.05.138.027.043.075.063.142.063a.21.21 0 00.14-.05.175.175 0 00.061-.144.21.21 0 00-.038-.127.306.306 0 00-.14-.09l-.174-.064a.597.597 0 01-.266-.189.486.486 0 01-.097-.306.51.51 0 01.159-.377.476.476 0 01.165-.108.56.56 0 01.205-.036.468.468 0 01.362.147.55.55 0 01.145.373zm-2.694.1c0-.074.004-.14.013-.202a.51.51 0 01.053-.162.504.504 0 01.182-.188.567.567 0 01.288-.07c.113 0 .208.025.286.07a.494.494 0 01.236.35c.008.062.014.128.014.201v.589c0 .073-.006.14-.014.201a.49.49 0 01-.236.35.548.548 0 01-.286.07.554.554 0 01-.288-.07.48.48 0 01-.234-.35 1.252 1.252 0 01-.014-.201zm.36.644c0 .07.014.12.046.155a.171.171 0 00.13.05.17.17 0 00.128-.05c.032-.035.048-.086.048-.155v-.701c0-.069-.016-.12-.048-.153a.166.166 0 00-.128-.053.167.167 0 00-.13.053c-.032.033-.047.084-.047.153zm-1.995.545v-1.79h.361v.191c.073-.066.145-.117.215-.156a.552.552 0 01.26-.056v.382a.294.294 0 00-.108-.021.468.468 0 00-.123.018.33.33 0 00-.117.066.325.325 0 00-.092.12.427.427 0 00-.035.183v1.063zm-.977-.717v.156a.55.55 0 01-.044.22.603.603 0 01-.303.313.534.534 0 01-.225.048.814.814 0 01-.208-.029.482.482 0 01-.19-.097.551.551 0 01-.14-.182.655.655 0 01-.054-.284v-1.384c0-.081.015-.158.042-.229a.538.538 0 01.306-.305.6.6 0 01.237-.043.548.548 0 01.535.357c.03.074.044.155.044.242v.14h-.36v-.12a.29.29 0 00-.059-.182.194.194 0 00-.162-.078c-.09 0-.15.028-.178.083a.433.433 0 00-.044.21v1.284c0 .073.015.134.047.183.031.05.088.075.17.075.024 0 .05-.004.078-.013a.238.238 0 00.075-.041.223.223 0 00.053-.077.321.321 0 00.02-.123v-.124zm-3.234-.441h1.062v.36h-1.062zm-1.433-.631v-.544h.36v.544h.223v.281h-.222v.992c0 .043.003.075.012.1.007.023.02.04.04.052a.15.15 0 00.07.02c.025.004.06.005.1.005v.339h-.15a.478.478 0 01-.204-.04.339.339 0 01-.133-.098.383.383 0 01-.073-.137.51.51 0 01-.023-.146v-1.087h-.18v-.281zm-1.686 1.789v-1.79h.36v.191c.073-.066.145-.117.215-.156a.552.552 0 01.26-.056v.382a.294.294 0 00-.108-.021.458.458 0 00-.122.018.357.357 0 00-.21.186.449.449 0 00-.035.183v1.063zm-2.043-1.19c0-.073.006-.139.015-.2a.464.464 0 01.052-.163.504.504 0 01.182-.188.568.568 0 01.288-.07c.112 0 .208.025.287.07a.47.47 0 01.234.35c.01.062.015.128.015.201v.589c0 .073-.006.14-.015.201a.484.484 0 01-.234.35.552.552 0 01-.287.07.554.554 0 01-.288-.07.494.494 0 01-.182-.187.452.452 0 01-.052-.163 1.244 1.244 0 01-.015-.201zm.36.645c0 .07.016.12.048.155a.171.171 0 00.13.05.17.17 0 00.127-.05c.032-.035.049-.086.049-.155v-.701c0-.069-.017-.12-.049-.153a.166.166 0 00-.128-.053.167.167 0 00-.13.053c-.03.033-.046.084-.046.153zm-2.405.545v-2.514h.539a.8.8 0 01.261.039.545.545 0 01.332.37c.024.088.035.206.035.356 0 .113-.007.21-.02.287a.575.575 0 01-.082.218.529.529 0 01-.197.193.674.674 0 01-.325.068h-.184v.982zm.36-2.174v.853h.172c.073 0 .13-.01.17-.031a.19.19 0 00.087-.088.327.327 0 00.035-.131 2.94 2.94 0 000-.34.367.367 0 00-.03-.14.195.195 0 00-.086-.09.32.32 0 00-.161-.033zm-2.714 1.414h-.712v.244c0 .057.015.1.048.131.032.03.074.046.128.046.068 0 .113-.021.136-.06a.33.33 0 00.04-.12h.36a.515.515 0 01-.536.54.557.557 0 01-.288-.071.494.494 0 01-.182-.187.517.517 0 01-.052-.162 1.573 1.573 0 01-.014-.202v-.589c0-.073.005-.14.014-.2a.534.534 0 01.052-.163.504.504 0 01.182-.188.557.557 0 01.288-.069c.083 0 .157.014.225.042a.512.512 0 01.17.115c.094.108.141.24.141.4zm-.712-.282h.352v-.204c0-.069-.015-.12-.046-.153a.172.172 0 00-.13-.053.166.166 0 00-.128.053c-.033.033-.048.084-.048.153zm-1.69 1.042v-.163c-.023.026-.045.05-.067.072a.324.324 0 01-.159.098.49.49 0 01-.116.013c-.15 0-.254-.056-.314-.17a.465.465 0 01-.047-.147 1.747 1.747 0 01-.013-.237v-.68c0-.13.004-.225.01-.286a.336.336 0 01.166-.264.35.35 0 01.201-.047c.07 0 .134.016.189.048a.435.435 0 01.143.137h.007v-.887h.36v2.513zm-.357-.583c0 .073.015.132.043.176.028.046.073.068.134.068a.157.157 0 00.13-.062.249.249 0 00.05-.16v-.696a.201.201 0 00-.05-.14.172.172 0 00-.13-.053c-.068 0-.115.02-.14.062a.29.29 0 00-.037.149zm-3.103-1.93h.36v2.007c0 .069.012.116.037.14.023.025.07.04.139.047v.34a1.22 1.22 0 01-.222-.02.412.412 0 01-.17-.076.333.333 0 01-.108-.15.734.734 0 01-.036-.256zm-1.31 2.513v-.185h-.006a.675.675 0 01-.143.153.344.344 0 01-.203.052.359.359 0 01-.351-.234.67.67 0 01-.038-.242c0-.101.009-.19.025-.266a.383.383 0 01.265-.303.877.877 0 01.278-.038h.039a.17.17 0 01.04.004c.01.001.026.003.042.003a.35.35 0 01.053.004v-.187a.284.284 0 00-.039-.152c-.026-.04-.073-.06-.142-.06a.203.203 0 00-.128.046.212.212 0 00-.076.134h-.35c.01-.16.065-.29.163-.389a.514.514 0 01.17-.11.63.63 0 01.434-.006.48.48 0 01.172.107.499.499 0 01.113.176c.029.07.042.153.042.247v1.246zm0-.77a.588.588 0 00-.098-.01.364.364 0 00-.2.053c-.055.037-.083.103-.083.2 0 .069.017.124.05.165a.164.164 0 00.138.065.18.18 0 00.143-.06.26.26 0 00.05-.17zm-2.758.77v-1.79h.36v.173h.007a.487.487 0 01.136-.139.352.352 0 01.203-.055c.044 0 .09.008.133.023.046.015.086.04.12.076.036.036.064.08.086.136.02.056.031.123.031.203v1.373h-.36v-1.24a.244.244 0 00-.046-.155c-.03-.037-.073-.055-.13-.055-.069 0-.116.02-.142.062a.372.372 0 00-.038.185v1.203zm-2.042-1.19c0-.073.004-.139.014-.2a.5.5 0 01.052-.163.504.504 0 01.182-.188.567.567 0 01.288-.07c.113 0 .208.025.286.07a.494.494 0 01.236.35 1.5 1.5 0 01.014.201v.589c0 .073-.006.14-.014.201a.48.48 0 01-.236.35.549.549 0 01-.286.07.554.554 0 01-.288-.07.48.48 0 01-.234-.35 1.287 1.287 0 01-.014-.201zm.36.645c0 .07.015.12.046.155a.171.171 0 00.13.05.17.17 0 00.128-.05c.032-.035.048-.086.048-.155v-.701c0-.069-.016-.12-.048-.153a.166.166 0 00-.128-.053.167.167 0 00-.13.053c-.031.033-.047.084-.047.153zm-1.69-1.968h.36v.36h-.36zm0 .724h.36v1.789h-.36zm-1.426 0v-.544h.36v.544h.223v.281h-.222v.992c0 .043.003.075.012.1a.09.09 0 00.04.052.15.15 0 00.069.02c.026.004.06.005.1.005v.339h-.148a.478.478 0 01-.206-.04.339.339 0 01-.132-.098.384.384 0 01-.073-.137.511.511 0 01-.023-.146v-1.087h-.18v-.281zm-1.33 1.789v-.185h-.007a.675.675 0 01-.143.153.344.344 0 01-.203.052.47.47 0 01-.128-.019.336.336 0 01-.125-.073.332.332 0 01-.097-.142.67.67 0 01-.037-.242c0-.101.008-.19.025-.266a.428.428 0 01.09-.192.39.39 0 01.174-.112.877.877 0 01.279-.037h.038c.014 0 .028.001.039.004.012.001.026.003.042.003.017 0 .035.001.053.004v-.187a.272.272 0 00-.039-.152c-.026-.04-.073-.06-.14-.06a.206.206 0 00-.13.046.219.219 0 00-.076.134h-.348a.58.58 0 01.162-.389.523.523 0 01.168-.11.628.628 0 01.434-.006c.067.024.125.06.174.107a.519.519 0 01.113.176c.028.07.043.153.043.247v1.246zm0-.77a.587.587 0 00-.098-.01.358.358 0 00-.2.053c-.055.037-.082.103-.082.2a.25.25 0 00.05.165.162.162 0 00.136.065c.062 0 .108-.02.143-.06.034-.04.05-.097.05-.17zm-2.759.77v-1.79h.361v.173h.007a.5.5 0 01.135-.139.358.358 0 01.203-.055c.045 0 .09.008.135.023a.31.31 0 01.12.076c.034.036.063.08.084.136a.549.549 0 01.031.203v1.373h-.36v-1.24a.244.244 0 00-.045-.155c-.03-.037-.074-.055-.13-.055-.068 0-.117.02-.141.062a.358.358 0 00-.039.185v1.203zm-2.992-.516c0 .057.017.1.049.131.031.03.074.046.128.046.069 0 .114-.021.136-.061a.308.308 0 00.04-.12h.361a.52.52 0 01-.537.54.552.552 0 01-.287-.07.494.494 0 01-.182-.187.451.451 0 01-.052-.163 1.29 1.29 0 01-.015-.201v-.589c0-.073.005-.14.015-.2a.461.461 0 01.052-.163.504.504 0 01.182-.188.552.552 0 01.287-.07c.082 0 .157.015.224.043a.499.499 0 01.171.115.596.596 0 01.142.414h-.36c0-.073-.016-.127-.048-.16a.166.166 0 00-.13-.051.165.165 0 00-.127.05c-.032.034-.049.085-.049.154zm-2.024.516v-1.79h.361v.191c.072-.066.143-.117.214-.156a.561.561 0 01.261-.056v.382a.293.293 0 00-.108-.021.349.349 0 00-.332.204.427.427 0 00-.035.183v1.063zm-1.33 0v-.185h-.007a.675.675 0 01-.143.153.344.344 0 01-.203.052.463.463 0 01-.128-.019.336.336 0 01-.125-.073.347.347 0 01-.098-.142.701.701 0 01-.037-.242c0-.101.008-.19.026-.266a.414.414 0 01.09-.192.393.393 0 01.175-.112.872.872 0 01.278-.037h.038c.014 0 .027.001.039.004.012.001.026.003.043.003.015 0 .033.001.052.004v-.187a.272.272 0 00-.038-.152c-.027-.04-.073-.06-.142-.06a.203.203 0 00-.129.046.212.212 0 00-.075.134h-.35c.01-.16.064-.29.162-.389a.529.529 0 01.17-.11.63.63 0 01.434-.006.47.47 0 01.285.283c.029.07.043.153.043.247v1.246zm0-.77a.587.587 0 00-.098-.01.358.358 0 00-.2.053c-.055.037-.084.103-.084.2a.25.25 0 00.051.165.16.16 0 00.137.065c.062 0 .109-.02.143-.06a.252.252 0 00.051-.17zm-2.759.77v-2.514h.54c.1 0 .187.013.261.039a.545.545 0 01.332.37c.023.088.036.206.036.356 0 .113-.007.21-.02.287a.575.575 0 01-.083.218.529.529 0 01-.198.193.67.67 0 01-.325.068h-.183v.982zm.36-2.174v.853h.174a.372.372 0 00.168-.031.189.189 0 00.088-.088.326.326 0 00.034-.131 3.365 3.365 0 00.001-.34.364.364 0 00-.03-.14.2.2 0 00-.085-.09.33.33 0 00-.163-.033zm56.887-3.151h-.866v.296c0 .069.02.121.058.159a.215.215 0 00.156.055c.084 0 .138-.024.165-.072a.39.39 0 00.05-.146h.437a.626.626 0 01-.382.605.675.675 0 01-.27.05.674.674 0 01-.349-.084.605.605 0 01-.222-.228.613.613 0 01-.063-.197 1.504 1.504 0 01-.016-.245v-.715c0-.09.004-.171.016-.246a.613.613 0 01.063-.197.605.605 0 01.222-.227.674.674 0 01.349-.086c.1 0 .192.017.273.051a.6.6 0 01.208.142c.114.13.17.291.17.485zm-.866-.343h.429v-.248c0-.083-.02-.145-.058-.186a.2.2 0 00-.157-.064.2.2 0 00-.156.064c-.038.041-.058.103-.058.186zm-2.924 1.265v-2.173h.437v.21h.008a.626.626 0 01.165-.17.427.427 0 01.247-.067c.054 0 .109.01.163.028.055.02.103.05.146.092a.47.47 0 01.103.166.713.713 0 01.039.246v1.668h-.439v-1.505a.29.29 0 00-.055-.189.193.193 0 00-.158-.069c-.084 0-.14.027-.172.078a.434.434 0 00-.047.223v1.462zm-2.089.253a.25.25 0 00.062.146c.039.046.095.068.17.068.071 0 .122-.022.154-.066a.284.284 0 00.048-.17v-.428h-.01a.52.52 0 01-.174.165.456.456 0 01-.232.058c-.184 0-.31-.069-.382-.205a.568.568 0 01-.055-.18 1.77 1.77 0 01-.018-.289v-.827c0-.157.004-.273.012-.347a.417.417 0 01.201-.322.44.44 0 01.246-.056c.053 0 .1.006.139.017a.431.431 0 01.19.118l.083.089v-.197h.437v2.439a.717.717 0 01-.038.224.607.607 0 01-.322.357.701.701 0 01-.296.058.708.708 0 01-.207-.033.548.548 0 01-.197-.109.61.61 0 01-.16-.194.84.84 0 01-.088-.316zm0-.922c0 .07.015.129.046.18.03.052.086.078.17.078a.204.204 0 00.155-.067.24.24 0 00.063-.17v-.845a.3.3 0 00-.06-.194.196.196 0 00-.159-.076c-.074 0-.13.028-.162.083a.391.391 0 00-.053.214zm-2.092-2.384h.437v.437h-.437zm0 .88h.437v2.173h-.437zm-2.418 2.173v-3.053h.437v2.616h.866v.437zm-4.207 0v-2.173h.436v.21h.01a.621.621 0 01.164-.17.432.432 0 01.248-.067c.054 0 .108.01.163.028a.41.41 0 01.146.092.468.468 0 01.102.166.681.681 0 01.039.246v1.668h-.437v-1.505c0-.08-.02-.143-.055-.189a.198.198 0 00-.16-.069c-.083 0-.14.027-.17.078a.433.433 0 00-.05.223v1.462zm-1.179-.922h-.866v.296c0 .069.019.121.057.159a.217.217 0 00.158.055c.082 0 .137-.024.164-.072a.39.39 0 00.05-.146h.437a.627.627 0 01-.381.605.685.685 0 01-.27.05.679.679 0 01-.35-.084.601.601 0 01-.22-.228.614.614 0 01-.066-.197 1.679 1.679 0 01-.016-.245v-.715c0-.09.006-.171.016-.246a.614.614 0 01.065-.197.601.601 0 01.22-.227.68.68 0 01.35-.086c.1 0 .19.017.272.051a.6.6 0 01.208.142c.115.13.172.291.172.485zm-.866-.343h.428v-.248c0-.083-.02-.145-.058-.186a.2.2 0 00-.155-.064.2.2 0 00-.158.064c-.038.041-.057.103-.057.186zm-3.233.343h-.867v.296c0 .069.02.121.058.159a.217.217 0 00.157.055c.083 0 .138-.024.165-.072a.413.413 0 00.048-.146h.439a.627.627 0 01-.382.605.675.675 0 01-.27.05.679.679 0 01-.35-.084.58.58 0 01-.284-.424 1.496 1.496 0 01-.018-.246v-.715c0-.09.005-.171.018-.246a.58.58 0 01.284-.424.68.68 0 01.35-.086c.1 0 .19.017.271.051a.605.605 0 01.21.142c.113.13.17.291.17.485zm-.867-.343h.429v-.248c0-.083-.02-.145-.057-.186a.205.205 0 00-.157-.064.2.2 0 00-.157.064c-.039.041-.058.103-.058.186zm-1.578.343h-.867v.296c0 .069.021.121.058.159a.218.218 0 00.157.055c.083 0 .138-.024.166-.072a.417.417 0 00.05-.146h.436a.626.626 0 01-.382.605.675.675 0 01-.27.05.683.683 0 01-.35-.084.58.58 0 01-.284-.424 1.496 1.496 0 01-.018-.246v-.715c0-.09.006-.171.018-.246a.58.58 0 01.284-.424.683.683 0 01.35-.086.635.635 0 01.481.193c.113.13.171.291.171.485zm-.93-1.54l.386-.604h.463l-.567.605zm.063 1.197h.43v-.248c0-.083-.019-.145-.058-.186a.2.2 0 00-.157-.064.2.2 0 00-.157.064c-.037.041-.058.103-.058.186zm-2.486 1.518a.25.25 0 00.062.146c.039.046.095.068.17.068.072 0 .122-.022.154-.066a.283.283 0 00.047-.17v-.428h-.008a.465.465 0 01-.408.223c-.183 0-.31-.069-.382-.205a.606.606 0 01-.055-.18 1.77 1.77 0 01-.018-.289v-.827c0-.157.004-.273.014-.347a.414.414 0 01.201-.322.434.434 0 01.246-.056.44.44 0 01.33.135l.08.089v-.197h.437v2.439a.715.715 0 01-.036.224.544.544 0 01-.118.204.594.594 0 01-.205.153.697.697 0 01-.297.058.699.699 0 01-.205-.033.526.526 0 01-.197-.109.596.596 0 01-.161-.194.895.895 0 01-.089-.316zm0-.922c0 .07.016.129.044.18.03.052.087.078.17.078a.207.207 0 00.157-.067.238.238 0 00.062-.17v-.845a.3.3 0 00-.06-.194.198.198 0 00-.16-.076c-.074 0-.127.028-.162.083a.393.393 0 00-.05.214zm-2.962.669v-2.173h.436v.21h.008a.626.626 0 01.166-.17.427.427 0 01.246-.067c.054 0 .11.01.163.028.055.02.103.05.146.092a.47.47 0 01.103.166.713.713 0 01.039.246v1.668h-.438v-1.505a.29.29 0 00-.055-.189.193.193 0 00-.159-.069c-.084 0-.14.027-.172.078a.434.434 0 00-.047.223v1.462zm-2.484-1.444c0-.09.005-.171.017-.246a.614.614 0 01.065-.197.601.601 0 01.22-.227.68.68 0 01.35-.086.611.611 0 01.571.313.58.58 0 01.063.197c.012.075.018.156.018.246v.715c0 .09-.006.17-.018.245a.58.58 0 01-.285.425.674.674 0 01-.349.085.679.679 0 01-.35-.085.601.601 0 01-.22-.228.614.614 0 01-.065-.197 1.679 1.679 0 01-.017-.245zm.437.784c0 .082.02.144.058.186a.2.2 0 00.157.062.2.2 0 00.156-.062c.038-.042.058-.104.058-.186v-.853c0-.083-.02-.145-.058-.186-.037-.043-.091-.062-.156-.062a.2.2 0 00-.157.062c-.039.041-.058.103-.058.186zm-2.08-2.393h.439v2.44c0 .082.014.139.044.169s.087.05.17.058v.412c-.101 0-.19-.008-.27-.023a.476.476 0 01-.206-.093.394.394 0 01-.13-.182.886.886 0 01-.046-.311zm-2.55 3.053v-3.053h.656c.12 0 .226.016.317.047a.608.608 0 01.25.167.67.67 0 01.154.281c.027.108.042.252.042.436 0 .137-.008.252-.023.347a.73.73 0 01-.102.266c-.06.1-.14.178-.24.234a.813.813 0 01-.394.083h-.223v1.192zm.437-2.64v1.036h.21a.46.46 0 00.206-.037.253.253 0 00.107-.108.406.406 0 00.04-.158 4.886 4.886 0 00.003-.415.465.465 0 00-.038-.17.243.243 0 00-.104-.11.402.402 0 00-.197-.039zm-3.298 1.718h-.865v.296c0 .069.019.121.058.159a.215.215 0 00.155.055c.084 0 .138-.024.166-.072a.391.391 0 00.05-.146h.436a.626.626 0 01-.382.605.675.675 0 01-.27.05.674.674 0 01-.348-.084.605.605 0 01-.222-.228.614.614 0 01-.064-.197 1.502 1.502 0 01-.016-.245v-.715c0-.09.004-.171.016-.246a.613.613 0 01.064-.197.605.605 0 01.222-.227.674.674 0 01.348-.086c.1 0 .192.017.273.051a.6.6 0 01.208.142c.115.13.171.291.171.485zm-.865-.343h.428v-.248c0-.083-.019-.145-.058-.186a.2.2 0 00-.157-.064.2.2 0 00-.155.064c-.039.041-.058.103-.058.186zm-2.055 1.265v-.197l-.081.088a.417.417 0 01-.193.117.48.48 0 01-.142.018c-.182 0-.31-.069-.382-.207a.584.584 0 01-.055-.179 1.968 1.968 0 01-.016-.286v-.829c0-.157.004-.273.012-.347a.414.414 0 01.201-.322.44.44 0 01.245-.055c.086 0 .162.019.23.057a.521.521 0 01.173.166h.008V33.01h.438v3.052zm-.433-.707c0 .088.017.16.051.213.035.056.09.083.164.083a.196.196 0 00.159-.076.3.3 0 00.06-.195v-.844a.238.238 0 00-.063-.17.202.202 0 00-.156-.067c-.082 0-.14.026-.17.077a.352.352 0 00-.045.181zm-3.825-1.466v-.662h.438v.662h.27v.343h-.27v1.204c0 .051.004.091.015.12a.12.12 0 00.049.065.177.177 0 00.084.025c.033.004.073.005.122.005v.41h-.18a.586.586 0 01-.251-.047.47.47 0 01-.161-.12.453.453 0 01-.087-.165.598.598 0 01-.03-.178v-1.32h-.217v-.343zm-1.178 1.25h-.867v.297c0 .069.02.121.058.159a.216.216 0 00.157.055c.083 0 .138-.024.164-.072a.391.391 0 00.05-.146h.438a.626.626 0 01-.382.605.685.685 0 01-.27.05.679.679 0 01-.35-.085.582.582 0 01-.285-.424 1.677 1.677 0 01-.017-.245v-.715c0-.09.006-.171.017-.246a.582.582 0 01.285-.424.679.679 0 01.35-.086c.1 0 .19.017.271.051a.6.6 0 01.208.142c.115.13.173.291.173.485zm-.867-.342h.428v-.248c0-.083-.019-.145-.057-.186a.2.2 0 00-.156-.064.2.2 0 00-.157.064c-.039.041-.058.103-.058.186zm-2.924 1.265v-2.173h.437v.21h.01a.621.621 0 01.163-.17.43.43 0 01.247-.067c.055 0 .109.01.164.028.054.02.102.05.144.092a.451.451 0 01.104.166.682.682 0 01.038.246v1.668h-.438v-1.505a.29.29 0 00-.055-.189.193.193 0 00-.158-.069c-.083 0-.14.027-.173.078a.449.449 0 00-.046.223v1.462zm-2.05 0v-2.173h.437v.231a1.38 1.38 0 01.262-.189.67.67 0 01.317-.069v.463a.366.366 0 00-.132-.026.537.537 0 00-.149.024.416.416 0 00-.255.226.508.508 0 00-.043.223v1.29zm-1.617 0v-.223h-.009a.754.754 0 01-.173.184.41.41 0 01-.247.065.553.553 0 01-.156-.023.413.413 0 01-.153-.089.41.41 0 01-.117-.173.8.8 0 01-.045-.294c0-.122.01-.231.03-.324a.51.51 0 01.112-.234.473.473 0 01.21-.135 1.1 1.1 0 01.338-.044h.047a.22.22 0 01.047.004.269.269 0 00.052.004c.02 0 .042.001.064.004v-.227a.334.334 0 00-.047-.185c-.032-.048-.088-.073-.171-.073-.058 0-.11.02-.157.056a.269.269 0 00-.092.163h-.425a.697.697 0 01.197-.471.625.625 0 01.207-.135c.08-.033.17-.05.27-.05.09 0 .176.014.256.043a.61.61 0 01.211.128c.057.058.103.13.137.215a.801.801 0 01.052.3v1.513zm0-.935a.766.766 0 00-.12-.012.427.427 0 00-.241.066c-.068.044-.1.126-.1.243 0 .082.018.149.058.2a.2.2 0 00.167.078.217.217 0 00.174-.073.307.307 0 00.062-.205zm-2.015.065v.189a.676.676 0 01-.054.267.724.724 0 01-.37.382.64.64 0 01-.27.058.964.964 0 01-.254-.034.6.6 0 01-.232-.12.668.668 0 01-.169-.22.79.79 0 01-.066-.347v-1.681a.682.682 0 01.197-.502.69.69 0 01.226-.147.752.752 0 01.29-.054.667.667 0 01.648.436.78.78 0 01.054.293v.171h-.437v-.145a.353.353 0 00-.073-.223.236.236 0 00-.198-.094c-.108 0-.18.034-.217.101a.534.534 0 00-.052.255v1.56c0 .09.018.164.058.223.037.06.107.09.207.09a.287.287 0 00.185-.063.264.264 0 00.064-.094.403.403 0 00.026-.152v-.149zm2.03-21.636V26.52a1.645 1.645 0 01-1.645-1.644v-.584c-.7.85-1.483 1.49-2.353 1.918-.87.43-1.822.644-2.854.644-1.835 0-3.402-.666-4.7-1.996s-1.949-2.949-1.949-4.854c0-1.769.677-3.458 1.905-4.729 1.323-1.368 2.92-2.053 4.793-2.053 1.063 0 2.027.228 2.89.68.86.453 1.617 1.132 2.268 2.038v-.739c0-.908.737-1.645 1.645-1.645m-6.667 1.276a5.017 5.017 0 00-4.446 2.606 5.258 5.258 0 00-.695 2.618c0 .914.234 1.786.7 2.618a5.102 5.102 0 001.887 1.946 4.93 4.93 0 002.542.697c.913 0 1.777-.23 2.594-.69a4.833 4.833 0 001.887-1.869c.44-.785.66-1.67.66-2.654 0-1.5-.493-2.753-1.481-3.76-.988-1.008-2.204-1.512-3.648-1.512m.69 17.302a20.779 20.779 0 00-6.275 2.83l1.164.879a.99.99 0 001.086.077c.717-.41 1.46-.775 2.231-1.087.135-.054.262-.118.385-.19.122.996.277 2.753.037 3.91a2.945 2.945 0 00-.401-.2c-1.18-.478-2.3-1.07-3.346-1.765l-1.643-1.292a20.752 20.752 0 00-12.062-3.846 20.741 20.741 0 00-11.227 3.289c.283.28.785.74 1.323 1.07.235.144.53.137.77.004a18.752 18.752 0 019.134-2.364 18.77 18.77 0 0110.418 3.14l1.644 1.293a20.814 20.814 0 006.762 3.162s1.297-4.78 0-8.91m-18.824 7.593a18.777 18.777 0 01-10.418-3.139l-1.688-1.262c-4.13-3.46-6.756-8.653-6.756-14.463 0-5.738 2.566-10.875 6.609-14.334a18.77 18.77 0 0112.254-4.528 18.763 18.763 0 0110.835 3.422 2.424 2.424 0 003.003-.167A20.768 20.768 0 0020.864 0 20.77 20.77 0 007.026 5.256C2.717 9.077 0 14.651 0 20.863c0 6.276 2.775 11.9 7.159 15.725a20.5 20.5 0 001.598 1.262 20.761 20.761 0 0012.106 3.878 20.75 20.75 0 0011.428-3.413l-1.22-.981a.8.8 0 00-.898-.065 18.766 18.766 0 01-9.31 2.458m-3.372-3.139a.81.81 0 11-1.62.001.81.81 0 011.62 0m66.9-26.82c1.133 0 2.052.919 2.052 2.053v13.617a2.886 2.886 0 002.887 2.885h5.947a1.983 1.983 0 01-1.983 1.983h-3.887a5.017 5.017 0 01-5.016-5.016zm-5.307 13.168l.039.021c-.462.905-.994 1.636-1.599 2.193a6.356 6.356 0 01-2.04 1.267c-.754.291-1.61.436-2.564.436-2.114 0-3.767-.693-4.96-2.08-1.193-1.386-1.79-2.953-1.79-4.7 0-1.644.505-3.11 1.515-4.396 1.28-1.637 2.993-2.456 5.14-2.456 2.21 0 3.976.84 5.294 2.515.939 1.184 1.416 2.661 1.432 4.432H67.886c.032 1.506.513 2.74 1.443 3.703.93.963 2.08 1.445 3.448 1.445.66 0 1.302-.114 1.926-.344a5.091 5.091 0 001.593-.914c.195-.17.396-.384.605-.645a1.749 1.749 0 012.183-.477m-1.368-4.21c-.222-.888-.547-1.6-.972-2.133-.426-.532-.99-.96-1.688-1.285a5.16 5.16 0 00-2.207-.49c-1.272 0-2.367.41-3.282 1.228-.667.596-1.172 1.488-1.514 2.68zM50.177 9.769h4.091c2.346 0 3.928.103 4.748.307 1.172.29 2.13.882 2.876 1.78.744.899 1.116 2.028 1.116 3.386 0 1.369-.363 2.497-1.089 3.386-.726.89-1.726 1.487-3.001 1.794-.932.224-2.672.335-5.223.335h-1.466v7.498a2.05 2.05 0 01-2.052 2.052zm2.052 2.01v6.968l3.477.041c1.405 0 2.433-.127 3.085-.382a3.167 3.167 0 001.537-1.241c.372-.57.558-1.21.558-1.916 0-.687-.186-1.317-.558-1.888a3.08 3.08 0 00-1.474-1.22c-.609-.24-1.608-.362-2.994-.362zm0 0" fill="currentColor"/>
</svg>
