<svg xmlns="http://www.w3.org/2000/svg" viewBox="0 0 29.36 29.36">
    <circle cx="14.68" cy="14.68" r="14.68" fill="#028eaa"/>
    <path d="M22.79 9.65a6.52 6.52 0 01-1.62.46c.26 0 .64-.51.79-.7a3 3 0 00.54-1v-.09a.09.09 0 00-.09 0 8.1 8.1 0 01-1.92.73.12.12 0 01-.13 0l-.17-.17a3.19 3.19 0 00-.93-.57 3.15 3.15 0 00-1.42-.23 3.38 3.38 0 00-1.36.38 3.47 3.47 0 00-1.09.89 3.36 3.36 0 00-.65 1.31 3.72 3.72 0 000 1.37c0 .08 0 .09-.06.08a10.22 10.22 0 01-6.6-3.36c-.08-.08-.12-.08-.18 0a3.34 3.34 0 00.57 3.95 3.52 3.52 0 00.41.36 3.37 3.37 0 01-1.28-.36c-.07 0-.11 0-.12.07a1.64 1.64 0 000 .38 3.37 3.37 0 002.09 2.69 1.47 1.47 0 00.42.13 3.59 3.59 0 01-1.25 0c-.09 0-.13 0-.09.12a3.5 3.5 0 002.62 2.19c.12 0 .24 0 .36.05a4.14 4.14 0 01-1.79 1 6.31 6.31 0 01-2.72.35H6.9c-.04 0 0 .06 0 .1l.57.34a9 9 0 001.82.72 9.66 9.66 0 009.4-2.2 9.84 9.84 0 002.6-7.2c0-.1.13-.16.2-.21a6.73 6.73 0 001.28-1.33.43.43 0 00.08-.26s.02-.02-.06.01z" fill="#fff"/>
</svg>
